<svg width="26" height="27" viewBox="0 0 26 27" fill="none" xmlns="http://www.w3.org/2000/svg">
<path d="M8.11264 0.000256061C7.82053 0.0494026 7.55746 0.18829 7.36989 0.392384C7.18231 0.596479 7.08231 0.852647 7.08755 1.11564V2.23103H2.55599C1.54729 2.23103 0.783203 2.90695 0.783203 3.79926V24.8054C0.783203 25.8093 1.54729 26.4785 2.55599 26.4785H24.1093C25.118 26.4785 25.8821 25.8026 25.8821 24.9103V3.79926C26.0082 2.90695 25.2365 2.23103 24.2278 2.23103H19.6962V1.11564C19.6962 0.819822 19.5634 0.53612 19.3269 0.326945C19.0905 0.117769 18.7698 0.000256061 18.4354 0.000256061H8.34842C8.30894 -0.00138744 8.26938 -0.00138744 8.2299 0.000256061C8.19041 -0.00138744 8.15212 -0.00138744 8.11264 0.000256061ZM9.60929 2.23103H17.1745V4.46179H9.60929V2.23103ZM3.30494 4.46179H7.08755V5.57718C7.08755 5.873 7.22039 6.1567 7.45685 6.36588C7.69331 6.57505 8.01402 6.69256 8.34842 6.69256H18.4354C18.7698 6.69256 19.0905 6.57505 19.3269 6.36588C19.5634 6.1567 19.6962 5.873 19.6962 5.57718V4.46179H23.4789V24.2477H13.3919H3.30494V4.46179ZM5.82668 10.0387V14.5003H10.8702V10.0387H5.82668ZM7.08755 11.1541H9.60929V13.3849H7.08755V11.1541ZM13.3919 11.1541V13.3849H20.9571V11.1541H13.3919ZM5.82668 16.731V21.1926H10.8702V16.731H5.82668ZM13.3919 17.8464V20.0772H20.9571V17.8464H13.3919Z" fill="#FF5353"/>
</svg>
