<svg width="27" height="27" viewBox="0 0 27 27" fill="none" xmlns="http://www.w3.org/2000/svg">
<path d="M18.5625 10.125C18.5625 11.4677 18.0291 12.7553 17.0797 13.7047C16.1303 14.6541 14.8427 15.1875 13.5 15.1875C12.1573 15.1875 10.8697 14.6541 9.92027 13.7047C8.97087 12.7553 8.4375 11.4677 8.4375 10.125C8.4375 8.78234 8.97087 7.49467 9.92027 6.54527C10.8697 5.59587 12.1573 5.0625 13.5 5.0625C14.8427 5.0625 16.1303 5.59587 17.0797 6.54527C18.0291 7.49467 18.5625 8.78234 18.5625 10.125Z" fill="#FF5353"/>
<path d="M3.375 0C2.47989 0 1.62145 0.355579 0.988515 0.988515C0.355579 1.62145 0 2.47989 0 3.375L0 23.625C0 24.5201 0.355579 25.3785 0.988515 26.0115C1.62145 26.6444 2.47989 27 3.375 27H23.625C24.5201 27 25.3785 26.6444 26.0115 26.0115C26.6444 25.3785 27 24.5201 27 23.625V3.375C27 2.47989 26.6444 1.62145 26.0115 0.988515C25.3785 0.355579 24.5201 0 23.625 0L3.375 0ZM23.625 1.6875C24.0726 1.6875 24.5018 1.86529 24.8182 2.18176C25.1347 2.49822 25.3125 2.92745 25.3125 3.375V23.625C25.3125 24.0726 25.1347 24.5018 24.8182 24.8182C24.5018 25.1347 24.0726 25.3125 23.625 25.3125V23.625C23.625 21.9375 21.9375 16.875 13.5 16.875C5.0625 16.875 3.375 21.9375 3.375 23.625V25.3125C2.92745 25.3125 2.49822 25.1347 2.18176 24.8182C1.86529 24.5018 1.6875 24.0726 1.6875 23.625V3.375C1.6875 2.92745 1.86529 2.49822 2.18176 2.18176C2.49822 1.86529 2.92745 1.6875 3.375 1.6875H23.625Z" fill="#FF5353"/>
<path d="M4.09877 0.964355C3.2676 0.964355 2.47048 1.29454 1.88275 1.88226C1.29502 2.46999 0.964844 3.26711 0.964844 4.09828L0.964844 22.9019C0.964844 23.733 1.29502 24.5302 1.88275 25.1179C2.47048 25.7056 3.2676 26.0358 4.09877 26.0358H22.9023C23.7335 26.0358 24.5306 25.7056 25.1184 25.1179C25.7061 24.5302 26.0363 23.733 26.0363 22.9019V4.09828C26.0363 3.26711 25.7061 2.46999 25.1184 1.88226C24.5306 1.29454 23.7335 0.964355 22.9023 0.964355L4.09877 0.964355ZM22.9023 2.53132C23.3179 2.53132 23.7165 2.69641 24.0104 2.99027C24.3042 3.28414 24.4693 3.6827 24.4693 4.09828V22.9019C24.4693 23.3174 24.3042 23.716 24.0104 24.0099C23.7165 24.3037 23.3179 24.4688 22.9023 24.4688V22.9019C22.9023 21.3349 21.3354 16.634 13.5006 16.634C5.66574 16.634 4.09877 21.3349 4.09877 22.9019V24.4688C3.68319 24.4688 3.28462 24.3037 2.99076 24.0099C2.6969 23.716 2.53181 23.3174 2.53181 22.9019V4.09828C2.53181 3.6827 2.6969 3.28414 2.99076 2.99027C3.28462 2.69641 3.68319 2.53132 4.09877 2.53132H22.9023Z" fill="#FF5353"/>
</svg>
