<svg width="28" height="29" viewBox="0 0 28 29" fill="none" xmlns="http://www.w3.org/2000/svg">
<path d="M16.4252 7.67105C13.6606 8.1133 11.1428 9.51903 9.31969 11.6383C8.16981 11.3489 7.13347 10.722 6.34474 9.83883C5.55601 8.95563 5.05119 7.85672 4.89559 6.68427C4.73998 5.51182 4.94075 4.31978 5.47193 3.26236C6.0031 2.20495 6.84024 1.33082 7.87503 0.753067C8.90982 0.175312 10.0947 -0.0794825 11.2762 0.0216455C12.4578 0.122774 13.5818 0.575171 14.5028 1.32031C15.4237 2.06545 16.0992 3.06904 16.442 4.20125C16.7847 5.33346 16.7789 6.54219 16.4252 7.67105ZM7.75385 13.9645C6.92677 15.5754 6.46154 17.4012 6.46154 19.3343C6.46154 22.1481 7.448 24.7299 9.09354 26.7597C3.34923 26.1067 0 22.1331 0 18.2603V17.1864C0 16.3319 0.340384 15.5124 0.946271 14.9082C1.55216 14.3039 2.37392 13.9645 3.23077 13.9645H7.75385ZM16.9615 15.0385C16.9615 14.6824 17.1034 14.341 17.3558 14.0892C17.6083 13.8374 17.9507 13.696 18.3077 13.696C18.6647 13.696 19.0071 13.8374 19.2596 14.0892C19.512 14.341 19.6538 14.6824 19.6538 15.0385C19.6538 15.3945 19.512 15.736 19.2596 15.9877C19.0071 16.2395 18.6647 16.3809 18.3077 16.3809C17.9507 16.3809 17.6083 16.2395 17.3558 15.9877C17.1034 15.736 16.9615 15.3945 16.9615 15.0385ZM19.3846 23.6302C19.3846 23.915 19.2712 24.1882 19.0692 24.3896C18.8672 24.591 18.5933 24.7041 18.3077 24.7041C18.0221 24.7041 17.7482 24.591 17.5462 24.3896C17.3442 24.1882 17.2308 23.915 17.2308 23.6302V19.3343C17.2308 19.0495 17.3442 18.7763 17.5462 18.5749C17.7482 18.3735 18.0221 18.2603 18.3077 18.2603C18.5933 18.2603 18.8672 18.3735 19.0692 18.5749C19.2712 18.7763 19.3846 19.0495 19.3846 19.3343V23.6302ZM8.61539 19.3343C8.61539 18.065 8.86608 16.8081 9.35317 15.6354C9.84025 14.4627 10.5542 13.3972 11.4542 12.4996C12.3542 11.6021 13.4227 10.8901 14.5986 10.4044C15.7745 9.91864 17.0349 9.66863 18.3077 9.66863C19.5805 9.66863 20.8409 9.91864 22.0168 10.4044C23.1927 10.8901 24.2612 11.6021 25.1612 12.4996C26.0612 13.3972 26.7751 14.4627 27.2622 15.6354C27.7493 16.8081 28 18.065 28 19.3343C28 21.8978 26.9788 24.3563 25.1612 26.169C23.3435 27.9817 20.8783 29 18.3077 29C15.7371 29 13.2719 27.9817 11.4542 26.169C9.63654 24.3563 8.61539 21.8978 8.61539 19.3343ZM10.7692 19.3343C10.7692 21.3281 11.5635 23.2403 12.9772 24.6502C14.3909 26.06 16.3084 26.8521 18.3077 26.8521C20.307 26.8521 22.2245 26.06 23.6382 24.6502C25.0519 23.2403 25.8462 21.3281 25.8462 19.3343C25.8462 17.3405 25.0519 15.4283 23.6382 14.0185C22.2245 12.6086 20.307 11.8166 18.3077 11.8166C16.3084 11.8166 14.3909 12.6086 12.9772 14.0185C11.5635 15.4283 10.7692 17.3405 10.7692 19.3343Z" fill="#FF5353"/>
</svg>
