<svg width="60" height="60" viewBox="0 0 60 60" fill="none" xmlns="http://www.w3.org/2000/svg">
<path d="M43.6168 28.3335H31.6668V16.3835C31.6668 15.9414 31.4912 15.5175 31.1786 15.205C30.8661 14.8924 30.4422 14.7168 30.0001 14.7168C29.5581 14.7168 29.1342 14.8924 28.8216 15.205C28.5091 15.5175 28.3335 15.9414 28.3335 16.3835V28.3335H16.3835C15.9414 28.3335 15.5175 28.5091 15.205 28.8216C14.8924 29.1342 14.7168 29.5581 14.7168 30.0001C14.7168 30.4422 14.8924 30.8661 15.205 31.1786C15.5175 31.4912 15.9414 31.6668 16.3835 31.6668H28.3335V43.6168C28.3335 44.0588 28.5091 44.4827 28.8216 44.7953C29.1342 45.1079 29.5581 45.2835 30.0001 45.2835C30.4422 45.2835 30.8661 45.1079 31.1786 44.7953C31.4912 44.4827 31.6668 44.0588 31.6668 43.6168V31.6668H43.6168C44.0588 31.6668 44.4827 31.4912 44.7953 31.1786C45.1079 30.8661 45.2835 30.4422 45.2835 30.0001C45.2835 29.5581 45.1079 29.1342 44.7953 28.8216C44.4827 28.5091 44.0588 28.3335 43.6168 28.3335Z" fill="#FF5353"/>
<path d="M30.0007 3.3335C24.7265 3.3335 19.5708 4.89747 15.1855 7.82764C10.8001 10.7578 7.38221 14.9226 5.36388 19.7953C3.34554 24.668 2.81745 30.0297 3.84639 35.2026C4.87533 40.3754 7.41508 45.1269 11.1445 48.8563C14.8739 52.5857 19.6254 55.1255 24.7983 56.1544C29.9711 57.1834 35.3329 56.6553 40.2056 54.637C45.0783 52.6186 49.243 49.2007 52.1732 44.8154C55.1034 40.4301 56.6673 35.2743 56.6673 30.0002C56.6673 22.9277 53.8578 16.145 48.8568 11.144C43.8559 6.14301 37.0731 3.3335 30.0007 3.3335ZM30.0007 53.3335C25.3858 53.3335 20.8745 51.965 17.0374 49.4011C13.2002 46.8372 10.2095 43.1931 8.44347 38.9294C6.67743 34.6658 6.21535 29.9743 7.11567 25.4481C8.016 20.9218 10.2383 16.7642 13.5015 13.501C16.7647 10.2378 20.9223 8.0155 25.4486 7.11517C29.9748 6.21485 34.6663 6.67693 38.9299 8.44297C43.1936 10.209 46.8377 13.1997 49.4016 17.0369C51.9655 20.874 53.334 25.3853 53.334 30.0002C53.334 36.1885 50.8757 42.1235 46.4998 46.4993C42.124 50.8752 36.189 53.3335 30.0007 53.3335Z" fill="#FF5353"/>
</svg>
