<svg width="90" height="83" viewBox="0 0 90 83" fill="none" xmlns="http://www.w3.org/2000/svg">
<path d="M68.7874 51.1287C67.3512 45.9222 64.2465 41.3307 59.9496 38.0587C55.6526 34.7866 50.4009 33.0146 45 33.0146C39.599 33.0146 34.3473 34.7866 30.0504 38.0587C25.7534 41.3307 22.6487 45.9222 21.2125 51.1287L17.7899 63.5359C17.1753 65.7635 17.0836 68.1031 17.5219 70.372C17.9603 72.641 18.9167 74.778 20.3167 76.6165C21.7167 78.455 23.5225 79.9454 25.5932 80.9713C27.6639 81.9972 29.9435 82.5309 32.2544 82.531H57.7455C60.0564 82.5309 62.3361 81.9972 64.4067 80.9713C66.4774 79.9454 68.2832 78.455 69.6832 76.6165C71.0832 74.778 72.0396 72.641 72.478 70.372C72.9163 68.1031 72.8246 65.7635 72.2101 63.5359L68.7874 51.1287ZM64.9083 72.9796C64.072 74.0867 62.9892 74.9839 61.746 75.6C60.5027 76.2161 59.133 76.5341 57.7455 76.529H32.2544C30.8678 76.529 29.5 76.2088 28.2576 75.5932C27.0152 74.9777 25.9317 74.0835 25.0917 72.9803C24.2516 71.8772 23.6778 70.595 23.4148 69.2336C23.1518 67.8722 23.2068 66.4684 23.5756 65.1318L26.9982 52.7248C28.0851 48.7847 30.4347 45.31 33.6865 42.8338C36.9383 40.3576 40.9127 39.0166 45 39.0166C49.0872 39.0166 53.0616 40.3576 56.3134 42.8338C59.5652 45.31 61.9148 48.7847 63.0017 52.7248L66.4243 65.1318C66.7984 66.4679 66.8561 67.8728 66.593 69.2351C66.3298 70.5974 65.753 71.8796 64.9083 72.9803V72.9796ZM24.387 37.1992C24.9091 33.9357 24.2166 30.4419 22.4363 27.3592C20.656 24.2764 17.9761 21.9298 14.8894 20.7503C11.5838 19.4878 8.21222 19.6889 5.39242 21.3161C-0.213231 24.5527 -1.6884 32.5295 2.10465 39.0979C3.88442 42.1807 6.56449 44.5278 9.65119 45.7068C11.0185 46.2397 12.4719 46.5176 13.9394 46.5267C15.7676 46.5333 17.565 46.0551 19.1482 45.1408C21.9663 43.5133 23.8269 40.6929 24.387 37.1992ZM18.46 36.2505C18.1918 37.9253 17.3703 39.2365 16.1468 39.9429C14.9234 40.6492 13.3771 40.7047 11.7922 40.0999C9.98917 39.4113 8.39453 37.9896 7.30179 36.0969C5.2011 32.4582 5.70039 28.0693 8.3934 26.514C9.07039 26.1299 9.83709 25.932 10.6154 25.9405C11.3456 25.948 12.0682 26.089 12.7476 26.3563C14.5507 27.0452 16.1453 28.4667 17.238 30.3594C18.3308 32.2521 18.7646 34.3447 18.46 36.2505ZM25.037 24.7652C27.1681 26.4688 29.6017 27.356 32.0627 27.3558C32.7999 27.3556 33.5349 27.2763 34.2551 27.1193C40.5803 25.7443 44.4153 18.5959 42.8042 11.1845C42.0483 7.70594 40.2106 4.65412 37.6297 2.59076C34.866 0.381287 31.5923 -0.455049 28.4116 0.236677C22.0867 1.6115 18.2516 8.75984 19.8626 16.1713C20.6187 19.65 22.4564 22.7018 25.037 24.7652ZM29.6863 6.10172C29.978 6.03884 30.2755 6.0074 30.5739 6.00794C31.6895 6.00794 32.837 6.4444 33.8819 7.2798C35.3893 8.48488 36.4751 10.3247 36.9391 12.4604C37.8319 16.5671 36.019 20.5946 32.9803 21.2552C31.5996 21.5553 30.1096 21.1374 28.7851 20.0782C27.2776 18.873 26.1919 17.0332 25.7278 14.8976C24.8348 10.7898 26.6478 6.76232 29.6863 6.10172ZM84.6075 21.3161C81.7888 19.6889 78.4155 19.4878 75.1105 20.7503C72.0238 21.9295 69.3437 24.2764 67.564 27.3592C65.7842 30.4419 65.0915 33.9364 65.6133 37.1992C66.1726 40.6929 68.0329 43.5133 70.8521 45.1408C72.4353 46.0551 74.2326 46.5334 76.0609 46.5267C77.5284 46.5176 78.9818 46.2397 80.3491 45.7068C83.4358 44.5278 86.1159 42.1807 87.8956 39.0979C91.6883 32.5295 90.2131 24.5527 84.6075 21.3161ZM82.6981 36.0969C81.6054 37.9896 80.0107 39.4113 78.2077 40.0999C76.6236 40.7053 75.0769 40.6496 73.8535 39.9429C72.63 39.2361 71.8091 37.9253 71.5403 36.2505C71.2353 34.3447 71.6689 32.2529 72.7619 30.3611C73.8548 28.4694 75.4492 27.0469 77.2523 26.358C77.9317 26.0904 78.6543 25.9492 79.3845 25.9414C80.1628 25.9329 80.9295 26.1308 81.6065 26.515C84.2995 28.0689 84.7994 32.4573 82.6981 36.0969ZM55.7448 27.1193C56.465 27.2763 57.2 27.3556 57.9372 27.3558C60.398 27.3558 62.8325 26.4688 64.9629 24.7652C67.5435 22.702 69.3813 19.65 70.1373 16.1715C71.7483 8.76003 67.9132 1.61169 61.5883 0.236865C58.4078 -0.454487 55.1339 0.381287 52.3702 2.59095C49.7893 4.65412 47.9516 7.70612 47.1957 11.1845C45.5846 18.5959 49.4197 25.7443 55.7448 27.1193ZM53.0608 12.4595C53.5248 10.3237 54.6106 8.48319 56.118 7.27886C57.1631 6.44346 58.3104 6.007 59.4261 6.007C59.7244 6.00646 60.0219 6.0379 60.3136 6.10078C63.3521 6.76138 65.1651 10.7898 64.2725 14.8955C63.8081 17.0313 62.7223 18.8718 61.2152 20.0764C59.8908 21.1353 58.4018 21.5532 57.02 21.2533C53.981 20.5937 52.168 16.5656 53.0608 12.4595Z" fill="white"/>
</svg>
