<svg width="160" height="123" viewBox="0 0 160 123" fill="none" xmlns="http://www.w3.org/2000/svg">
<path d="M149.334 69.3285H160V122.659H149.334V69.3285ZM128.001 47.9961H138.668V122.659H128.001V47.9961ZM106.669 90.6609H117.335V122.659H106.669V90.6609ZM118.269 26.6637L126.721 19.912C118.862 10.0865 107.767 3.3729 95.4162 0.96888C88.5339 -0.36106 81.4569 -0.32147 74.5899 1.08539C67.7228 2.49225 61.2004 5.23879 55.3956 9.16798C49.5907 13.0972 44.6171 18.132 40.7593 23.9845C36.9015 29.8371 34.235 36.3926 32.9123 43.2763C22.8557 45.0924 13.8745 50.6864 7.80997 58.9116C1.74538 67.1369 -0.94329 77.3704 0.295083 87.5144C1.71203 97.3725 6.67059 106.377 14.2439 112.845C21.8172 119.314 31.4868 122.802 41.4453 122.659H85.3366V111.993H41.0399C34.055 112.102 27.2506 109.773 21.7977 105.406C16.3449 101.04 12.5846 94.9088 11.1639 88.069C10.4527 84.2636 10.5009 80.355 11.3059 76.5683C12.1109 72.7816 13.6567 69.1914 15.8544 66.0043C18.0521 62.8173 20.8584 60.0963 24.1117 57.9978C27.365 55.8994 31.0011 54.465 34.8109 53.7772L42.0052 52.4706L43.1465 46.5509C44.7488 37.6566 49.0653 29.4765 55.5033 23.1339C61.9413 16.7914 70.185 12.5976 79.1022 11.1284C84.4555 10.3337 89.9113 10.569 95.1762 11.8217C104.331 14.0152 112.471 19.2472 118.269 26.6637Z" fill="white"/>
</svg>
