<svg width="17" height="20" viewBox="0 0 17 20" fill="none" xmlns="http://www.w3.org/2000/svg">
<path d="M9.87054 16.25H10.7545C10.8717 16.25 10.9841 16.2006 11.067 16.1127C11.1499 16.0248 11.1964 15.9056 11.1964 15.7812V7.34375C11.1964 7.21943 11.1499 7.1002 11.067 7.01229C10.9841 6.92439 10.8717 6.875 10.7545 6.875H9.87054C9.75332 6.875 9.6409 6.92439 9.55802 7.01229C9.47513 7.1002 9.42857 7.21943 9.42857 7.34375V15.7812C9.42857 15.9056 9.47513 16.0248 9.55802 16.1127C9.6409 16.2006 9.75332 16.25 9.87054 16.25ZM15.9107 3.125H12.8755L11.6233 0.910156C11.4661 0.632428 11.2438 0.402614 10.978 0.243108C10.7122 0.0836025 10.412 -0.000154039 10.1066 2.12674e-07H6.39338C6.08811 -1.90925e-05 5.78804 0.0838016 5.52238 0.243301C5.25672 0.4028 5.03453 0.632542 4.87744 0.910156L3.62448 3.125H0.589286C0.432997 3.125 0.28311 3.19085 0.172598 3.30806C0.0620853 3.42527 0 3.58424 0 3.75L0 4.375C0 4.54076 0.0620853 4.69973 0.172598 4.81694C0.28311 4.93415 0.432997 5 0.589286 5H1.17857V18.125C1.17857 18.6223 1.36483 19.0992 1.69636 19.4508C2.0279 19.8025 2.47756 20 2.94643 20H13.5536C14.0224 20 14.4721 19.8025 14.8036 19.4508C15.1352 19.0992 15.3214 18.6223 15.3214 18.125V5H15.9107C16.067 5 16.2169 4.93415 16.3274 4.81694C16.4379 4.69973 16.5 4.54076 16.5 4.375V3.75C16.5 3.58424 16.4379 3.42527 16.3274 3.30806C16.2169 3.19085 16.067 3.125 15.9107 3.125ZM6.32893 1.98867C6.34862 1.9539 6.37649 1.92515 6.4098 1.90523C6.44311 1.8853 6.48073 1.87489 6.51897 1.875H9.98103C10.0192 1.87495 10.0567 1.8854 10.09 1.90532C10.1232 1.92524 10.151 1.95396 10.1707 1.98867L10.8138 3.125H5.68624L6.32893 1.98867ZM13.5536 18.125H2.94643V5H13.5536V18.125ZM5.74554 16.25H6.62946C6.74668 16.25 6.8591 16.2006 6.94198 16.1127C7.02486 16.0248 7.07143 15.9056 7.07143 15.7812V7.34375C7.07143 7.21943 7.02486 7.1002 6.94198 7.01229C6.8591 6.92439 6.74668 6.875 6.62946 6.875H5.74554C5.62832 6.875 5.5159 6.92439 5.43302 7.01229C5.35014 7.1002 5.30357 7.21943 5.30357 7.34375V15.7812C5.30357 15.9056 5.35014 16.0248 5.43302 16.1127C5.5159 16.2006 5.62832 16.25 5.74554 16.25Z" fill="black"/>
</svg>
