<svg width="150" height="150" viewBox="0 0 150 150" fill="none" xmlns="http://www.w3.org/2000/svg">
<path d="M139.285 0H96.433C93.5926 0.00283617 90.8693 1.13244 88.8609 3.14092C86.8524 5.1494 85.7228 7.87267 85.7199 10.7131V139.27C85.7228 142.111 86.8524 144.834 88.8609 146.842C90.8693 148.851 93.5926 149.98 96.433 149.983H139.285C142.126 149.98 144.849 148.851 146.858 146.842C148.866 144.834 149.996 142.111 149.998 139.27V10.7131C149.996 7.87267 148.866 5.1494 146.858 3.14092C144.849 1.13244 142.126 0.00283617 139.285 0ZM139.285 10.7131V48.2089H96.433V10.7131H139.285ZM139.285 58.922V91.0613H96.433V58.922H139.285ZM96.433 139.27V101.774H139.285V139.27H96.433ZM53.5807 69.6351H42.8676V58.922H32.1545V69.6351H21.4414V80.3482H32.1545V91.0613H42.8676V80.3482H53.5807V69.6351Z" fill="white"/>
<path d="M75.009 21.4262V10.7131H42.8697C40.0293 10.716 37.306 11.8456 35.2975 13.8541C33.2891 15.8625 32.1595 18.5858 32.1566 21.4262V37.9244C23.2323 39.1969 15.0667 43.6465 9.1595 50.4558C3.25226 57.2652 0 65.9771 0 74.9917C0 84.0062 3.25226 92.7182 9.1595 99.5275C15.0667 106.337 23.2323 110.786 32.1566 112.059V128.557C32.1595 131.398 33.2891 134.121 35.2975 136.129C37.306 138.138 40.0293 139.267 42.8697 139.27H75.009V128.557H42.8697V112.059C51.794 110.786 59.9596 106.337 65.8668 99.5275C71.774 92.7182 75.0263 84.0062 75.0263 74.9917C75.0263 65.9771 71.774 57.2652 65.8668 50.4558C59.9596 43.6465 51.794 39.1969 42.8697 37.9244V21.4262H75.009ZM64.2959 74.9917C64.2959 80.2888 62.7251 85.467 59.7822 89.8714C56.8393 94.2758 52.6564 97.7086 47.7625 99.7357C42.8686 101.763 37.4834 102.293 32.2881 101.26C27.0928 100.226 22.3205 97.6756 18.5749 93.9299C14.8293 90.1843 12.2785 85.4121 11.2451 80.2167C10.2116 75.0214 10.742 69.6363 12.7691 64.7424C14.7963 59.8485 18.2291 55.6656 22.6335 52.7227C27.0379 49.7797 32.216 48.209 37.5132 48.209C44.6138 48.2175 51.4211 51.0419 56.442 56.0628C61.4629 61.0837 64.2874 67.8911 64.2959 74.9917Z" fill="white"/>
</svg>
