<svg width="25" height="29" viewBox="0 0 25 29" fill="none" xmlns="http://www.w3.org/2000/svg">
<path d="M24.9406 17.9219C24.7342 20.0276 23.9748 22.0449 22.7366 23.7776C21.4983 25.5102 19.8234 26.8991 17.8748 27.809C15.9262 28.7188 13.7704 29.1187 11.6173 28.9695C9.46418 28.8204 7.38718 28.1274 5.58854 26.958C4.0433 25.9453 2.74609 24.6099 1.79009 23.0475C0.834086 21.4852 0.243025 19.7347 0.059364 17.9219C-0.120801 16.121 0.110353 14.3033 0.736056 12.6008C1.36176 10.8983 2.36632 9.35358 3.67685 8.07882L11.4706 0.426291C11.6073 0.291214 11.77 0.184 11.9492 0.110834C12.1284 0.0376682 12.3206 0 12.5147 0C12.7088 0 12.901 0.0376682 13.0802 0.110834C13.2594 0.184 13.4221 0.291214 13.5588 0.426291L21.3231 8.07882C22.6337 9.35358 23.6382 10.8983 24.2639 12.6008C24.8897 14.3033 25.1208 16.121 24.9406 17.9219ZM19.2644 10.1109L12.5 3.48154L5.73559 10.1109C4.7387 11.0879 3.97508 12.2692 3.49961 13.57C3.02414 14.8707 2.84863 16.2585 2.98571 17.6337C3.12367 19.03 3.57651 20.3789 4.31149 21.5827C5.04647 22.7865 6.04522 23.8152 7.23552 24.5945C8.79567 25.6101 10.627 26.1519 12.5 26.1519C14.373 26.1519 16.2043 25.6101 17.7645 24.5945C18.9512 23.8182 19.9477 22.7941 20.6825 21.5955C21.4173 20.397 21.8721 19.0538 22.0143 17.6625C22.1558 16.2827 21.9825 14.8893 21.5069 13.5832C21.0313 12.2772 20.2653 11.0911 19.2644 10.1109ZM12.5 23.1533C11.1912 23.1533 9.91181 22.773 8.82359 22.0604C7.73537 21.3478 6.88721 20.3349 6.38636 19.1499C5.88551 17.9649 5.75446 16.6609 6.00979 15.4029C6.26512 14.1449 6.89537 12.9894 7.82082 12.0824C8.74628 11.1754 9.92538 10.5578 11.209 10.3075C12.4927 10.0573 13.8232 10.1857 15.0324 10.6766C16.2415 11.1674 17.275 11.9986 18.0021 13.0651C18.7293 14.1316 19.1174 15.3855 19.1174 16.6681C19.1135 18.3869 18.415 20.0342 17.1749 21.2496C15.9347 22.465 14.2538 23.1495 12.5 23.1533ZM12.5 13.0652C11.7729 13.0652 11.0621 13.2765 10.4576 13.6724C9.85299 14.0683 9.38178 14.631 9.10353 15.2893C8.82528 15.9477 8.75248 16.6721 8.89433 17.371C9.03618 18.0699 9.38632 18.7119 9.90046 19.2157C10.4146 19.7196 11.0697 20.0627 11.7828 20.2018C12.4959 20.3408 13.2351 20.2694 13.9069 19.9967C14.5786 19.724 15.1528 19.2623 15.5567 18.6698C15.9607 18.0773 16.1763 17.3807 16.1763 16.6681C16.1763 15.7126 15.789 14.7962 15.0995 14.1205C14.4101 13.4448 13.475 13.0652 12.5 13.0652Z" fill="black"/>
</svg>
