<svg width="29" height="29" viewBox="0 0 29 29" fill="none" xmlns="http://www.w3.org/2000/svg">
<path d="M21.1923 0C22.6714 0 24.0899 0.587567 25.1358 1.63344C26.1817 2.67932 26.7692 4.09783 26.7692 5.57692V9.49638C24.5733 7.67985 21.8115 6.68797 18.9615 6.69231H24.5385V5.57692C24.5385 4.68947 24.1859 3.83836 23.5584 3.21083C22.9309 2.58331 22.0798 2.23077 21.1923 2.23077H5.57692C4.68947 2.23077 3.83836 2.58331 3.21083 3.21083C2.58331 3.83836 2.23077 4.68947 2.23077 5.57692V6.69231H18.9615C16.3359 6.69231 13.9022 7.51769 11.9056 8.92308H2.23077V21.1923C2.23077 22.0798 2.58331 22.9309 3.21083 23.5584C3.83836 24.1859 4.68947 24.5385 5.57692 24.5385H8.03077C8.439 25.3371 8.932 26.0844 9.49638 26.7692H5.57692C4.09783 26.7692 2.67932 26.1817 1.63344 25.1358C0.587567 24.0899 0 22.6714 0 21.1923V5.57692C0 4.09783 0.587567 2.67932 1.63344 1.63344C2.67932 0.587567 4.09783 0 5.57692 0H21.1923ZM18.9615 29C20.2798 29 21.5852 28.7403 22.8031 28.2359C24.021 27.7314 25.1276 26.992 26.0598 26.0598C26.992 25.1276 27.7314 24.021 28.2359 22.8031C28.7403 21.5852 29 20.2798 29 18.9615C29 17.6433 28.7403 16.3379 28.2359 15.12C27.7314 13.9021 26.992 12.7954 26.0598 11.8633C25.1276 10.9311 24.021 10.1917 22.8031 9.68721C21.5852 9.18273 20.2798 8.92308 18.9615 8.92308C16.2992 8.92308 13.7459 9.9807 11.8633 11.8633C9.9807 13.7459 8.92308 16.2992 8.92308 18.9615C8.92308 21.6239 9.9807 24.1772 11.8633 26.0598C13.7459 27.9424 16.2992 29 18.9615 29ZM21.0897 16.4898H24.534C25.6159 16.4898 26.0665 17.9332 25.1921 18.5957L22.4036 20.7082L23.4677 24.1258C23.8023 25.1965 22.6245 26.0888 21.75 25.4263L18.9615 23.3138L16.1731 25.4263C15.2986 26.0888 14.1208 25.1965 14.4554 24.1258L15.5195 20.7082L12.731 18.5957C11.8565 17.9332 12.3072 16.4898 13.3868 16.4898H16.8356L17.8997 13.0745C17.9641 12.8424 18.1028 12.6378 18.2946 12.492C18.4864 12.3462 18.7206 12.2673 18.9615 12.2673C19.2024 12.2673 19.4367 12.3462 19.6285 12.492C19.8202 12.6378 19.9589 12.8424 20.0234 13.0745L21.0875 16.4898H21.0897Z" fill="black"/>
</svg>
