<svg width="62" height="55" viewBox="0 0 62 55" fill="none" xmlns="http://www.w3.org/2000/svg">
<path d="M13.2399 0.000310999H22.0077C22.5911 0.000310999 23.1506 0.232058 23.5631 0.644571C23.9756 1.05708 24.2073 1.61657 24.2073 2.19995C24.2073 2.78333 23.9756 3.34282 23.5631 3.75533C23.1506 4.16784 22.5911 4.39959 22.0077 4.39959H15.1998L13.0046 26.3586L25.4677 41.5757C26.0867 42.3314 26.8658 42.9402 27.7487 43.3583C28.6316 43.7763 29.5962 43.9931 30.5731 43.9931H44.2813C44.8218 41.9244 46.0968 40.1231 47.8681 38.9256C49.6395 37.7281 51.7862 37.2162 53.9074 37.4856C56.0285 37.755 57.9791 38.7872 59.3949 40.3895C60.8107 41.9917 61.595 44.0546 61.6012 46.1927C61.6033 48.3358 60.8232 50.4059 59.4073 52.0146C57.9915 53.6232 56.0371 54.6599 53.9112 54.9299C51.7852 55.1999 49.6338 54.6847 47.8607 53.481C46.0877 52.2773 44.8149 50.4679 44.2813 48.3924H30.5731C28.9451 48.3923 27.3374 48.0307 25.866 47.3339C24.3947 46.637 23.0964 45.6222 22.0649 44.3626L12.3865 32.544L11.8476 37.9331C13.783 38.6497 15.4051 40.0235 16.4305 41.8145C17.4559 43.6055 17.8194 45.6999 17.4576 47.7317C17.0958 49.7635 16.0316 51.6036 14.4509 52.9305C12.8703 54.2575 10.8737 54.9869 8.80987 54.9913C6.59087 54.9941 4.45273 54.1584 2.8238 52.6516C1.19487 51.1447 0.195456 49.078 0.0257767 46.8655C-0.143903 44.653 0.528683 42.4581 1.90879 40.7205C3.2889 38.9829 5.2746 37.8309 7.46809 37.4954L11.0183 2.00418C11.0535 1.58863 11.2068 1.19181 11.4601 0.860528C11.7135 0.529248 12.0563 0.277329 12.4481 0.134489C12.7015 0.0412502 12.97 -0.00424293 13.2399 0.000310999V0.000310999ZM6.99957 42.1828C6.11685 42.5811 5.39024 43.2596 4.93243 44.113C4.47462 44.9664 4.3112 45.947 4.46752 46.9028C4.62383 47.8585 5.09115 48.736 5.79699 49.399C6.50282 50.0621 7.40773 50.4738 8.37136 50.5701C9.335 50.6665 10.3035 50.4422 11.1267 49.932C11.9498 49.4218 12.5816 48.6543 12.9241 47.7484C13.2666 46.8426 13.3006 45.849 13.0208 44.9219C12.7411 43.9947 12.1632 43.1858 11.3769 42.6205L10.9985 46.4105C10.9358 46.9872 10.6478 47.5157 10.1973 47.8811C9.74674 48.2465 9.1701 48.4191 8.59289 48.3614C8.01569 48.3037 7.48465 48.0203 7.11538 47.5729C6.74611 47.1256 6.5685 46.5504 6.62123 45.9728L6.99957 42.1828ZM48.9907 48.3924C49.4749 49.2311 50.2223 49.8865 51.117 50.2571C52.0117 50.6277 53.0037 50.6928 53.9392 50.4421C54.8746 50.1915 55.7012 49.6391 56.2907 48.8708C56.8803 48.1025 57.1998 47.1612 57.1998 46.1927C57.1998 45.2243 56.8803 44.2829 56.2907 43.5146C55.7012 42.7463 54.8746 42.194 53.9392 41.9433C53.0037 41.6927 52.0117 41.7577 51.117 42.1283C50.2223 42.4989 49.4749 43.1544 48.9907 43.9931H52.8027C53.386 43.9931 53.9455 44.2248 54.358 44.6373C54.7705 45.0499 55.0023 45.6093 55.0023 46.1927C55.0023 46.7761 54.7705 47.3356 54.358 47.7481C53.9455 48.1606 53.386 48.3924 52.8027 48.3924H48.9907Z" fill="white"/>
</svg>
