<svg width="73" height="73" viewBox="0 0 73 73" fill="none" xmlns="http://www.w3.org/2000/svg">
<g clippath="url(#clip0_505_2003)">
<path d="M72.5343 16.547C72.379 15.5601 71.9273 14.6438 71.2392 13.9195C70.5512 13.1952 69.6592 12.6972 68.6816 12.4914L56.7785 9.87559C55.5021 9.5972 54.1807 9.59615 52.9038 9.87252C51.6269 10.1489 50.4242 10.6962 49.3771 11.4775L14.1952 37.1086L4.34018 36.7031C3.54796 36.6747 2.76694 36.8967 2.10806 37.3375C1.44918 37.7783 0.945935 38.4155 0.669805 39.1586C0.393674 39.9016 0.358698 40.7128 0.569843 41.4769C0.780989 42.241 1.22752 42.9192 1.84602 43.415L11.9849 51.3842C13.2016 52.8645 14.0127 52.5806 34.1485 41.6103L36.0343 60.712C36.0657 61.2331 36.2444 61.7345 36.5495 62.1581C36.8546 62.5817 37.2737 62.9099 37.758 63.1048C38.1064 63.2425 38.4783 63.3113 38.853 63.3075C39.6071 63.2845 40.3274 62.9891 40.8807 62.4761L45.7271 58.0556C46.2097 57.6085 46.5366 57.0187 46.6599 56.3725L51.1007 32.242C58.3399 28.1864 65.1938 24.3742 70.0807 21.5961C70.9551 21.1043 71.6584 20.3574 72.0969 19.4551C72.5353 18.5529 72.688 17.5383 72.5343 16.547ZM68.0732 18.0678C63.0038 20.9473 55.9066 24.9825 48.2821 29.1598L47.4507 29.6261L42.726 55.3181L39.7452 58.0353L37.5146 35.1214L34.8177 36.5003C20.2785 44.6114 15.4321 46.9636 13.7693 47.6936L5.0499 40.7789L15.351 41.225L51.851 14.7423C52.4247 14.3133 53.0825 14.0103 53.7814 13.8531C54.4802 13.6959 55.2044 13.6879 55.9066 13.8298L67.7691 16.3848C67.9519 16.4179 68.1193 16.5086 68.247 16.6435C68.3746 16.7785 68.4558 16.9507 68.4788 17.135C68.5205 17.3134 68.5036 17.5006 68.4306 17.6686C68.3575 17.8366 68.2322 17.9766 68.0732 18.0678Z" fill="white"/>
<path d="M14.1957 25.4279L21.4146 27.4557L24.7402 25.0426L16.6291 22.6904L20.2791 20.4599L31.371 20.1354L36.0349 16.749L20.2791 17.2357C19.7823 17.2088 19.2887 17.3287 18.8596 17.5804L13.5266 20.6829C13.0857 20.9441 12.7319 21.33 12.51 21.7919C12.288 22.2538 12.2078 22.771 12.2793 23.2785C12.3509 23.7859 12.5711 24.2608 12.9121 24.6433C13.2531 25.0258 13.6998 25.2988 14.1957 25.4279Z" fill="white"/>
</g>
<defs>
<clipPath id="clip0_505_2003">
<rect width="73" height="73" fill="white"/>
</clipPath>
</defs>
</svg>
