<svg width="80" height="60" viewBox="0 0 80 60" fill="none" xmlns="http://www.w3.org/2000/svg">
<path d="M17.59 10.1275L14.3 19.995H30V4.99876H24.71C23.1348 4.99786 21.5994 5.49279 20.3214 6.41336C19.0434 7.33393 18.0878 8.63341 17.59 10.1275ZM12.64 24.9938L12.62 25.0438L11.29 25.3737L10.68 25.5237C9.05686 25.9296 7.61609 26.8665 6.58686 28.1853C5.55764 29.5041 4.99907 31.1291 5 32.8019V41.2398C5 42.0396 5.25 42.7894 5.685 43.3993C6.58294 40.8116 8.30599 38.5904 10.5894 37.077C12.8727 35.5636 15.59 34.8416 18.3236 35.0222C21.0573 35.2028 23.656 36.2758 25.7203 38.0765C27.7846 39.8771 29.2004 42.3056 29.75 44.9889H50.25C50.7961 42.3028 52.2103 39.8708 54.2749 38.0673C56.3394 36.2639 58.9398 35.189 61.6754 35.0083C64.4111 34.8276 67.1303 35.5511 69.4142 37.0673C71.6982 38.5835 73.4202 40.8084 74.315 43.3993C74.7618 42.7679 75.0012 42.0132 75 41.2398V35.1763C75.0006 33.5233 74.4547 31.9164 73.4474 30.6056C72.4401 29.2948 71.0277 28.3535 69.43 27.9281L58.425 24.9938H12.635H12.64ZM54.365 19.995L48.17 8.85781C47.5213 7.68938 46.572 6.71553 45.4203 6.03704C44.2687 5.35855 42.9567 5.00009 41.62 4.99876H35V19.995H54.365ZM80 41.2398C80.0001 42.9169 79.5181 44.5587 78.6112 45.9696C77.7043 47.3805 76.4109 48.5011 74.885 49.1978C74.4846 52.1224 73.0616 54.811 70.8681 56.787C68.6746 58.763 65.8522 59.899 62.9011 59.9936C59.95 60.0882 57.0607 59.1354 54.745 57.3039C52.4294 55.4724 50.837 52.8806 50.25 49.9876H29.75C29.163 52.8806 27.5706 55.4724 25.255 57.3039C22.9393 59.1354 20.05 60.0882 17.0989 59.9936C14.1478 59.899 11.3254 58.763 9.13193 56.787C6.93843 54.811 5.51541 52.1224 5.115 49.1978C3.58908 48.5011 2.29565 47.3805 1.38879 45.9696C0.481923 44.5587 -0.000148394 42.9169 3.42651e-08 41.2398V32.8019C-0.000103631 30.1452 0.84666 27.5576 2.41738 25.4147C3.98811 23.2717 6.20105 21.685 8.735 20.8848L12.85 8.54288C13.6801 6.05477 15.2722 3.89083 17.4007 2.35759C19.5293 0.82435 22.0865 -0.000456409 24.71 2.99394e-07H41.615C43.8448 -0.000487587 46.0341 0.595321 47.9559 1.72565C49.8778 2.85598 51.4622 4.47968 52.545 6.42841L60.255 20.31L70.72 23.0993C73.3817 23.8087 75.7345 25.3773 77.4127 27.5613C79.0909 29.7453 80.0004 32.4223 80 35.1763V41.2398ZM17.5 39.9901C15.5109 39.9901 13.6032 40.7801 12.1967 42.1862C10.7902 43.5924 10 45.4996 10 47.4882C10 49.4769 10.7902 51.3841 12.1967 52.7902C13.6032 54.1964 15.5109 54.9864 17.5 54.9864C19.4891 54.9864 21.3968 54.1964 22.8033 52.7902C24.2098 51.3841 25 49.4769 25 47.4882C25 45.4996 24.2098 43.5924 22.8033 42.1862C21.3968 40.7801 19.4891 39.9901 17.5 39.9901ZM62.5 39.9901C60.5109 39.9901 58.6032 40.7801 57.1967 42.1862C55.7902 43.5924 55 45.4996 55 47.4882C55 49.4769 55.7902 51.3841 57.1967 52.7902C58.6032 54.1964 60.5109 54.9864 62.5 54.9864C64.4891 54.9864 66.3968 54.1964 67.8033 52.7902C69.2098 51.3841 70 49.4769 70 47.4882C70 45.4996 69.2098 43.5924 67.8033 42.1862C66.3968 40.7801 64.4891 39.9901 62.5 39.9901Z" fill="white"/>
</svg>
