<svg width="62" height="55" viewBox="0 0 62 55" fill="none" xmlns="http://www.w3.org/2000/svg">
<g clippath="url(#clip0_505_2007)">
<path d="M61.0935 46.0368H0.175781V50.3881H4.52705V54.7394H8.87831V50.3881H19.7565V54.7394H24.1077V50.3881H34.9859V54.7394H39.3372V50.3881H50.2153V54.7394H54.5666V50.3881H61.0935V46.0368ZM13.2296 26.4561H0.175781V22.1049H13.2296V17.7536H0.175781V13.4023H13.2296C14.3833 13.4035 15.4893 13.8623 16.3051 14.6781C17.1209 15.4938 17.5797 16.5999 17.5808 17.7536V22.1049C17.5797 23.2586 17.1209 24.3646 16.3051 25.1804C15.4893 25.9962 14.3833 26.455 13.2296 26.4561Z" fill="white"/>
<path d="M57.9388 22.6044L39.2719 5.49521C35.6631 2.18012 30.94 0.34275 26.0397 0.347666H0.175781V4.69893H21.9321V13.4015C21.9333 14.5551 22.3921 15.6612 23.2078 16.477C24.0236 17.2928 25.1297 17.7516 26.2834 17.7527H46.2035L54.9974 25.8134C55.7967 26.5455 56.3562 27.502 56.6025 28.5575C56.8488 29.6131 56.7704 30.7184 56.3776 31.7286C55.9848 32.7389 55.2959 33.6068 54.4013 34.2187C53.5066 34.8307 52.448 35.158 51.3641 35.1578H0.175781V39.5091H51.3619C53.3226 39.5091 55.2376 38.9169 56.856 37.8101C58.4744 36.7032 59.7207 35.1333 60.4316 33.306C61.1426 31.4787 61.2849 29.4793 60.8401 27.5697C60.3953 25.6601 59.384 23.9294 57.9388 22.6044ZM26.2834 13.4015V4.70981C30.0089 4.76242 33.5849 6.18338 36.3304 8.7021L41.4584 13.4015H26.2834Z" fill="white"/>
</g>
<defs>
<clipPath id="clip0_505_2007">
<rect width="61.2658" height="55" fill="white"/>
</clipPath>
</defs>
</svg>
