<svg width="69" height="62" viewBox="0 0 69 62" fill="none" xmlns="http://www.w3.org/2000/svg">
<g clippath="url(#clip0_505_2010)">
<path d="M64.0818 21.4689L59.4318 7.51555C58.7572 5.48451 57.4598 3.71771 55.7237 2.46618C53.9877 1.21465 51.9014 0.542048 49.7613 0.543949H18.7681C16.6279 0.542048 14.5416 1.21465 12.8056 2.46618C11.0696 3.71771 9.77211 5.48451 9.09756 7.51555L4.44756 21.4689C3.21236 21.9872 2.15749 22.8584 1.41501 23.9733C0.672536 25.0882 0.27544 26.3974 0.273438 27.7369V44.7325C0.273438 47.2921 1.71127 49.4981 3.80513 50.6572C3.76094 50.8816 3.67256 51.0855 3.67256 51.32V58.329C3.67256 59.2305 4.03068 60.0951 4.66814 60.7326C5.3056 61.37 6.17018 61.7282 7.07168 61.7282H10.4708C11.3723 61.7282 12.2369 61.37 12.8743 60.7326C13.5118 60.0951 13.8699 59.2305 13.8699 58.329V51.5308H54.6594V58.329C54.6594 59.2305 55.0175 60.0951 55.655 60.7326C56.2924 61.37 57.157 61.7282 58.0585 61.7282H61.4576C62.3591 61.7282 63.2237 61.37 63.8612 60.7326C64.4986 60.0951 64.8568 59.2305 64.8568 58.329V51.32C64.8568 51.0855 64.7684 50.8782 64.7242 50.6572C65.7895 50.0764 66.6793 49.2202 67.3005 48.178C67.9218 47.1358 68.2517 45.9459 68.2559 44.7325V27.7369C68.2559 24.9191 66.5291 22.4989 64.0818 21.4689ZM7.07168 44.7325V27.7369H61.4576L61.4644 44.7325H7.07168ZM18.7681 7.34219H49.7579C51.2229 7.34219 52.5214 8.27355 52.9836 9.66719L56.7431 20.9387H11.7863L15.5423 9.66719C15.7678 8.99007 16.2008 8.40111 16.7797 7.9838C17.3587 7.5665 18.0544 7.34202 18.7681 7.34219Z" fill="white"/>
<path d="M15.5674 41.3331C18.3834 41.3331 20.6661 39.0504 20.6661 36.2344C20.6661 33.4185 18.3834 31.1357 15.5674 31.1357C12.7515 31.1357 10.4688 33.4185 10.4688 36.2344C10.4688 39.0504 12.7515 41.3331 15.5674 41.3331Z" fill="white"/>
<path d="M52.9581 41.3331C55.774 41.3331 58.0567 39.0504 58.0567 36.2344C58.0567 33.4185 55.774 31.1357 52.9581 31.1357C50.1421 31.1357 47.8594 33.4185 47.8594 36.2344C47.8594 39.0504 50.1421 41.3331 52.9581 41.3331Z" fill="white"/>
</g>
<defs>
<clipPath id="clip0_505_2010">
<rect width="68.5263" height="62" fill="white"/>
</clipPath>
</defs>
</svg>
