<svg width="50" height="51" viewBox="0 0 50 51" fill="none" xmlns="http://www.w3.org/2000/svg">
<path d="M47.2222 22.7222C46.4855 22.7222 45.779 23.0149 45.258 23.5358C44.7371 24.0567 44.4444 24.7633 44.4444 25.5V42.1667C44.4444 42.9034 44.1518 43.6099 43.6309 44.1309C43.1099 44.6518 42.4034 44.9444 41.6667 44.9444H8.33333C7.59662 44.9444 6.89008 44.6518 6.36915 44.1309C5.84821 43.6099 5.55556 42.9034 5.55556 42.1667V8.83333C5.55556 8.09662 5.84821 7.39008 6.36915 6.86915C6.89008 6.34821 7.59662 6.05556 8.33333 6.05556H25C25.7367 6.05556 26.4432 5.7629 26.9642 5.24196C27.4851 4.72103 27.7778 4.01449 27.7778 3.27778C27.7778 2.54107 27.4851 1.83453 26.9642 1.31359C26.4432 0.792658 25.7367 0.5 25 0.5H8.33333C6.1232 0.5 4.00358 1.37797 2.44078 2.94078C0.877974 4.50358 0 6.6232 0 8.83333V42.1667C0 44.3768 0.877974 46.4964 2.44078 48.0592C4.00358 49.622 6.1232 50.5 8.33333 50.5H41.6667C43.8768 50.5 45.9964 49.622 47.5592 48.0592C49.122 46.4964 50 44.3768 50 42.1667V25.5C50 24.7633 49.7073 24.0567 49.1864 23.5358C48.6655 23.0149 47.9589 22.7222 47.2222 22.7222Z" fill="black"/>
<path d="M36.112 6.05556H40.5009L23.0287 23.5C22.7683 23.7582 22.5617 24.0655 22.4207 24.404C22.2796 24.7424 22.207 25.1055 22.207 25.4722C22.207 25.8389 22.2796 26.202 22.4207 26.5405C22.5617 26.879 22.7683 27.1862 23.0287 27.4444C23.2869 27.7048 23.5941 27.9114 23.9326 28.0525C24.2711 28.1935 24.6342 28.2661 25.0009 28.2661C25.3676 28.2661 25.7307 28.1935 26.0692 28.0525C26.4077 27.9114 26.7149 27.7048 26.9731 27.4444L44.4454 10V14.3889C44.4454 15.1256 44.738 15.8321 45.2589 16.3531C45.7799 16.874 46.4864 17.1667 47.2231 17.1667C47.9598 17.1667 48.6664 16.874 49.1873 16.3531C49.7083 15.8321 50.0009 15.1256 50.0009 14.3889V3.27778C50.0009 2.54107 49.7083 1.83453 49.1873 1.31359C48.6664 0.792658 47.9598 0.5 47.2231 0.5H36.112C35.3753 0.5 34.6688 0.792658 34.1478 1.31359C33.6269 1.83453 33.3342 2.54107 33.3342 3.27778C33.3342 4.01449 33.6269 4.72103 34.1478 5.24196C34.6688 5.7629 35.3753 6.05556 36.112 6.05556Z" fill="black"/>
</svg>
