<svg width="601" height="649" viewBox="0 0 601 649" fill="none" xmlns="http://www.w3.org/2000/svg">
<path d="M247.888 52.8729L352.057 52.8728L404.141 143.085L352.057 233.298L247.888 233.298L195.804 143.085L247.888 52.8729Z" fill="#1C60FF" stroke="#1C60FF"/>
<path d="M262.058 151.27C262.538 151.27 262.998 151.23 263.438 151.15C263.878 151.05 264.288 150.94 264.668 150.82V153.64C264.268 153.82 263.748 153.97 263.108 154.09C262.468 154.23 261.798 154.3 261.098 154.3C260.178 154.3 259.338 154.15 258.578 153.85C257.838 153.53 257.238 152.99 256.778 152.23C256.338 151.47 256.118 150.41 256.118 149.05V140.59H253.928V138.94L256.328 137.62L257.528 134.17H259.898V137.74H264.518V140.59H259.898V149.02C259.898 149.78 260.098 150.35 260.498 150.73C260.898 151.09 261.418 151.27 262.058 151.27ZM274.486 137.44C275.946 137.44 277.196 137.74 278.236 138.34C279.296 138.92 280.116 139.76 280.696 140.86C281.276 141.94 281.566 143.26 281.566 144.82V146.74H270.826C270.866 148.22 271.276 149.37 272.056 150.19C272.836 150.99 273.916 151.39 275.296 151.39C276.356 151.39 277.296 151.29 278.116 151.09C278.956 150.87 279.816 150.56 280.696 150.16V153.19C279.896 153.57 279.066 153.85 278.206 154.03C277.346 154.21 276.316 154.3 275.116 154.3C273.536 154.3 272.126 154 270.886 153.4C269.666 152.78 268.706 151.85 268.006 150.61C267.326 149.37 266.986 147.83 266.986 145.99C266.986 144.13 267.296 142.57 267.916 141.31C268.556 140.03 269.436 139.07 270.556 138.43C271.676 137.77 272.986 137.44 274.486 137.44ZM274.486 140.23C273.486 140.23 272.666 140.56 272.026 141.22C271.406 141.86 271.036 142.82 270.916 144.1H277.906C277.906 143.34 277.776 142.67 277.516 142.09C277.276 141.51 276.906 141.06 276.406 140.74C275.906 140.4 275.266 140.23 274.486 140.23ZM288.301 145.69L282.931 137.74H287.221L290.761 143.26L294.301 137.74H298.591L293.161 145.69L298.861 154H294.571L290.761 148.09L286.951 154H282.661L288.301 145.69ZM307.878 151.27C308.358 151.27 308.818 151.23 309.258 151.15C309.698 151.05 310.108 150.94 310.488 150.82V153.64C310.088 153.82 309.568 153.97 308.928 154.09C308.288 154.23 307.618 154.3 306.918 154.3C305.998 154.3 305.158 154.15 304.398 153.85C303.658 153.53 303.058 152.99 302.598 152.23C302.158 151.47 301.938 150.41 301.938 149.05V140.59H299.748V138.94L302.148 137.62L303.348 134.17H305.718V137.74H310.338V140.59H305.718V149.02C305.718 149.78 305.918 150.35 306.318 150.73C306.718 151.09 307.238 151.27 307.878 151.27ZM327.236 143.26C327.236 145 327.106 146.55 326.846 147.91C326.586 149.27 326.156 150.43 325.556 151.39C324.976 152.33 324.216 153.05 323.276 153.55C322.356 154.05 321.226 154.3 319.886 154.3C318.206 154.3 316.826 153.86 315.746 152.98C314.666 152.1 313.866 150.84 313.346 149.2C312.826 147.54 312.566 145.56 312.566 143.26C312.566 140.96 312.806 138.99 313.286 137.35C313.766 135.71 314.536 134.45 315.596 133.57C316.676 132.69 318.106 132.25 319.886 132.25C321.566 132.25 322.946 132.69 324.026 133.57C325.106 134.43 325.906 135.69 326.426 137.35C326.966 138.99 327.236 140.96 327.236 143.26ZM316.376 143.29C316.376 145.03 316.486 146.49 316.706 147.67C316.926 148.83 317.286 149.71 317.786 150.31C318.306 150.89 319.006 151.18 319.886 151.18C320.766 151.18 321.456 150.89 321.956 150.31C322.476 149.73 322.846 148.85 323.066 147.67C323.306 146.49 323.426 145.03 323.426 143.29C323.426 141.53 323.306 140.07 323.066 138.91C322.846 137.73 322.476 136.85 321.956 136.27C321.456 135.67 320.766 135.37 319.886 135.37C319.006 135.37 318.306 135.67 317.786 136.27C317.286 136.85 316.926 137.72 316.706 138.88C316.486 140.04 316.376 141.51 316.376 143.29ZM340.234 154H336.454V140.65C336.454 140.21 336.454 139.76 336.454 139.3C336.474 138.84 336.494 138.38 336.514 137.92C336.534 137.44 336.554 137 336.574 136.6C336.374 136.8 336.124 137.04 335.824 137.32C335.524 137.58 335.214 137.85 334.894 138.13L332.494 140.05L330.604 137.71L337.084 132.58H340.234V154Z" fill="white"/>
<path d="M404.83 143.382L508.998 143.382L561.082 233.594L508.998 323.806L404.83 323.807L352.745 233.594L404.83 143.382Z" fill="#1C60FF" stroke="#1C60FF"/>
<path d="M420.058 242.27C420.538 242.27 420.998 242.23 421.438 242.15C421.878 242.05 422.288 241.94 422.668 241.82V244.64C422.268 244.82 421.748 244.97 421.108 245.09C420.468 245.23 419.798 245.3 419.098 245.3C418.178 245.3 417.338 245.15 416.578 244.85C415.838 244.53 415.238 243.99 414.778 243.23C414.338 242.47 414.118 241.41 414.118 240.05V231.59H411.928V229.94L414.328 228.62L415.528 225.17H417.898V228.74H422.518V231.59H417.898V240.02C417.898 240.78 418.098 241.35 418.498 241.73C418.898 242.09 419.418 242.27 420.058 242.27ZM432.486 228.44C433.946 228.44 435.196 228.74 436.236 229.34C437.296 229.92 438.116 230.76 438.696 231.86C439.276 232.94 439.566 234.26 439.566 235.82V237.74H428.826C428.866 239.22 429.276 240.37 430.056 241.19C430.836 241.99 431.916 242.39 433.296 242.39C434.356 242.39 435.296 242.29 436.116 242.09C436.956 241.87 437.816 241.56 438.696 241.16V244.19C437.896 244.57 437.066 244.85 436.206 245.03C435.346 245.21 434.316 245.3 433.116 245.3C431.536 245.3 430.126 245 428.886 244.4C427.666 243.78 426.706 242.85 426.006 241.61C425.326 240.37 424.986 238.83 424.986 236.99C424.986 235.13 425.296 233.57 425.916 232.31C426.556 231.03 427.436 230.07 428.556 229.43C429.676 228.77 430.986 228.44 432.486 228.44ZM432.486 231.23C431.486 231.23 430.666 231.56 430.026 232.22C429.406 232.86 429.036 233.82 428.916 235.1H435.906C435.906 234.34 435.776 233.67 435.516 233.09C435.276 232.51 434.906 232.06 434.406 231.74C433.906 231.4 433.266 231.23 432.486 231.23ZM446.301 236.69L440.931 228.74H445.221L448.761 234.26L452.301 228.74H456.591L451.161 236.69L456.861 245H452.571L448.761 239.09L444.951 245H440.661L446.301 236.69ZM465.878 242.27C466.358 242.27 466.818 242.23 467.258 242.15C467.698 242.05 468.108 241.94 468.488 241.82V244.64C468.088 244.82 467.568 244.97 466.928 245.09C466.288 245.23 465.618 245.3 464.918 245.3C463.998 245.3 463.158 245.15 462.398 244.85C461.658 244.53 461.058 243.99 460.598 243.23C460.158 242.47 459.938 241.41 459.938 240.05V231.59H457.748V229.94L460.148 228.62L461.348 225.17H463.718V228.74H468.338V231.59H463.718V240.02C463.718 240.78 463.918 241.35 464.318 241.73C464.718 242.09 465.238 242.27 465.878 242.27ZM485.236 234.26C485.236 236 485.106 237.55 484.846 238.91C484.586 240.27 484.156 241.43 483.556 242.39C482.976 243.33 482.216 244.05 481.276 244.55C480.356 245.05 479.226 245.3 477.886 245.3C476.206 245.3 474.826 244.86 473.746 243.98C472.666 243.1 471.866 241.84 471.346 240.2C470.826 238.54 470.566 236.56 470.566 234.26C470.566 231.96 470.806 229.99 471.286 228.35C471.766 226.71 472.536 225.45 473.596 224.57C474.676 223.69 476.106 223.25 477.886 223.25C479.566 223.25 480.946 223.69 482.026 224.57C483.106 225.43 483.906 226.69 484.426 228.35C484.966 229.99 485.236 231.96 485.236 234.26ZM474.376 234.29C474.376 236.03 474.486 237.49 474.706 238.67C474.926 239.83 475.286 240.71 475.786 241.31C476.306 241.89 477.006 242.18 477.886 242.18C478.766 242.18 479.456 241.89 479.956 241.31C480.476 240.73 480.846 239.85 481.066 238.67C481.306 237.49 481.426 236.03 481.426 234.29C481.426 232.53 481.306 231.07 481.066 229.91C480.846 228.73 480.476 227.85 479.956 227.27C479.456 226.67 478.766 226.37 477.886 226.37C477.006 226.37 476.306 226.67 475.786 227.27C475.286 227.85 474.926 228.72 474.706 229.88C474.486 231.04 474.376 232.51 474.376 234.29ZM502.464 245H487.794V242.21L493.254 236.69C494.334 235.59 495.214 234.65 495.894 233.87C496.594 233.07 497.104 232.33 497.424 231.65C497.764 230.97 497.934 230.23 497.934 229.43C497.934 228.45 497.654 227.72 497.094 227.24C496.534 226.74 495.794 226.49 494.874 226.49C493.974 226.49 493.134 226.68 492.354 227.06C491.574 227.42 490.764 227.94 489.924 228.62L487.854 226.13C488.454 225.61 489.094 225.14 489.774 224.72C490.454 224.28 491.224 223.93 492.084 223.67C492.944 223.41 493.944 223.28 495.084 223.28C496.464 223.28 497.644 223.53 498.624 224.03C499.624 224.51 500.394 225.18 500.934 226.04C501.474 226.9 501.744 227.9 501.744 229.04C501.744 229.92 501.614 230.74 501.354 231.5C501.094 232.24 500.714 232.97 500.214 233.69C499.714 234.41 499.104 235.14 498.384 235.88C497.664 236.62 496.854 237.42 495.954 238.28L492.564 241.55V241.73H502.464V245Z" fill="white"/>
<path d="M405.255 323.873L509.424 323.873L561.508 414.085L509.424 504.298L405.255 504.298L353.171 414.085L405.255 323.873Z" fill="#1C60FF" stroke="#1C60FF"/>
<path d="M419.058 423.27C419.538 423.27 419.998 423.23 420.438 423.15C420.878 423.05 421.288 422.94 421.668 422.82V425.64C421.268 425.82 420.748 425.97 420.108 426.09C419.468 426.23 418.798 426.3 418.098 426.3C417.178 426.3 416.338 426.15 415.578 425.85C414.838 425.53 414.238 424.99 413.778 424.23C413.338 423.47 413.118 422.41 413.118 421.05V412.59H410.928V410.94L413.328 409.62L414.528 406.17H416.898V409.74H421.518V412.59H416.898V421.02C416.898 421.78 417.098 422.35 417.498 422.73C417.898 423.09 418.418 423.27 419.058 423.27ZM431.486 409.44C432.946 409.44 434.196 409.74 435.236 410.34C436.296 410.92 437.116 411.76 437.696 412.86C438.276 413.94 438.566 415.26 438.566 416.82V418.74H427.826C427.866 420.22 428.276 421.37 429.056 422.19C429.836 422.99 430.916 423.39 432.296 423.39C433.356 423.39 434.296 423.29 435.116 423.09C435.956 422.87 436.816 422.56 437.696 422.16V425.19C436.896 425.57 436.066 425.85 435.206 426.03C434.346 426.21 433.316 426.3 432.116 426.3C430.536 426.3 429.126 426 427.886 425.4C426.666 424.78 425.706 423.85 425.006 422.61C424.326 421.37 423.986 419.83 423.986 417.99C423.986 416.13 424.296 414.57 424.916 413.31C425.556 412.03 426.436 411.07 427.556 410.43C428.676 409.77 429.986 409.44 431.486 409.44ZM431.486 412.23C430.486 412.23 429.666 412.56 429.026 413.22C428.406 413.86 428.036 414.82 427.916 416.1H434.906C434.906 415.34 434.776 414.67 434.516 414.09C434.276 413.51 433.906 413.06 433.406 412.74C432.906 412.4 432.266 412.23 431.486 412.23ZM445.301 417.69L439.931 409.74H444.221L447.761 415.26L451.301 409.74H455.591L450.161 417.69L455.861 426H451.571L447.761 420.09L443.951 426H439.661L445.301 417.69ZM464.878 423.27C465.358 423.27 465.818 423.23 466.258 423.15C466.698 423.05 467.108 422.94 467.488 422.82V425.64C467.088 425.82 466.568 425.97 465.928 426.09C465.288 426.23 464.618 426.3 463.918 426.3C462.998 426.3 462.158 426.15 461.398 425.85C460.658 425.53 460.058 424.99 459.598 424.23C459.158 423.47 458.938 422.41 458.938 421.05V412.59H456.748V410.94L459.148 409.62L460.348 406.17H462.718V409.74H467.338V412.59H462.718V421.02C462.718 421.78 462.918 422.35 463.318 422.73C463.718 423.09 464.238 423.27 464.878 423.27ZM484.236 415.26C484.236 417 484.106 418.55 483.846 419.91C483.586 421.27 483.156 422.43 482.556 423.39C481.976 424.33 481.216 425.05 480.276 425.55C479.356 426.05 478.226 426.3 476.886 426.3C475.206 426.3 473.826 425.86 472.746 424.98C471.666 424.1 470.866 422.84 470.346 421.2C469.826 419.54 469.566 417.56 469.566 415.26C469.566 412.96 469.806 410.99 470.286 409.35C470.766 407.71 471.536 406.45 472.596 405.57C473.676 404.69 475.106 404.25 476.886 404.25C478.566 404.25 479.946 404.69 481.026 405.57C482.106 406.43 482.906 407.69 483.426 409.35C483.966 410.99 484.236 412.96 484.236 415.26ZM473.376 415.29C473.376 417.03 473.486 418.49 473.706 419.67C473.926 420.83 474.286 421.71 474.786 422.31C475.306 422.89 476.006 423.18 476.886 423.18C477.766 423.18 478.456 422.89 478.956 422.31C479.476 421.73 479.846 420.85 480.066 419.67C480.306 418.49 480.426 417.03 480.426 415.29C480.426 413.53 480.306 412.07 480.066 410.91C479.846 409.73 479.476 408.85 478.956 408.27C478.456 407.67 477.766 407.37 476.886 407.37C476.006 407.37 475.306 407.67 474.786 408.27C474.286 408.85 473.926 409.72 473.706 410.88C473.486 412.04 473.376 413.51 473.376 415.29ZM500.624 409.47C500.624 410.43 500.424 411.27 500.024 411.99C499.644 412.71 499.114 413.3 498.434 413.76C497.754 414.2 496.964 414.52 496.064 414.72V414.81C497.784 415.01 499.084 415.54 499.964 416.4C500.844 417.26 501.284 418.4 501.284 419.82C501.284 421.06 500.984 422.17 500.384 423.15C499.784 424.13 498.854 424.9 497.594 425.46C496.354 426.02 494.754 426.3 492.794 426.3C491.634 426.3 490.554 426.2 489.554 426C488.554 425.82 487.614 425.53 486.734 425.13V421.8C487.634 422.26 488.594 422.61 489.614 422.85C490.634 423.09 491.594 423.21 492.494 423.21C494.234 423.21 495.464 422.9 496.184 422.28C496.904 421.64 497.264 420.76 497.264 419.64C497.264 418.92 497.084 418.33 496.724 417.87C496.364 417.41 495.774 417.07 494.954 416.85C494.154 416.61 493.104 416.49 491.804 416.49H490.004V413.46H491.834C493.094 413.46 494.084 413.32 494.804 413.04C495.544 412.76 496.064 412.37 496.364 411.87C496.684 411.37 496.844 410.79 496.844 410.13C496.844 409.27 496.564 408.6 496.004 408.12C495.444 407.64 494.604 407.4 493.484 407.4C492.764 407.4 492.114 407.48 491.534 407.64C490.954 407.8 490.424 408.01 489.944 408.27C489.464 408.51 489.014 408.77 488.594 409.05L486.794 406.44C487.334 406.04 487.944 405.68 488.624 405.36C489.304 405.02 490.064 404.76 490.904 404.58C491.744 404.38 492.664 404.28 493.664 404.28C495.884 404.28 497.594 404.75 498.794 405.69C500.014 406.61 500.624 407.87 500.624 409.47Z" fill="white"/>
<path d="M247.916 414.824L352.084 414.824L404.168 505.036L352.084 595.249L247.916 595.249L195.831 505.036L247.916 414.824Z" fill="#1C60FF" stroke="#1C60FF"/>
<path d="M262.058 513.27C262.538 513.27 262.998 513.23 263.438 513.15C263.878 513.05 264.288 512.94 264.668 512.82V515.64C264.268 515.82 263.748 515.97 263.108 516.09C262.468 516.23 261.798 516.3 261.098 516.3C260.178 516.3 259.338 516.15 258.578 515.85C257.838 515.53 257.238 514.99 256.778 514.23C256.338 513.47 256.118 512.41 256.118 511.05V502.59H253.928V500.94L256.328 499.62L257.528 496.17H259.898V499.74H264.518V502.59H259.898V511.02C259.898 511.78 260.098 512.35 260.498 512.73C260.898 513.09 261.418 513.27 262.058 513.27ZM274.486 499.44C275.946 499.44 277.196 499.74 278.236 500.34C279.296 500.92 280.116 501.76 280.696 502.86C281.276 503.94 281.566 505.26 281.566 506.82V508.74H270.826C270.866 510.22 271.276 511.37 272.056 512.19C272.836 512.99 273.916 513.39 275.296 513.39C276.356 513.39 277.296 513.29 278.116 513.09C278.956 512.87 279.816 512.56 280.696 512.16V515.19C279.896 515.57 279.066 515.85 278.206 516.03C277.346 516.21 276.316 516.3 275.116 516.3C273.536 516.3 272.126 516 270.886 515.4C269.666 514.78 268.706 513.85 268.006 512.61C267.326 511.37 266.986 509.83 266.986 507.99C266.986 506.13 267.296 504.57 267.916 503.31C268.556 502.03 269.436 501.07 270.556 500.43C271.676 499.77 272.986 499.44 274.486 499.44ZM274.486 502.23C273.486 502.23 272.666 502.56 272.026 503.22C271.406 503.86 271.036 504.82 270.916 506.1H277.906C277.906 505.34 277.776 504.67 277.516 504.09C277.276 503.51 276.906 503.06 276.406 502.74C275.906 502.4 275.266 502.23 274.486 502.23ZM288.301 507.69L282.931 499.74H287.221L290.761 505.26L294.301 499.74H298.591L293.161 507.69L298.861 516H294.571L290.761 510.09L286.951 516H282.661L288.301 507.69ZM307.878 513.27C308.358 513.27 308.818 513.23 309.258 513.15C309.698 513.05 310.108 512.94 310.488 512.82V515.64C310.088 515.82 309.568 515.97 308.928 516.09C308.288 516.23 307.618 516.3 306.918 516.3C305.998 516.3 305.158 516.15 304.398 515.85C303.658 515.53 303.058 514.99 302.598 514.23C302.158 513.47 301.938 512.41 301.938 511.05V502.59H299.748V500.94L302.148 499.62L303.348 496.17H305.718V499.74H310.338V502.59H305.718V511.02C305.718 511.78 305.918 512.35 306.318 512.73C306.718 513.09 307.238 513.27 307.878 513.27ZM327.236 505.26C327.236 507 327.106 508.55 326.846 509.91C326.586 511.27 326.156 512.43 325.556 513.39C324.976 514.33 324.216 515.05 323.276 515.55C322.356 516.05 321.226 516.3 319.886 516.3C318.206 516.3 316.826 515.86 315.746 514.98C314.666 514.1 313.866 512.84 313.346 511.2C312.826 509.54 312.566 507.56 312.566 505.26C312.566 502.96 312.806 500.99 313.286 499.35C313.766 497.71 314.536 496.45 315.596 495.57C316.676 494.69 318.106 494.25 319.886 494.25C321.566 494.25 322.946 494.69 324.026 495.57C325.106 496.43 325.906 497.69 326.426 499.35C326.966 500.99 327.236 502.96 327.236 505.26ZM316.376 505.29C316.376 507.03 316.486 508.49 316.706 509.67C316.926 510.83 317.286 511.71 317.786 512.31C318.306 512.89 319.006 513.18 319.886 513.18C320.766 513.18 321.456 512.89 321.956 512.31C322.476 511.73 322.846 510.85 323.066 509.67C323.306 508.49 323.426 507.03 323.426 505.29C323.426 503.53 323.306 502.07 323.066 500.91C322.846 499.73 322.476 498.85 321.956 498.27C321.456 497.67 320.766 497.37 319.886 497.37C319.006 497.37 318.306 497.67 317.786 498.27C317.286 498.85 316.926 499.72 316.706 500.88C316.486 502.04 316.376 503.51 316.376 505.29ZM345.124 511.41H342.334V516H338.614V511.41H329.074V508.59L338.704 494.52H342.334V508.32H345.124V511.41ZM338.614 503.52C338.614 503.1 338.614 502.67 338.614 502.23C338.634 501.77 338.654 501.32 338.674 500.88C338.694 500.44 338.714 500.04 338.734 499.68C338.754 499.32 338.774 499.04 338.794 498.84H338.674C338.494 499.22 338.294 499.62 338.074 500.04C337.874 500.44 337.644 500.82 337.384 501.18L332.524 508.32H338.614V503.52Z" fill="white"/>
<path d="M91.0015 324.873L195.17 324.873L247.254 415.085L195.17 505.298L91.0015 505.298L38.9173 415.085L91.0015 324.873Z" fill="#1C60FF" stroke="#1C60FF"/>
<path d="M106.058 424.27C106.538 424.27 106.998 424.23 107.438 424.15C107.878 424.05 108.288 423.94 108.668 423.82V426.64C108.268 426.82 107.748 426.97 107.108 427.09C106.468 427.23 105.798 427.3 105.098 427.3C104.178 427.3 103.338 427.15 102.578 426.85C101.838 426.53 101.238 425.99 100.778 425.23C100.338 424.47 100.118 423.41 100.118 422.05V413.59H97.9281V411.94L100.328 410.62L101.528 407.17H103.898V410.74H108.518V413.59H103.898V422.02C103.898 422.78 104.098 423.35 104.498 423.73C104.898 424.09 105.418 424.27 106.058 424.27ZM118.486 410.44C119.946 410.44 121.196 410.74 122.236 411.34C123.296 411.92 124.116 412.76 124.696 413.86C125.276 414.94 125.566 416.26 125.566 417.82V419.74H114.826C114.866 421.22 115.276 422.37 116.056 423.19C116.836 423.99 117.916 424.39 119.296 424.39C120.356 424.39 121.296 424.29 122.116 424.09C122.956 423.87 123.816 423.56 124.696 423.16V426.19C123.896 426.57 123.066 426.85 122.206 427.03C121.346 427.21 120.316 427.3 119.116 427.3C117.536 427.3 116.126 427 114.886 426.4C113.666 425.78 112.706 424.85 112.006 423.61C111.326 422.37 110.986 420.83 110.986 418.99C110.986 417.13 111.296 415.57 111.916 414.31C112.556 413.03 113.436 412.07 114.556 411.43C115.676 410.77 116.986 410.44 118.486 410.44ZM118.486 413.23C117.486 413.23 116.666 413.56 116.026 414.22C115.406 414.86 115.036 415.82 114.916 417.1H121.906C121.906 416.34 121.776 415.67 121.516 415.09C121.276 414.51 120.906 414.06 120.406 413.74C119.906 413.4 119.266 413.23 118.486 413.23ZM132.301 418.69L126.931 410.74H131.221L134.761 416.26L138.301 410.74H142.591L137.161 418.69L142.861 427H138.571L134.761 421.09L130.951 427H126.661L132.301 418.69ZM151.878 424.27C152.358 424.27 152.818 424.23 153.258 424.15C153.698 424.05 154.108 423.94 154.488 423.82V426.64C154.088 426.82 153.568 426.97 152.928 427.09C152.288 427.23 151.618 427.3 150.918 427.3C149.998 427.3 149.158 427.15 148.398 426.85C147.658 426.53 147.058 425.99 146.598 425.23C146.158 424.47 145.938 423.41 145.938 422.05V413.59H143.748V411.94L146.148 410.62L147.348 407.17H149.718V410.74H154.338V413.59H149.718V422.02C149.718 422.78 149.918 423.35 150.318 423.73C150.718 424.09 151.238 424.27 151.878 424.27ZM171.236 416.26C171.236 418 171.106 419.55 170.846 420.91C170.586 422.27 170.156 423.43 169.556 424.39C168.976 425.33 168.216 426.05 167.276 426.55C166.356 427.05 165.226 427.3 163.886 427.3C162.206 427.3 160.826 426.86 159.746 425.98C158.666 425.1 157.866 423.84 157.346 422.2C156.826 420.54 156.566 418.56 156.566 416.26C156.566 413.96 156.806 411.99 157.286 410.35C157.766 408.71 158.536 407.45 159.596 406.57C160.676 405.69 162.106 405.25 163.886 405.25C165.566 405.25 166.946 405.69 168.026 406.57C169.106 407.43 169.906 408.69 170.426 410.35C170.966 411.99 171.236 413.96 171.236 416.26ZM160.376 416.29C160.376 418.03 160.486 419.49 160.706 420.67C160.926 421.83 161.286 422.71 161.786 423.31C162.306 423.89 163.006 424.18 163.886 424.18C164.766 424.18 165.456 423.89 165.956 423.31C166.476 422.73 166.846 421.85 167.066 420.67C167.306 419.49 167.426 418.03 167.426 416.29C167.426 414.53 167.306 413.07 167.066 411.91C166.846 410.73 166.476 409.85 165.956 409.27C165.456 408.67 164.766 408.37 163.886 408.37C163.006 408.37 162.306 408.67 161.786 409.27C161.286 409.85 160.926 410.72 160.706 411.88C160.486 413.04 160.376 414.51 160.376 416.29ZM181.234 413.53C182.594 413.53 183.794 413.78 184.834 414.28C185.874 414.78 186.684 415.51 187.264 416.47C187.864 417.41 188.164 418.57 188.164 419.95C188.164 421.47 187.844 422.78 187.204 423.88C186.564 424.98 185.624 425.83 184.384 426.43C183.144 427.01 181.624 427.3 179.824 427.3C178.704 427.3 177.654 427.2 176.674 427C175.694 426.8 174.844 426.51 174.124 426.13V422.77C174.864 423.17 175.754 423.5 176.794 423.76C177.834 424.02 178.814 424.15 179.734 424.15C180.694 424.15 181.514 424.02 182.194 423.76C182.874 423.48 183.394 423.06 183.754 422.5C184.114 421.92 184.294 421.19 184.294 420.31C184.294 419.11 183.914 418.2 183.154 417.58C182.394 416.96 181.214 416.65 179.614 416.65C179.054 416.65 178.444 416.7 177.784 416.8C177.144 416.9 176.614 417 176.194 417.1L174.574 416.2L175.384 405.58H186.664V408.88H178.714L178.264 413.83C178.604 413.77 179.004 413.71 179.464 413.65C179.944 413.57 180.534 413.53 181.234 413.53Z" fill="white"/>
<path d="M91.0015 143.873L195.17 143.873L247.254 234.085L195.17 324.298L91.0015 324.298L38.9173 234.085L91.0015 143.873Z" fill="#1C60FF" stroke="#1C60FF"/>
<path d="M106.058 242.27C106.538 242.27 106.998 242.23 107.438 242.15C107.878 242.05 108.288 241.94 108.668 241.82V244.64C108.268 244.82 107.748 244.97 107.108 245.09C106.468 245.23 105.798 245.3 105.098 245.3C104.178 245.3 103.338 245.15 102.578 244.85C101.838 244.53 101.238 243.99 100.778 243.23C100.338 242.47 100.118 241.41 100.118 240.05V231.59H97.9281V229.94L100.328 228.62L101.528 225.17H103.898V228.74H108.518V231.59H103.898V240.02C103.898 240.78 104.098 241.35 104.498 241.73C104.898 242.09 105.418 242.27 106.058 242.27ZM118.486 228.44C119.946 228.44 121.196 228.74 122.236 229.34C123.296 229.92 124.116 230.76 124.696 231.86C125.276 232.94 125.566 234.26 125.566 235.82V237.74H114.826C114.866 239.22 115.276 240.37 116.056 241.19C116.836 241.99 117.916 242.39 119.296 242.39C120.356 242.39 121.296 242.29 122.116 242.09C122.956 241.87 123.816 241.56 124.696 241.16V244.19C123.896 244.57 123.066 244.85 122.206 245.03C121.346 245.21 120.316 245.3 119.116 245.3C117.536 245.3 116.126 245 114.886 244.4C113.666 243.78 112.706 242.85 112.006 241.61C111.326 240.37 110.986 238.83 110.986 236.99C110.986 235.13 111.296 233.57 111.916 232.31C112.556 231.03 113.436 230.07 114.556 229.43C115.676 228.77 116.986 228.44 118.486 228.44ZM118.486 231.23C117.486 231.23 116.666 231.56 116.026 232.22C115.406 232.86 115.036 233.82 114.916 235.1H121.906C121.906 234.34 121.776 233.67 121.516 233.09C121.276 232.51 120.906 232.06 120.406 231.74C119.906 231.4 119.266 231.23 118.486 231.23ZM132.301 236.69L126.931 228.74H131.221L134.761 234.26L138.301 228.74H142.591L137.161 236.69L142.861 245H138.571L134.761 239.09L130.951 245H126.661L132.301 236.69ZM151.878 242.27C152.358 242.27 152.818 242.23 153.258 242.15C153.698 242.05 154.108 241.94 154.488 241.82V244.64C154.088 244.82 153.568 244.97 152.928 245.09C152.288 245.23 151.618 245.3 150.918 245.3C149.998 245.3 149.158 245.15 148.398 244.85C147.658 244.53 147.058 243.99 146.598 243.23C146.158 242.47 145.938 241.41 145.938 240.05V231.59H143.748V229.94L146.148 228.62L147.348 225.17H149.718V228.74H154.338V231.59H149.718V240.02C149.718 240.78 149.918 241.35 150.318 241.73C150.718 242.09 151.238 242.27 151.878 242.27ZM171.236 234.26C171.236 236 171.106 237.55 170.846 238.91C170.586 240.27 170.156 241.43 169.556 242.39C168.976 243.33 168.216 244.05 167.276 244.55C166.356 245.05 165.226 245.3 163.886 245.3C162.206 245.3 160.826 244.86 159.746 243.98C158.666 243.1 157.866 241.84 157.346 240.2C156.826 238.54 156.566 236.56 156.566 234.26C156.566 231.96 156.806 229.99 157.286 228.35C157.766 226.71 158.536 225.45 159.596 224.57C160.676 223.69 162.106 223.25 163.886 223.25C165.566 223.25 166.946 223.69 168.026 224.57C169.106 225.43 169.906 226.69 170.426 228.35C170.966 229.99 171.236 231.96 171.236 234.26ZM160.376 234.29C160.376 236.03 160.486 237.49 160.706 238.67C160.926 239.83 161.286 240.71 161.786 241.31C162.306 241.89 163.006 242.18 163.886 242.18C164.766 242.18 165.456 241.89 165.956 241.31C166.476 240.73 166.846 239.85 167.066 238.67C167.306 237.49 167.426 236.03 167.426 234.29C167.426 232.53 167.306 231.07 167.066 229.91C166.846 228.73 166.476 227.85 165.956 227.27C165.456 226.67 164.766 226.37 163.886 226.37C163.006 226.37 162.306 226.67 161.786 227.27C161.286 227.85 160.926 228.72 160.706 229.88C160.486 231.04 160.376 232.51 160.376 234.29ZM173.794 235.88C173.794 234.64 173.874 233.42 174.034 232.22C174.214 231.02 174.524 229.89 174.964 228.83C175.404 227.75 176.014 226.8 176.794 225.98C177.594 225.14 178.594 224.49 179.794 224.03C180.994 223.55 182.454 223.31 184.174 223.31C184.594 223.31 185.074 223.33 185.614 223.37C186.154 223.41 186.604 223.47 186.964 223.55V226.67C186.584 226.55 186.164 226.47 185.704 226.43C185.264 226.37 184.824 226.34 184.384 226.34C183.024 226.34 181.894 226.53 180.994 226.91C180.114 227.27 179.414 227.79 178.894 228.47C178.394 229.15 178.024 229.94 177.784 230.84C177.564 231.72 177.424 232.7 177.364 233.78H177.544C177.844 233.3 178.204 232.87 178.624 232.49C179.064 232.11 179.594 231.81 180.214 231.59C180.834 231.37 181.554 231.26 182.374 231.26C183.614 231.26 184.694 231.53 185.614 232.07C186.534 232.59 187.244 233.35 187.744 234.35C188.264 235.33 188.524 236.53 188.524 237.95C188.524 239.47 188.234 240.78 187.654 241.88C187.074 242.98 186.254 243.83 185.194 244.43C184.134 245.01 182.874 245.3 181.414 245.3C180.334 245.3 179.334 245.11 178.414 244.73C177.494 244.35 176.684 243.78 175.984 243.02C175.284 242.24 174.744 241.26 174.364 240.08C173.984 238.88 173.794 237.48 173.794 235.88ZM181.324 242.21C182.364 242.21 183.204 241.87 183.844 241.19C184.484 240.49 184.804 239.42 184.804 237.98C184.804 236.82 184.524 235.91 183.964 235.25C183.404 234.57 182.564 234.23 181.444 234.23C180.664 234.23 179.984 234.4 179.404 234.74C178.844 235.06 178.404 235.48 178.084 236C177.764 236.5 177.604 237.02 177.604 237.56C177.604 238.12 177.674 238.67 177.814 239.21C177.974 239.75 178.214 240.25 178.534 240.71C178.854 241.17 179.244 241.54 179.704 241.82C180.184 242.08 180.724 242.21 181.324 242.21Z" fill="white"/>
<path d="M248.002 233.873L352.17 233.873L404.254 324.085L352.17 414.298L248.002 414.298L195.917 324.085L248.002 233.873Z" fill="white" stroke="#5990E2"/>
<path d="M286.146 319.44C287.606 319.44 288.856 319.74 289.896 320.34C290.956 320.92 291.776 321.76 292.356 322.86C292.936 323.94 293.226 325.26 293.226 326.82V328.74H282.486C282.526 330.22 282.936 331.37 283.716 332.19C284.496 332.99 285.576 333.39 286.956 333.39C288.016 333.39 288.956 333.29 289.776 333.09C290.616 332.87 291.476 332.56 292.356 332.16V335.19C291.556 335.57 290.726 335.85 289.866 336.03C289.006 336.21 287.976 336.3 286.776 336.3C285.196 336.3 283.786 336 282.546 335.4C281.326 334.78 280.366 333.85 279.666 332.61C278.986 331.37 278.646 329.83 278.646 327.99C278.646 326.13 278.956 324.57 279.576 323.31C280.216 322.03 281.096 321.07 282.216 320.43C283.336 319.77 284.646 319.44 286.146 319.44ZM286.146 322.23C285.146 322.23 284.326 322.56 283.686 323.22C283.066 323.86 282.696 324.82 282.576 326.1H289.566C289.566 325.34 289.436 324.67 289.176 324.09C288.936 323.51 288.566 323.06 288.066 322.74C287.566 322.4 286.926 322.23 286.146 322.23ZM303.337 333.27C303.817 333.27 304.277 333.23 304.717 333.15C305.157 333.05 305.567 332.94 305.947 332.82V335.64C305.547 335.82 305.027 335.97 304.387 336.09C303.747 336.23 303.077 336.3 302.377 336.3C301.457 336.3 300.617 336.15 299.857 335.85C299.117 335.53 298.517 334.99 298.057 334.23C297.617 333.47 297.397 332.41 297.397 331.05V322.59H295.207V320.94L297.607 319.62L298.807 316.17H301.177V319.74H305.797V322.59H301.177V331.02C301.177 331.78 301.377 332.35 301.777 332.73C302.177 333.09 302.697 333.27 303.337 333.27ZM315.795 336.3C314.255 336.3 312.915 336.01 311.775 335.43C310.655 334.83 309.785 333.92 309.165 332.7C308.565 331.46 308.265 329.88 308.265 327.96C308.265 325.96 308.595 324.34 309.255 323.1C309.935 321.84 310.865 320.92 312.045 320.34C313.225 319.74 314.575 319.44 316.095 319.44C317.115 319.44 318.025 319.54 318.825 319.74C319.625 319.94 320.305 320.18 320.865 320.46L319.755 323.43C319.135 323.19 318.515 322.99 317.895 322.83C317.275 322.65 316.675 322.56 316.095 322.56C315.195 322.56 314.445 322.76 313.845 323.16C313.265 323.56 312.835 324.16 312.555 324.96C312.275 325.74 312.135 326.73 312.135 327.93C312.135 329.09 312.275 330.06 312.555 330.84C312.855 331.62 313.295 332.21 313.875 332.61C314.455 332.99 315.175 333.18 316.035 333.18C316.955 333.18 317.765 333.07 318.465 332.85C319.165 332.63 319.825 332.33 320.445 331.95V335.22C319.825 335.6 319.155 335.87 318.435 336.03C317.735 336.21 316.855 336.3 315.795 336.3Z" fill="#1C60FF"/>
</svg>
