<?xml version="1.0" standalone="no"?>
<!DOCTYPE svg PUBLIC "-//W3C//DTD SVG 20010904//EN"
 "http://www.w3.org/TR/2001/REC-SVG-20010904/DTD/svg10.dtd">
<svg version="1.0" xmlns="http://www.w3.org/2000/svg"
 width="351.000000pt" height="351.000000pt" viewBox="0 0 351.000000 351.000000"
 preserveAspectRatio="xMidYMid meet">
<metadata>
Created by potrace 1.14, written by Peter Selinger 2001-2017
</metadata>
<g transform="translate(0.000000,351.000000) scale(0.100000,-0.100000)"
fill="#000000" stroke="none">
<path d="M2618 3135 c-2 -2 -24 -6 -48 -9 -316 -40 -625 -211 -830 -461 -140
-171 -226 -345 -274 -555 -22 -95 -38 -251 -29 -277 4 -9 166 -12 659 -12 606
0 654 2 654 17 6 301 91 580 252 820 114 172 271 329 433 436 l70 46 -441 0
c-243 -1 -444 -3 -446 -5z"/>
<path d="M1257 1704 c-1 -1 -37 -4 -80 -8 -81 -7 -272 -52 -342 -81 -214 -89
-382 -212 -526 -384 -183 -218 -285 -469 -305 -749 l-6 -92 416 0 c521 -1 636
-1 784 0 l119 0 -2 652 c-1 359 -3 655 -3 659 -2 4 -49 8 -55 3z"/>
<path d="M1441 1695 c-4 -5 -7 -300 -7 -655 l1 -645 75 1 c245 2 522 104 735
272 300 236 493 607 504 968 l2 69 -651 0 c-425 0 -654 -3 -659 -10z"/>
</g>
</svg>
