<svg width="756" height="153" viewBox="0 0 756 153" fill="none" xmlns="http://www.w3.org/2000/svg">
<g clipPath="url(#clip0_391_411)">
<path d="M0 152.709H72.997V79.6152C32.6831 79.6152 0 112.341 0 152.709Z" fill="white"/>
<path d="M79.5703 152.709C119.884 152.709 152.567 119.982 152.567 79.6152H79.5703V152.709V152.709Z" fill="white"/>
<path d="M152.567 0H152.09V0.0116567C111.997 0.268104 79.5703 32.8835 79.5703 73.0933H152.567C152.567 22.1827 194.43 0 194.43 0H152.567V0Z" fill="white"/>
<path d="M235.462 108.098H244.938L228.658 152.551H217.843L201.562 108.098H211.103L223.314 143.447L235.462 108.098V108.098Z" fill="white"/>
<path d="M250.277 108.098H259.183V152.551H250.277V108.098V108.098Z" fill="white"/>
<path d="M293.719 115.296H276.863V126.44H291.81V133.51H276.863V145.295H293.719V152.557H267.957V108.04H293.719V115.302V115.296Z" fill="white"/>
<path d="M298.803 108.098H308.343L316.166 142.62L325.199 108.098H335.124L343.645 142.427L351.532 108.098H361.136L348.732 152.551H338.238L329.903 120.897L321.189 152.551L310.758 152.615L298.797 108.098H298.803Z" fill="white"/>
<path d="M382.242 153C373.022 153 365.898 148.157 365.77 139.752H375.31C375.566 143.319 377.917 145.674 382.05 145.674C386.183 145.674 388.726 143.447 388.726 140.259C388.726 130.642 365.828 136.436 365.892 120.326C365.892 112.301 372.376 107.463 381.538 107.463C390.699 107.463 396.864 112.114 397.44 120.134H387.644C387.451 117.202 385.1 114.912 381.282 114.848C377.783 114.719 375.176 116.439 375.176 120.07C375.176 128.987 397.946 124.016 397.946 139.688C397.946 146.694 392.347 153 382.236 153H382.242Z" fill="white"/>
<path d="M441.384 153C428.852 153 418.613 143.576 418.613 130.2C418.613 116.823 428.852 107.463 441.384 107.463C453.916 107.463 464.09 116.888 464.09 130.2C464.09 143.511 453.974 153 441.384 153ZM441.384 145.039C449.399 145.039 454.934 139.245 454.934 130.2C454.934 121.154 449.399 115.489 441.384 115.489C433.369 115.489 427.775 121.16 427.775 130.2C427.775 139.239 433.31 145.039 441.384 145.039Z" fill="white"/>
<path d="M508.673 108.034V152.551H499.768L479.605 122.046V152.551H470.699V108.034H479.605L499.768 138.604V108.034H508.673Z" fill="white"/>
<path d="M530.227 108.098H562.793V115.296H550.96V152.551H542.06V115.296H530.227V108.098Z" fill="white"/>
<path d="M597.201 133.632H578.179V152.551H569.273V108.098H578.179V126.376H597.201V108.098H606.107V152.551H597.201V133.632Z" fill="white"/>
<path d="M640.633 115.296H623.777V126.44H638.724V133.51H623.777V145.295H640.633V152.557H614.871V108.04H640.633V115.302V115.296Z" fill="white"/>
<path d="M704.999 121.469H694.76C692.723 117.709 689.033 115.734 684.33 115.734C676.379 115.734 670.843 121.404 670.843 130.258C670.843 139.111 676.443 144.91 684.708 144.91C691.577 144.91 695.965 140.959 697.304 134.652H682.037V127.839H706.082V135.608C704.301 144.648 696.222 152.93 684.394 152.93C671.484 152.93 661.688 143.57 661.688 130.258C661.688 116.946 671.484 107.521 684.33 107.521C694.254 107.521 702.141 112.551 704.999 121.469Z" fill="white"/>
<path d="M733.294 153C720.762 153 710.523 143.576 710.523 130.2C710.523 116.823 720.762 107.463 733.294 107.463C745.826 107.463 756 116.888 756 130.2C756 143.511 745.884 153 733.294 153ZM733.294 145.039C741.309 145.039 746.844 139.245 746.844 130.2C746.844 121.154 741.309 115.489 733.294 115.489C725.279 115.489 719.685 121.16 719.685 130.2C719.685 139.239 725.221 145.039 733.294 145.039Z" fill="white"/>
</g>
<defs>
<clipPath id="clip0_391_411">
<rect width="756" height="153" fill="white"/>
</clipPath>
</defs>
</svg>
