<?xml version="1.0" encoding="UTF-8"?>
<svg width="1200pt" height="1200pt" version="1.1" viewBox="0 0 1200 1200" xmlns="http://www.w3.org/2000/svg">
 <path d="m1058.2 584.77c0.875-7.5-3.6602-13.32-7.7539-13.883 0.097656 0.15625 2.4375-7.332 2.3281-7.4766l0.39453-1.6914-0.097656-0.058594c0.21484-2.9414-0.83984-6.3125-2.5781-9.457-2.5781-4.0664-6.5898-6.4688-9.7422-7.1055l-6.5625 6.5742s0.20313 2.2812 0.12109 5.375c0.085938 2.3398-0.49219 5.2578-1.3438 8.0508-0.25391 0.78125-0.38281 1.5859-0.69531 2.3281-2.6289 7.0078-7.9453 10.691-7.9453 10.691-3.7305 0.12109-6.8398-0.71875-7.3438-1.9453 0-0.78125 0.058594-1.5 1.0664-2.7227-0.10938 0.070313 1.8359-2.125 2.6055-4.4414 0.98438-2.3516 1.5703-5.3281 1.5703-5.3516l0.070312-0.070312 0.046875-11.062 0.097656-17.449c2.8086-2.5312 7.1406-2.4844 9.8164 0.20312 1.332 1.3438 2.0625 3.1328 2.0625 5.0508l-0.046875 11.27 6.4219-6.4453c-1.3789 0.12109-2.7461 0.52734-4.0078 1.2461l0.046875-6.0977-0.023437-1.2617h-0.070313c-0.25391-2.0625-1.2109-3.9844-2.6992-5.4727-3.1211-3.1094-7.8477-3.5508-11.508-1.4297l0.023438-6.0977v-1.2617h-0.097657c-0.25391-2.0625-1.1992-3.9727-2.6758-5.4727-3.1211-3.1094-7.8477-3.5508-11.508-1.4297l0.023437-6.0977v-1.2617l-0.082031 0.019531c-0.25391-2.0625-1.1992-3.9844-2.6992-5.4727-2.0039-2.0039-4.7148-2.8789-7.3438-2.6875l-3.8281 3.8398 3.7422-3.7578c-1.3789 0.12109-2.7617 0.52734-4.0078 1.2461l0.023437-6.0977v-1.2617h-0.085937c-0.25391-2.0625-1.2109-3.9727-2.7109-5.4727-3.0977-3.1094-7.8242-3.5508-11.484-1.4297l0.023438-6.0977v-1.2617h-0.097656c-0.25391-2.0625-1.1992-3.9844-2.6992-5.4727-3.1211-3.0977-7.8359-3.5508-11.496-1.4297l0.023438-6.0977v-1.2617l-0.082031 0.019531c-0.25391-2.0625-1.1875-3.9727-2.6875-5.4727-2.0156-2.0039-4.7148-2.8906-7.3555-2.6875l-3.2773 3.2891 3.2148-3.2148c-1.3789 0.13281-2.7461 0.52734-4.0078 1.2461l0.023438-6.0977v-1.2617l-0.070313 0.003907c-0.26562-2.0625-1.2109-3.9844-2.7109-5.4727-3.0977-3.0977-7.8359-3.5391-11.496-1.4297l0.023438-6.0977v-1.2617l-0.09375 0.003906c-0.25391-2.0625-1.1992-3.9727-2.6992-5.4727-3.0977-3.1094-7.8242-3.5508-11.508-1.4297l0.046875-6.0977v-1.2227h-0.097656c-0.25391-2.0625-1.1875-3.9727-2.6875-5.4727-2.0156-2.0039-4.7266-2.8906-7.3438-2.6992l-0.085937 0.085937-6.4766 6.5195-0.058594 12.66-0.085937 17.426c-2.8203 2.543-7.1641 2.4961-9.8281-0.19141-1.3555-1.3438-2.0898-3.1445-2.0742-5.0508l0.058594-12.84 0.070312-0.070313 0.070313-11.062 0.070312-17.438c2.832-2.5312 7.1523-2.4844 9.8164 0.20312 1.3438 1.3438 2.0898 3.1328 2.0898 5.0391l-0.070312 11.27 6.4453-6.4453c-1.3789 0.12109-2.7617 0.52734-4.0078 1.2461l0.023437-6.0977v-1.2617h-0.097656c-0.25391-2.0625-1.1992-3.9727-2.6992-5.4727-3.0977-3.1094-7.8242-3.5508-11.508-1.4297l0.046875-6.0977-0.023438-1.2734h-0.070312c-0.25391-2.0625-1.1992-3.9727-2.6992-5.4727-3.1094-3.1094-7.8477-3.5508-11.508-1.4297l0.035157-6.0977-0.011719-1.2617h-0.085938c-0.25391-2.0625-1.2109-3.9844-2.6875-5.4727-2.0156-2.0039-4.7266-2.8789-7.3555-2.6875l-0.085938 0.085937c-1.3906 0.12109-2.7461 0.51562-4.0078 1.2461l0.035156-6.0977v-1.2461h-0.097656c-0.25391-2.0625-1.1758-3.9727-2.6758-5.4727-3.1211-3.1094-7.8477-3.5508-11.508-1.4297l0.023438-6.0977v-1.2617h-0.097657c-0.25391-2.0625-1.1992-3.9844-2.6875-5.4727-3.1094-3.1094-7.8477-3.5508-11.508-1.4297l0.035156-6.0977-0.011719-1.2617h-0.085937c-0.25391-2.0625-1.2109-3.9727-2.6992-5.4727-2.0156-2.0039-4.7148-2.8906-7.3555-2.6875l-6.5625 6.5742-0.070312 12.66-0.097657 17.426c-2.8086 2.543-7.1523 2.4961-9.8164-0.19141-1.3555-1.3438-2.0898-3.1445-2.0898-5.0508l0.070313-12.852-2.3867 2.3984-0.023437 1.4414c-0.875 0.80469-1.9453 1.3203-3.0234 1.6094l-0.12109 0.10938c-2.3164 0.53906-4.8242-0.046875-6.6367-1.8359-1.332-1.3438-2.0898-3.1445-2.0742-5.0508l0.12109-24.047 0.10938-17.438c2.8086-2.5312 7.1523-2.4961 9.8164 0.20313 1.332 1.3438 2.0742 3.1328 2.0742 5.0391l-0.12109 24.059-0.085938 15.852 2.3867-2.3984 0.070313-11.062 0.097656-17.438c2.8086-2.5312 7.1406-2.4844 9.8164 0.20312 1.332 1.3438 2.0625 3.1328 2.0625 5.0508l-0.046875 11.27 6.4219-6.4453c-1.3789 0.12109-2.7461 0.52734-4.0078 1.2461l0.046875-6.0977 0.03125-1.2461h-0.085938c-0.25391-2.0625-1.1992-3.9844-2.6875-5.4727-3.1211-3.0977-7.8477-3.5391-11.508-1.4297l0.035156-6.0977-0.011719-1.2617h-0.097656c-0.25391-2.0625-1.1992-3.9727-2.6758-5.4727-3.1211-3.1094-7.8477-3.5508-11.508-1.4297l0.023438-6.0977v-1.2617h-0.097656c-0.25391-2.0625-1.1992-3.9727-2.6992-5.4727-2.0039-2.0156-4.7148-2.8906-7.3438-2.6992l-0.085938 0.085937c-1.3789 0.12109-2.7617 0.52734-4.0078 1.2461l0.035156-6.0977-0.011719-1.2617h-0.085937c-0.25391-2.0625-1.2109-3.9727-2.6875-5.4727-3.1211-3.1094-7.8477-3.5508-11.508-1.4297l0.023438-6.0977v-1.2461h-0.097656c-0.25391-2.0625-1.1992-3.9727-2.6992-5.4727-3.0977-3.1094-7.8359-3.5508-11.496-1.4297l0.023437-6.0977 0.011719-1.2188h-0.10938c-0.25391-2.0625-1.1758-3.9727-2.6758-5.4727-2.0156-2.0039-4.7148-2.8906-7.3555-2.6875l-0.070312 0.085938c-1.3789 0.12109-2.7617 0.51562-4.0078 1.2461l0.023438-6.0977v-1.2617h-0.097657c-0.25391-2.0625-1.1992-3.9727-2.6992-5.4727-3.0977-3.0977-7.8242-3.5391-11.496-1.4297l0.023438-6.0977v-1.25h-0.085938c-0.25391-2.0625-1.1992-3.9844-2.6992-5.4727-3.1211-3.1094-7.8359-3.5508-11.508-1.4297l0.023437-6.0977v-1.2617h-0.097656c-0.25391-2.0625-1.1875-3.9727-2.6875-5.4727-2.0039-2.0039-4.7031-2.8906-7.3438-2.6875l-6.4922 6.5742-0.070312 12.672-0.085938 17.41c-2.8203 2.543-7.1641 2.4961-9.8281-0.19141-1.3555-1.3438-2.1016-3.1445-2.0898-5.0508l0.070312-12.852-2.3867 2.3984-0.023438 1.4414c-0.88672 0.80469-1.9453 1.3203-3.0234 1.5977l-0.12109 0.10938c-2.3164 0.53906-4.8242-0.035157-6.6367-1.8359-1.3438-1.3438-2.0898-3.1445-2.0742-5.0508l0.13281-24.035 0.097656-17.438c2.8203-2.5195 7.1523-2.4844 9.8164 0.20313 1.332 1.3438 2.0898 3.1445 2.0742 5.0508l-0.12109 24.047-0.085937 15.852 2.3867-2.3984 0.070313-11.062 0.097656-17.438c2.8086-2.5312 7.1406-2.4844 9.8164 0.20312 1.332 1.3438 2.0898 3.1328 2.0625 5.0391l-0.046876 11.27 6.4453-6.4453c-1.4023 0.12109-2.7617 0.52734-4.0078 1.2461l0.023438-6.0977v-1.2617h-0.097656c-0.25391-2.0625-1.1992-3.9844-2.6992-5.4727-3.1211-3.0977-7.8359-3.5508-11.508-1.4297l0.035157-6.0977-0.011719-1.2617h-0.097656c-0.25391-2.0625-1.1875-3.9727-2.6875-5.4727-3.1094-3.1094-7.8359-3.5508-11.508-1.4297l0.035157-6.0977v-1.2617h-0.097657c-0.25391-2.0625-1.1992-3.9727-2.6992-5.4727-2.0156-2.0039-4.7148-2.8789-7.3438-2.6875l-0.085937 0.085938c-1.3906 0.12109-2.7461 0.51562-4.0078 1.2461l0.035157-6.0977-0.011719-1.2617h-0.097656c-0.12109-1.0312-0.40625-2.0273-0.86328-2.9531-0.23828-0.46875-0.48047-0.89844-0.79297-1.332-0.58984-0.63672-1.2227-1.2461-1.8945-1.8242-5.6289-5.1836-12.852-5.1719-15.887-2.1133 0.25391-0.17969-4.332-6.4922-4.5703-6.3828l-1.1523-1.2617-0.10938 0.023437c-2.2188-2.1016-5.4258-3.3945-9.0117-3.625-7.5117-0.875-13.32 3.6602-13.883 7.7539 0.15625-0.085937-7.3203-2.4375-7.4766-2.3398l-1.6914-0.39453-0.058593 0.085937c-2.9414-0.21484-6.3125 0.82812-9.457 2.5664-4.0664 2.5781-6.4805 6.6016-7.1172 9.7422l6.5742 6.5742s2.2812-0.20313 5.375-0.13281c2.3398-0.070313 5.2578 0.50391 8.0508 1.3555 0.78125 0.23828 1.5977 0.39453 2.3398 0.68359 6.9961 2.6172 10.691 7.957 10.691 7.957 0.12109 3.7188-0.71875 6.8516-1.9453 7.3438-0.78125 0-1.5117-0.058594-2.7344-1.0664 0.070313 0.10938-2.125-1.8359-4.4414-2.6055-2.3516-0.97266-5.3516-1.5586-5.3516-1.5586l-0.058594-0.058594-11.062-0.046875-17.438-0.085937c-2.5312-2.8203-2.4844-7.1406 0.20312-9.8281 1.3438-1.3438 3.1328-2.0742 5.0508-2.0625l11.27 0.046875-6.4453-6.4453c0.13281 1.3906 0.52734 2.7617 1.2461 4.0078l-6.0977-0.023438h-1.2617v0.085938c-2.0625 0.25391-3.9844 1.1875-5.4727 2.6875-3.0977 3.1094-3.5391 7.8477-1.4297 11.508l-6.0977-0.023437h-1.2617v0.085937c-2.0625 0.26562-3.9727 1.1992-5.4727 2.6875-3.1094 3.1094-3.5508 7.8477-1.4297 11.496l-6.0977-0.023438-1.1445 0.027344v0.085938c-2.0625 0.25391-3.9844 1.1875-5.4727 2.6875-2.0039 2.0039-2.8789 4.7031-2.6875 7.3555l0.085937 0.085938c0.12109 1.3906 0.51562 2.7617 1.2461 4.0078l-6.0977-0.023437h-1.2617v0.085937c-2.0625 0.26563-3.9727 1.1992-5.4727 2.6875-3.1094 3.0977-3.5508 7.8477-1.4297 11.496l-6.0977-0.023437-1.2539-0.003907v0.085938c-2.0625 0.25391-3.9844 1.1875-5.4727 2.6875-3.1094 3.1094-3.5508 7.8477-1.4297 11.508l-6.0977-0.023437h-1.2617v0.085937c-2.0625 0.26563-3.9727 1.1875-5.4727 2.6875-2.0039 2.0039-2.8906 4.7031-2.6875 7.3438l6.5742 6.5742 12.66 0.058594 17.426 0.085937c2.543 2.8203 2.4961 7.1523-0.19141 9.8398-1.3438 1.3438-3.1445 2.0742-5.0508 2.0625l-12.852-0.058594-0.058594-0.058593-11.062-0.058594-17.438-0.085937c-2.5312-2.8203-2.4844-7.1406 0.20312-9.8164 1.3438-1.3438 3.1328-2.0742 5.0508-2.0742l11.27 0.058594-6.4453-6.4453c0.13281 1.3906 0.52734 2.7617 1.2461 4.0078l-6.0977-0.023437-1.25-0.003907v0.085938c-2.0625 0.25391-3.9844 1.1875-5.4727 2.6875-3.0977 3.1094-3.5508 7.8477-1.4297 11.508l-6.0977-0.023437h-1.2617v0.085937c-2.0625 0.26563-3.9727 1.1875-5.4727 2.6875-3.1094 3.0977-3.5508 7.8477-1.4297 11.496l-6.0977-0.023437h-1.2617v0.085937c-2.0625 0.26562-3.9844 1.1992-5.4727 2.6875-2.0039 2.0039-2.8789 4.7031-2.6875 7.3555l0.085937 0.085937c0.13281 1.3789 0.51562 2.7461 1.2461 3.9961l-6.0977-0.023437h-1.2617v0.085937c-2.0625 0.26562-3.9727 1.1875-5.4727 2.6875-3.1094 3.0977-3.5508 7.8359-1.4297 11.496l-6.0977-0.023438h-1.2617v0.085938c-2.0625 0.26562-3.9844 1.1992-5.4727 2.6875-3.1094 3.1094-3.5508 7.8477-1.4297 11.508l-6.0977-0.023437h-1.2617v0.085937c-2.0625 0.25391-3.9727 1.1875-5.4727 2.6875-2.0039 2.0039-2.8906 4.7031-2.6875 7.3555l6.5742 6.5742 12.66 0.058594 17.426 0.085937c2.543 2.8203 2.4961 7.1523-0.19141 9.8398-1.3438 1.3438-3.1445 2.0742-5.0508 2.0625l-12.852-0.058594-0.058593-0.058593-11.062-0.058594-17.438-0.085938c-2.5312-2.8203-2.4844-7.1406 0.20312-9.8164 1.3438-1.3438 3.1328-2.0742 5.0508-2.0742l11.27 0.046875-6.4453-6.4336c0.12109 1.3906 0.52734 2.7617 1.2461 4.0078l-6.0977-0.023437h-1.2617v0.085937c-2.0625 0.26562-3.9844 1.1992-5.4727 2.6875-3.0977 3.1094-3.5508 7.8477-1.4297 11.508l-6.0977-0.023438h-1.2617v0.085938c-2.0625 0.26562-3.9727 1.1875-5.4727 2.6875-3.1094 3.1094-3.5508 7.8477-1.4297 11.508l-6.0977-0.023438h-1.2617v0.085938c-2.0625 0.26562-3.9844 1.1992-5.4727 2.6875-2.0039 2.0039-2.8789 4.7031-2.6875 7.3555l0.085937 0.085937c0.12109 1.3906 0.51562 2.7617 1.2461 4.0078l-6.0977-0.023438h-1.2617v0.085938c-2.0625 0.25391-3.9727 1.1875-5.4727 2.6875-3.1094 3.1094-3.5508 7.8477-1.4297 11.508l-6.0977-0.023437h-1.2617v0.085937c-2.0625 0.25391-3.9844 1.1992-5.4727 2.6875-3.1094 3.1094-3.5508 7.8477-1.4297 11.496l-6.0977-0.023437-1.207-0.019532v0.085938c-2.0625 0.25391-3.9727 1.1875-5.4727 2.6875-2.0039 2.0039-2.8906 4.7031-2.6875 7.3555l6.5742 6.5742 12.66 0.058594 17.426 0.085937c2.543 2.8203 2.4961 7.1523-0.19141 9.8398-1.3438 1.3438-3.1445 2.0742-5.0508 2.0625l-12.852-0.058594-0.058594-0.058593-11.062-0.058594-17.438-0.085937c-2.5312-2.8203-2.4844-7.1406 0.20312-9.8164 1.3438-1.3438 3.1328-2.0898 5.0508-2.0742l11.27 0.046876-6.4453-6.4336c0.12109 1.3906 0.52734 2.7617 1.2461 4.0078l-6.0977-0.023437h-1.2617v0.085937c-2.0625 0.26562-3.9844 1.1992-5.4727 2.6875-3.1094 3.0977-3.5508 7.8477-1.4297 11.496l-6.0977-0.023438-1.2617 0.011719v0.085938c-2.0625 0.25391-3.9727 1.1875-5.4727 2.6875-3.1094 3.1094-3.5508 7.8477-1.4297 11.508l-6.0977-0.023437h-1.2617v0.085937c-2.0625 0.26562-3.9844 1.1875-5.4727 2.6875-2.0039 2.0039-2.8789 4.7031-2.6875 7.3438l0.085938 0.085938c0.12109 1.3906 0.51562 2.7617 1.2461 4.0078l-6.0977-0.023437-1.2617 0.011718v0.085938c-2.0625 0.25391-3.9727 1.1875-5.4727 2.6875-3.1094 3.1094-3.5508 7.8477-1.4297 11.508l-6.0977-0.023437h-1.2617v0.085937c-2.0625 0.26563-3.9844 1.1875-5.4727 2.6875-3.1094 3.0977-3.5508 7.8477-1.4297 11.496l-6.0977-0.023437h-1.2617v0.085937c-2.0625 0.25391-3.9727 1.1875-5.4727 2.6875-2.0039 2.0039-2.8906 4.7031-2.6875 7.3555l0.070312 0.070313c0.12109 1.3906 0.52734 2.7617 1.2461 4.0078l-6.0977-0.023438h-1.2617v0.085938c-2.0625 0.26562-3.9844 1.1992-5.4727 2.6875-3.1094 3.0977-3.5508 7.8359-1.4297 11.496l-6.0977-0.023438h-1.2617v0.085938c-2.0625 0.26562-3.9727 1.1992-5.4727 2.6875-3.1094 3.1094-3.5508 7.8477-1.4297 11.508l-6.0977-0.023437h-1.2617v0.085937c-2.0625 0.25391-3.9844 1.1875-5.4727 2.6875-2.0039 2.0039-2.8789 4.7031-2.6875 7.3555l0.085938 0.085937c0.12109 1.3906 0.51562 2.7617 1.2461 4.0078l-6.0977-0.023437h-1.2617v0.085937c-1.0312 0.13281-2.0273 0.43359-2.9531 0.88672-0.46875 0.22656-0.89844 0.49219-1.332 0.79297-0.63672 0.58984-1.2461 1.2227-1.8242 1.9062-5.1836 5.6172-5.1602 12.863-2.1133 15.898-0.17969-0.25391-6.4922 4.332-6.3828 4.5586l-1.2617 1.1523 0.023438 0.097656c-2.1016 2.2188-3.3945 5.4492-3.625 9.0234-0.875 7.5 3.6602 13.32 7.7539 13.883-0.085938-0.15625-2.4375 7.3203-2.3398 7.4766l-0.38281 1.6914 0.085937 0.058594c-0.21484 2.9414 0.82812 6.3008 2.5664 9.4453 2.5781 4.0664 6.5898 6.4805 9.7422 7.1172l0.085937-0.085937c1.3906-0.12109 2.7617-0.52734 4.0078-1.2461l-0.035157 6.1094 0.011719 1.2461h0.085938c0.25391 2.0625 1.1875 3.9844 2.6875 5.4609 3.1094 3.1211 7.8477 3.5625 11.508 1.4297l-0.023437 6.0977v1.2617h0.085937c0.26562 2.0625 1.1992 3.9609 2.6875 5.4609 3.0977 3.1094 7.8477 3.5508 11.508 1.4297l-0.035156 6.0977v1.2617h0.085937c0.25391 2.0625 1.1875 3.9609 2.6875 5.4609 2.0039 2.0156 4.7031 2.8789 7.3555 2.6992l0.085937-0.097656c1.3906-0.12109 2.7617-0.51562 4.0078-1.2461l0.023437 6.0781v1.2617h0.085938c0.26562 2.0625 1.1992 3.9609 2.6875 5.4609 3.0977 3.1094 7.8477 3.5391 11.508 1.4297l-0.035156 6.0977 0.011719 1.2461h0.085937c0.25391 2.0742 1.1875 3.9727 2.6875 5.4727 3.1094 3.1211 7.8477 3.5625 11.508 1.4141l-0.023438 6.0977v1.2461h0.085938c0.26562 2.0898 1.1992 3.9844 2.6875 5.4844 2.0039 1.9922 4.7031 2.8789 7.3438 2.6875l4.3789-4.3672-4.2969 4.2969c1.3906-0.13281 2.7617-0.52734 4.0078-1.2461l-0.023438 6.0977v1.2617h0.085938c0.25391 2.0625 1.1875 3.9727 2.6875 5.4727 3.1094 3.0977 7.8477 3.5391 11.508 1.4141l-0.023438 6.0977v1.2617h0.085938c0.26562 2.0625 1.1992 3.9609 2.6875 5.4609 3.1094 3.1211 7.8477 3.5625 11.508 1.4297l-0.035156 6.0977 0.011719 1.2617 0.085937-0.011719c0.25391 2.0742 1.1875 3.9727 2.6875 5.4727 2.0039 2.0039 4.7031 2.8789 7.3555 2.6992l3.8398-3.8398-3.7578 3.7578c1.3906-0.13281 2.7617-0.52734 4.0078-1.2461l-0.023437 6.1094v1.2461h0.085937c0.26562 2.0625 1.1992 3.9844 2.6875 5.4844 3.1094 3.0977 7.8477 3.5391 11.508 1.4023l-0.035157 6.0977 0.011719 1.2734 0.085938-0.011719c0.25391 2.0742 1.1875 3.9727 2.6875 5.4727 3.1094 3.1094 7.8477 3.5508 11.508 1.4141l-0.023438 6.1094v1.2461l0.074219-0.019531c0.26562 2.0625 1.1992 3.9844 2.6875 5.4609 2.0039 2.0156 4.7031 2.8789 7.3555 2.6992l0.085938-0.070312c1.3906-0.14453 2.7617-0.53906 4.0078-1.2461l-0.023438 6.1094v1.2461h0.085938c0.25391 2.0742 1.1875 3.9727 2.6875 5.4727 3.1094 3.1094 7.8477 3.5508 11.508 1.4297l-0.023437 6.0977v1.2617l0.085937-0.023437c0.26563 2.0898 1.1992 3.9844 2.6875 5.4844 3.1094 3.0977 7.8477 3.5391 11.508 1.4141l-0.035156 6.1094 0.011719 1.2461h0.085937c0.25391 2.0625 1.1875 3.9727 2.6875 5.4492 2.0039 2.0156 4.7031 2.9023 7.3555 2.7109l0.085937-0.085938c1.3906-0.12109 2.7617-0.52734 4.0078-1.2461l-0.023438 6.0977v1.2461l0.085938-0.011718c0.26562 2.0898 1.1992 3.9844 2.6875 5.4727 3.1094 3.1094 7.8477 3.5508 11.508 1.4297l-0.023437 6.0977v1.2461h0.085937c0.26562 2.0742 1.1875 3.9844 2.6875 5.4609 3.1094 3.1211 7.8477 3.5625 11.508 1.4297l-0.023438 6.0977v1.2617h0.085938c0.26562 2.0625 1.1992 3.9727 2.6875 5.4609 2.0039 2.0156 4.7031 2.8906 7.3555 2.6992l0.085937-0.070313c1.3906-0.13281 2.7617-0.53906 4.0078-1.2461l-0.023438 6.0977v1.2461h0.085938c0.25391 2.0625 1.1875 3.9844 2.6875 5.4609 3.0977 3.1211 7.8359 3.5625 11.496 1.4297l-0.023437 6.0977v1.2617h0.085937c0.26562 2.0625 1.1992 3.9727 2.6875 5.4609 3.1094 3.1211 7.8477 3.5508 11.508 1.4297l-0.023438 6.0977v1.2617h0.085938c0.25391 2.0625 1.1875 3.9609 2.6875 5.4609 2.0039 2.0156 4.7031 2.8789 7.3555 2.6992l0.085938-0.097657c1.3906-0.12109 2.7617-0.51562 4.0078-1.2461l-0.023437 6.0977v1.2617h0.085937c0.26563 2.0625 1.1992 3.9727 2.6875 5.4609 3.1094 3.1094 7.8477 3.5508 11.508 1.4297l-0.023437 6.0977v1.2617h0.085937c0.26562 2.0625 1.1875 3.9609 2.6875 5.4609 3.1094 3.0977 7.8477 3.5625 11.508 1.4297l-0.023438 6.0977v1.2461h0.085938c0.26562 2.0625 1.1992 3.9727 2.6875 5.4727 2.0039 2.0039 4.7031 2.8789 7.3555 2.6992l6.5742-6.5898 0.058594-12.66 0.085937-17.426c2.8203-2.5312 7.1523-2.4961 9.8398 0.20312 1.3438 1.3438 2.0742 3.1445 2.0625 5.0625l-0.058594 12.828 2.3984-2.3984v-1.4297c0.89844-0.79297 1.9453-1.3086 3.0352-1.5977l0.12109-0.13281c2.3164-0.53906 4.8242 0.046874 6.625 1.8359 1.3438 1.332 2.0742 3.1445 2.0625 5.0625l-0.13281 24.035-0.085937 17.426c-2.8203 2.543-7.1406 2.4844-9.8281-0.19141-1.3438-1.3555-2.0742-3.1562-2.0742-5.0625l0.12109-24.059 0.085937-15.828-2.3984 2.3867-0.058594 11.062-0.125 17.664c-2.8203 2.5312-7.1406 2.4844-9.8281-0.20312-1.3438-1.3438-2.0742-3.1562-2.0625-5.0508l0.058594-11.27-6.4453 6.4453c1.3906-0.13281 2.7617-0.51562 4.0078-1.2461l-0.023438 6.0977v1.2617h0.085938c0.26562 2.0625 1.1875 3.9609 2.6875 5.4609 3.0977 3.0977 7.8359 3.5391 11.496 1.4297l-0.023437 6.0977v1.2461h0.085937c0.26563 2.0742 1.1992 3.9727 2.6875 5.4727 3.1094 3.1094 7.8477 3.5508 11.508 1.4141l-0.023437 6.0977v1.2734l0.085937-0.023437c0.25391 2.0898 1.1875 3.9844 2.6875 5.4844 2.0039 1.9922 4.7031 2.8672 7.3555 2.6992l0.085937-0.097657 6.5039-6.4922 0.058593-12.66 0.085938-17.41c2.8203-2.5547 7.1523-2.5078 9.8398 0.19141 1.3438 1.332 2.0742 3.1445 2.0625 5.0508l-0.070312 12.852-0.058594 0.058594s-0.023437 5.1719-0.046875 11.062c0 1.0664-0.011719 2.1016-0.011719 3.2031-0.14453 3.4688 0.79297 7.332 1.5703 10.43 0.86328 3.0234 1.9453 4.8477 1.9453 4.8359-2.0273 3.3359-7.9336 3.5742-12.613-0.69531-2.7734-2.293-2.6406-3.5156-2.8789-5.6055l0.058594-11.258-6.4453 6.4219c1.3906-0.12109 2.7617-0.51563 4.0078-1.2461l-0.023438 6.0977v1.2617h0.085938c0.13281 1.0312 0.43359 2.0273 0.88672 2.9531 0.22656 0.44531 0.49219 0.88672 0.79297 1.3086 0.58984 0.63672 1.2227 1.2461 1.9062 1.8242 5.6172 5.1836 12.852 5.1836 15.898 2.1133-0.25391 0.19141 4.332 6.4922 4.5469 6.3945l1.1523 1.2617 0.097656-0.046876c2.2188 2.125 5.4492 3.3945 9.0117 3.6367 7.5234 0.86328 13.32-3.6602 13.895-7.7539-0.16797 0.097656 7.3203 2.4375 7.4766 2.3398l1.6914 0.37109 0.070313-0.070312c2.9297 0.21484 6.3008-0.83984 9.457-2.5781 4.0664-2.6055 6.457-6.6133 7.1055-9.7422l-0.085937-0.085938c-0.12109-1.3906-0.51563-2.7461-1.2461-4.0195l6.0977 0.035156 1.2461-0.011719v-0.097656c2.0625-0.25391 3.9727-1.1758 5.4727-2.6758 3.0977-3.1211 3.5391-7.8477 1.4141-11.508l6.0977 0.023438h1.2461l-0.003906-0.050782c2.0898-0.25391 3.9844-1.1992 5.4844-2.6992 3.0977-3.0977 3.5391-7.8242 1.4023-11.508l6.0977 0.046875 1.2617-0.023437v-0.070313c2.0742-0.25391 3.9727-1.2109 5.4727-2.6992 2.0156-2.0156 2.8672-4.7148 2.6875-7.3555l-0.070312-0.070313c-0.13281-1.3789-0.52734-2.7461-1.2461-4.0078l6.0977 0.023437 1.2891-0.003906v-0.097656c2.0625-0.25391 3.9609-1.1875 5.4609-2.6875 3.1211-3.1094 3.5625-7.8359 1.4141-11.508l6.1094 0.035156 1.2461-0.011718v-0.085938c2.0742-0.25391 3.9727-1.1992 5.4727-2.6992 3.1094-3.1094 3.5508-7.8477 1.4023-11.508l6.1211 0.046875 1.2617-0.023438-0.023438-0.085937c2.0898-0.25391 3.9844-1.2109 5.4844-2.6875 2.0156-2.0156 2.8672-4.7148 2.6992-7.3555l-0.097656-0.085937c-0.14453-1.3906-0.51562-2.7461-1.2461-4.0078l6.0977 0.035156 1.2617-0.011718-0.003906-0.054688c2.0742-0.25391 3.9609-1.1992 5.4609-2.6992 3.1211-3.1094 3.5625-7.8477 1.4297-11.508l6.0977 0.046875 1.2617-0.023438-0.011719-0.070312c2.0742-0.25391 3.9844-1.2109 5.4727-2.6992 3.1211-3.1211 3.5625-7.8477 1.4297-11.508l6.0977 0.023437h1.2617v-0.097656c2.0625-0.25391 3.9609-1.1992 5.4609-2.6758 2.0156-2.0156 2.8789-4.7266 2.6992-7.3555l-3.8398-3.8281 3.7578 3.7422c-0.13281-1.3789-0.52734-2.7461-1.2461-4.0078l6.1211 0.046875 1.2461-0.023437-0.011719-0.070313c2.0898-0.25391 3.9844-1.2109 5.4727-2.6992 3.1094-3.1211 3.5508-7.8477 1.4297-11.508l6.0977 0.023437h1.2539v-0.085937c2.0742-0.26562 3.9844-1.2109 5.4609-2.6875 3.1211-3.1211 3.5625-7.8477 1.4297-11.508l6.0977 0.023438h1.2617v-0.097657c2.0625-0.25391 3.9727-1.1992 5.4727-2.6992 2.0039-2.0039 2.8789-4.7148 2.6875-7.3438l-6.5898-6.5742-12.672-0.058594-17.41-0.085937c-2.543-2.8203-2.4961-7.1523 0.20313-9.8398 1.332-1.332 3.1445-2.0898 5.0391-2.0742l12.863 0.070313-2.4102-2.3984h-1.4336c-0.79297-0.88672-1.3086-1.9453-1.6211-3.0469l-0.10938-0.10938c-0.53906-2.3047 0.058594-4.8359 1.8359-6.6484 1.332-1.332 3.1445-2.0625 5.0508-2.0625l24.098 0.23828 17.449 0.085938c2.5312 2.8203 2.4844 7.1641-0.20312 9.8281-1.3438 1.332-3.1445 2.0742-5.0625 2.0625l-24.047-0.12109-15.863-0.070313 2.4102 2.3867 11.062 0.070313 17.438 0.097656c2.5312 2.8086 2.4844 7.1406-0.20312 9.8164-1.3438 1.332-3.1445 2.0625-5.0508 2.0625l-11.27-0.046875 6.4453 6.4219c-0.13281-1.3789-0.53906-2.7617-1.2461-4.0078l6.0977 0.046874 1.2461-0.023437v-0.085937c2.0625-0.25391 3.9844-1.2109 5.4609-2.6875 3.1211-3.1211 3.5625-7.8477 1.4297-11.508l6.0977 0.023437h1.2617v-0.097656c2.0625-0.25391 3.9727-1.1992 5.4727-2.6992 3.0977-3.0977 3.5391-7.8242 1.4141-11.496l6.0977 0.023437h1.2617v-0.097656c2.0625-0.25391 3.9609-1.1875 5.4609-2.6875 2.0156-2.0156 2.8789-4.7148 2.6992-7.3438l-0.097656-0.085937c-0.12109-1.3789-0.51562-2.7617-1.2461-4.0078l6.0977 0.023437h1.2617v-0.097656c2.0625-0.25391 3.9727-1.1992 5.4727-2.6992 3.0977-3.0977 3.5391-7.8242 1.4141-11.484l6.0977 0.023438h1.2617v-0.097656c2.0625-0.25391 3.9609-1.1992 5.4609-2.6992 3.1211-3.1211 3.5625-7.8359 1.4141-11.508l6.1094 0.023438h1.2461v-0.097656c2.0742-0.25391 3.9727-1.1875 5.4727-2.6875 2.0039-2.0039 2.8789-4.7031 2.6875-7.3438l-3.2891-3.2773 3.2383 3.2148c-0.13281-1.3789-0.52734-2.7461-1.2461-4.0078l6.0977 0.023438h1.2617v-0.070313c2.0625-0.27734 3.9609-1.2109 5.4609-2.7109 3.1211-3.1094 3.5625-7.8359 1.4141-11.496l6.1094 0.023437 1.2461-0.011718v-0.085938c2.0742-0.25391 3.9727-1.1992 5.4727-2.6992 3.1094-3.1094 3.5508-7.8242 1.4023-11.508l6.1211 0.046875 1.2617-0.023438-0.023438-0.085937c2.0898-0.25391 3.9844-1.1875 5.4844-2.6875 2.0156-2.0156 2.8672-4.7148 2.6992-7.3438l-0.097656-0.085937c-0.13281-1.3906-0.51563-2.7617-1.2461-4.0078l6.0977 0.023437h1.2617v-0.097656c2.0742-0.25391 3.9609-1.1992 5.4609-2.6992 3.1211-3.0977 3.5625-7.8242 1.4297-11.508l6.0977 0.046875 1.2617-0.023438-0.011719-0.070312c2.0742-0.25391 3.9844-1.1992 5.4727-2.6992 3.1211-3.1211 3.5508-7.8242 1.4297-11.508l6.0977 0.035156 1.2617-0.011719-0.035157 0.050782c2.0625-0.25391 3.9609-1.1992 5.4609-2.6992 2.0156-2.0156 2.8789-4.7148 2.6992-7.3438l-0.085938-0.085938c-0.13281-1.3906-0.52734-2.7461-1.2461-4.0078l6.1211 0.023437h1.2461l0.046875-0.09375c2.0742-0.25391 3.9844-1.1875 5.4727-2.6875 3.1094-3.1094 3.5508-7.8359 1.4297-11.508l6.0977 0.035156 1.2461-0.011719-0.003906-0.0625c2.0625-0.25391 3.9844-1.2109 5.4609-2.6875 3.1211-3.1211 3.5625-7.8477 1.4297-11.508l6.0977 0.023437h1.2617v-0.097656c2.0625-0.25391 3.9727-1.1992 5.4609-2.6875 2.0156-2.0156 2.8906-4.7266 2.6992-7.3438l-0.070313-0.097656c-0.13281-1.3789-0.53906-2.7617-1.2461-4.0078l6.0977 0.046875 1.2461-0.023437-0.007813-0.058594c1.0312-0.13281 2.0391-0.42188 2.9531-0.86328 0.46875-0.25391 0.88672-0.49219 1.3203-0.79297 0.64844-0.58984 1.2461-1.2461 1.8125-1.9062 5.1836-5.6172 5.1719-12.852 2.125-15.887 0.17969 0.25391 6.4805-4.332 6.3828-4.5469l1.2461-1.1523-0.035157-0.097657c2.2305-2.2578 3.5039-5.4727 3.7305-9.0586zm-33.754-4.5508c2.5078-1.5859 6.3008-4.6914 8.6055-9.0586 0.63672-0.98437 1.0781-1.9922 1.5-3.0234 0.53906-1.3086 0.98438-2.6523 1.332-4.043 0.68359-2.4961 1.1523-5.0625 1.0781-7.1523 0.085938-4.332-0.35938-7.6562-0.35938-7.6562 2.6875-2.5195 8.4102-1.0312 11.867 4.1875 1.5234 2.6875 2.1836 5.6523 1.8242 8.0508 0 0-0.73047 3.4805-2.3164 7.8477-0.70703 2.1602-2.0508 4.5859-3.6016 6.875-1.4766 2.3047-3.1562 4.4531-5.293 6.2656-0.78125 0.76953-1.6914 1.1875-2.543 1.8125-3.2539 2.4102-6.7305 4.0938-9.168 4.8008-3.5625 0.71875-5.5547 0.64844-5.5547 0.64844-3.3008-2.2578-4.9688-4.6094-4.7891-5.9648 0.13281-0.70703 1.3438-1.1055 2.5664-1.5586 0.003907 0.023438 1.8281-0.42188 4.8516-2.0312zm-16.285-59.375c2.8086-2.5312 7.1523-2.4961 9.8164 0.19141 1.332 1.3438 2.0742 3.1445 2.0625 5.0508l-0.12109 24.059-0.070312 15.863 1.1758-1.1758-1.2461 1.2344-0.34766 1.2227c-0.89844 0.78125-1.8242 1.3672-2.6992 1.8242l-0.097656 0.10937c-2.3164 0.53906-4.8242-0.046874-6.6367-1.8359-1.332-1.3438-2.0898-3.1445-2.0742-5.0508l0.12109-24.047zm-4.4297-14.062c1.332 1.3438 2.0898 3.1328 2.0625 5.0508l-0.097656 24.059-0.097656 17.426c-2.8086 2.5312-7.1523 2.4961-9.8398-0.19141-1.332-1.3438-2.0625-3.1445-2.0625-5.0508l0.12109-24.047 0.097656-17.449c2.8086-2.5234 7.1289-2.4727 9.8164 0.20312zm-38.277-28.633c2.8086-2.5312 7.1406-2.4844 9.8164 0.20312 1.332 1.3438 2.0898 3.1328 2.0625 5.0508l-0.12109 24.059-0.058594 15.855 2.3984-2.3984 0.058594-11.074 0.097656-17.438c2.8086-2.5312 7.1523-2.4961 9.8164 0.19141 1.332 1.3438 2.0742 3.1445 2.0625 5.0508l-0.035156 11.27-0.058594 0.058594-0.058594 12.672-0.085937 17.41c-2.8203 2.543-7.1758 2.4961-9.8398-0.19141-1.332-1.3438-2.0898-3.1445-2.0742-5.0508l0.070313-12.852-2.3984 2.3984-0.011719 1.4414c-0.875 0.80469-1.9336 1.3203-3.0352 1.6094l-0.10938 0.10938c-2.3047 0.53906-4.8359-0.035156-6.6484-1.8359-1.332-1.3438-2.0898-3.1445-2.0625-5.0508l0.12109-24.047zm-4.4297-14.051c1.332 1.3438 2.0898 3.1328 2.0742 5.0391l-0.12109 24.059-0.085937 17.426c-2.8086 2.543-7.1523 2.4961-9.8281-0.19141-1.3438-1.3438-2.0898-3.1445-2.0742-5.0508l0.12109-24.047 0.097656-17.438c2.8203-2.5352 7.1172-2.4883 9.8164 0.20312zm-24.012-14.391c2.8203-2.5312 7.1641-2.4844 9.8281 0.20312 1.332 1.3438 2.0742 3.1328 2.0625 5.0508l-0.046875 11.258-0.070312 0.070313-0.070313 12.66-0.070312 17.426c-2.832 2.5312-7.1641 2.4961-9.8398-0.19141-1.332-1.3438-2.0898-3.1445-2.0625-5.0508l0.070312-12.852-0.78125 0.78125 0.82813-0.83984 0.070312-11.062zm-14.266-14.254c2.8203-2.5312 7.1523-2.4961 9.8164 0.20312 1.3438 1.3438 2.0898 3.1328 2.0898 5.0391l-0.13281 24.059-0.070313 15.84-0.070312 0.070313v1.4414c-0.88672 0.80469-1.9453 1.3203-3.0352 1.6094l-0.12109 0.10938c-2.3047 0.53906-4.8242-0.035156-6.6367-1.8359-1.332-1.3438-2.0898-3.1445-2.0742-5.0508l0.13281-24.047zm-14.234-14.258c2.8203-2.5195 7.1406-2.4844 9.8047 0.20312 1.3555 1.3438 2.1016 3.1445 2.0898 5.0508l-0.12109 24.059-0.097657 17.426c-2.8086 2.543-7.1523 2.4961-9.8164-0.19141-1.3438-1.3438-2.0898-3.1445-2.0898-5.0508l0.13281-24.047zm-28.441-28.438c2.8203-2.5195 7.1523-2.4844 9.8164 0.20312 1.332 1.3438 2.0898 3.1445 2.0742 5.0508l-0.13281 24.059-0.070313 15.84-0.070313 0.070313v1.4414c-0.88672 0.80469-1.9453 1.3203-3.0234 1.5977l-1.3086 1.2969 1.1992-1.1875c-2.3164 0.53906-4.8242-0.035156-6.625-1.8359-1.3438-1.3438-2.1016-3.1445-2.0742-5.0508l0.12109-24.035zm-4.4258-14.055c1.3438 1.3438 2.0898 3.1328 2.0898 5.0508l-0.13281 24.059-0.085937 17.426c-2.8086 2.543-7.1523 2.4961-9.8398-0.19141-1.332-1.3438-2.0742-3.1445-2.0625-5.0508l0.12109-24.035 0.097656-17.449c2.8281-2.5312 7.125-2.4961 9.8125 0.19141zm-38.27-28.645c2.8203-2.5312 7.1406-2.4844 9.8047 0.20312 1.3438 1.3438 2.0898 3.1328 2.0898 5.0508l-0.12109 24.047-0.097656 15.852 2.3984-2.3984 0.058594-11.062 0.097656-17.438c2.8203-2.5195 7.1523-2.4844 9.8164 0.20312 1.332 1.3438 2.0898 3.1445 2.0742 5.0508l-0.058594 11.27-0.058593 0.058594-0.058594 12.672-0.097656 17.41c-2.8086 2.543-7.1523 2.4961-9.8281-0.19141-1.3438-1.3438-2.1016-3.1445-2.0742-5.0508l0.070313-12.852-2.3984 2.3984-0.011719 1.4414c-0.88672 0.80469-1.9336 1.3203-3.0352 1.6094l-0.10938 0.10937c-2.3164 0.53906-4.8359-0.035156-6.6367-1.8359-1.3555-1.3438-2.0898-3.1445-2.0625-5.0508l0.12109-24.035zm-14.254-14.242c2.8203-2.5312 7.1523-2.4844 9.8281 0.20313 1.3438 1.3438 2.0742 3.1328 2.0742 5.0391l-0.12109 24.059-0.097656 17.41c-2.8086 2.543-7.1523 2.4961-9.8281-0.19141-1.3438-1.3438-2.0898-3.1445-2.0742-5.0508l0.12109-24.047zm-32.867-42.504c1.3203 1.3438 2.0625 3.1328 2.0625 5.0508l-0.12109 24.047-0.082031 17.426c-2.8086 2.5312-7.1523 2.4961-9.8164-0.19141-1.3438-1.3438-2.0898-3.1445-2.0898-5.0508l0.12109-24.047 0.10937-17.438c2.8086-2.5195 7.1406-2.4727 9.8164 0.20312zm-24.016-14.375c2.8203-2.5312 7.1641-2.4844 9.8281 0.19141 1.3438 1.3438 2.0742 3.1445 2.0742 5.0508l-0.058594 11.258-0.070313 0.070313-0.058593 12.66-0.097657 17.426c-2.8086 2.543-7.1523 2.4961-9.8164-0.19141-1.332-1.3438-2.0898-3.1445-2.0742-5.0508l0.058594-12.84 0.070312-0.070313 0.070313-11.062zm-18.684-28.309c1.3438 1.3438 2.0898 3.1328 2.0898 5.0391l-0.13281 24.059-0.085937 17.426c-2.8203 2.543-7.1523 2.4961-9.8398-0.19141-1.332-1.3438-2.0742-3.1445-2.0625-5.0508l0.12109-24.035 0.097656-17.438c2.8164-2.5469 7.125-2.4961 9.8125 0.19141zm-24.012-14.391c2.8203-2.5312 7.1641-2.4844 9.8281 0.20312 1.332 1.3438 2.0742 3.1445 2.0625 5.0508l-0.046875 11.258-0.070312 0.070313-0.070313 12.66-0.070312 17.426c-2.832 2.5312-7.1641 2.4961-9.8398-0.19141-1.3438-1.3438-2.0898-3.1445-2.0625-5.0508l0.046875-12.84 0.085937-0.070313 0.058594-11.062zm-14.266-14.254c2.8203-2.5312 7.1523-2.4844 9.8164 0.20312 1.3438 1.3438 2.0898 3.1328 2.0898 5.0391l-0.13281 24.059-0.070313 15.84-0.070312 0.070313v1.4414c-0.89844 0.80469-1.9453 1.3203-3.0469 1.6094l-0.13281 0.10938c-2.293 0.52734-4.8008-0.046875-6.6133-1.8359-1.3555-1.3438-2.0898-3.1445-2.0742-5.0508l0.13281-24.035zm-14.234-14.258c2.8203-2.5195 7.1406-2.4844 9.8047 0.20312 1.3555 1.3438 2.1016 3.1445 2.0898 5.0508l-0.12109 24.059-0.097657 17.426c-2.8086 2.5312-7.1523 2.4961-9.8281-0.19141-1.3438-1.3438-2.1016-3.1445-2.0742-5.0508l0.13281-24.047zm-32.867-42.492c1.3438 1.3438 2.0898 3.1328 2.0898 5.0508l-0.12109 24.047-0.10938 17.426c-2.8203 2.543-7.1523 2.4961-9.8281-0.19141-1.332-1.3438-2.0898-3.1445-2.0625-5.0508l0.12109-24.035 0.097656-17.438c2.8281-2.543 7.125-2.4961 9.8125 0.19141zm-15-14.734c2.7734 2.3047 2.6523 3.5156 2.8789 5.5938l-0.058594 11.27 2.1484-2.1367-2.207 2.207-0.070312 12.66-0.097656 17.426c-2.8086 2.5312-7.1523 2.4961-9.8164-0.19141-1.3438-1.3438-2.0898-3.1445-2.0742-5.0508l0.070312-12.852 0.058594-0.058594s0.023437-5.1719 0.058594-11.074c0-1.0547 0.011719-2.1016 0.011719-3.1797 0.16797-3.4805-0.79297-7.3438-1.5703-10.441-0.86328-3.0117-1.9453-4.8477-1.9453-4.8477 2.0312-3.3555 7.9336-3.5859 12.613 0.67578zm-42.73 10.008c-0.98438-0.625-1.9922-1.0781-3.0234-1.5-1.3086-0.53906-2.6523-0.98438-4.043-1.3438-2.4961-0.67188-5.0508-1.1523-7.1523-1.0781-4.3438-0.070313-7.6562 0.37109-7.6562 0.37109-2.5195-2.6875-1.0312-8.4258 4.1875-11.879 2.6992-1.5117 5.6641-2.1836 8.0508-1.8242 0 0 3.4805 0.71875 7.8477 2.3281 2.1602 0.70703 4.5703 2.0391 6.875 3.6016 2.293 1.4766 4.4531 3.1328 6.2539 5.293 0.76953 0.78125 1.1992 1.6914 1.8125 2.543 2.4102 3.2539 4.1172 6.7422 4.8008 9.168 0.71875 3.5625 0.64844 5.5547 0.64844 5.5547-2.2578 3.3008-4.6094 4.957-5.9531 4.7891-0.71875-0.12109-1.1055-1.3438-1.5586-2.5664 0 0-0.44531-1.8242-2.0625-4.8477-1.5508-2.5117-4.6719-6.3164-9.0273-8.6094zm-50.113 15.074c1.3438-1.3438 3.1328-2.0742 5.0391-2.0625l24.059 0.10937 15.852 0.070313 0.058594 0.058594 1.2227 0.35938c0.78125 0.89844 1.3789 1.8359 1.8242 2.6875l0.10938 0.10938c0.53906 2.3164-0.035156 4.8359-1.8359 6.625-1.3438 1.3438-3.1445 2.0898-5.0508 2.0742l-24.047-0.12109-17.438-0.085938c-2.5273-2.832-2.4805-7.1367 0.20703-9.8242zm-14.254 14.254c1.3438-1.3438 3.1328-2.0742 5.0508-2.0742l24.059 0.12109 17.426 0.085937c2.543 2.8203 2.4961 7.1523-0.19141 9.8398-1.3438 1.3438-3.1445 2.0742-5.0508 2.0625l-24.035-0.12109-17.449-0.085937c-2.5469-2.832-2.5-7.1523 0.19141-9.8281zm-14.199 14.184c1.3438-1.3438 3.1445-2.0742 5.0508-2.0625l11.27 0.046874 0.058594 0.058594 12.672 0.058594 17.426 0.085938c2.543 2.8203 2.4961 7.1523-0.19141 9.8398-1.3438 1.3438-3.1445 2.0898-5.0508 2.0742l-12.852-0.058594-0.058593-0.058594-11.062-0.058593-17.438-0.085938c-2.5469-2.8438-2.5-7.1523 0.17578-9.8398zm-14.242 14.258c1.3438-1.3438 3.1328-2.0742 5.0508-2.0742l24.059 0.12109 15.852 0.070313 0.058593 0.058593h1.4414c0.80469 0.88672 1.3203 1.9453 1.6094 3.0352l0.10938 0.10937c0.53906 2.3164-0.046875 4.8359-1.8359 6.625-1.3438 1.3438-3.1445 2.0742-5.0508 2.0625l-24.035-0.12109-17.449-0.085938c-2.5469-2.8047-2.4961-7.1133 0.19141-9.8008zm2.9883 24.168-17.438-0.085938c-2.5312-2.8203-2.4844-7.1406 0.20313-9.8281 1.3438-1.3438 3.1328-2.0742 5.0391-2.0625l24.059 0.10938 17.426 0.085938c2.5312 2.8203 2.4961 7.1523-0.19141 9.8398-1.3438 1.3438-3.1445 2.0898-5.0508 2.0742zm-59.941 32.781c1.3438-1.3438 3.1328-2.0742 5.0508-2.0742l24.059 0.12109 17.426 0.085937c2.543 2.8203 2.4961 7.1523-0.19141 9.8398-1.3438 1.3438-3.1445 2.0742-5.0508 2.0625l-24.035-0.12109-17.449-0.085937c-2.5312-2.832-2.4961-7.1523 0.19141-9.8281zm-14.195 14.184c1.3438-1.3438 3.1445-2.0742 5.0508-2.0625l11.27 0.046876 0.058594 0.058593 12.672 0.058594 17.426 0.085937c2.5312 2.8203 2.4961 7.1523-0.19141 9.8398-1.3438 1.3438-3.1445 2.0898-5.0508 2.0742l-12.852-0.070313-0.058594-0.058593-11.074-0.058594-17.438-0.085937c-2.5352-2.832-2.4883-7.1484 0.1875-9.8281zm-14.242 14.258c1.3438-1.3438 3.1328-2.0742 5.0508-2.0742l24.059 0.12109 15.852 0.070312 0.058594 0.058594h1.4414c0.80469 0.89844 1.3203 1.9453 1.6094 3.0352l0.10938 0.10938c0.53906 2.3164-0.046875 4.8242-1.8359 6.625-1.3438 1.3438-3.1445 2.0742-5.0508 2.0625l-24.035-0.12109-17.449-0.085938c-2.5469-2.8047-2.5-7.125 0.19141-9.8008zm2.9844 24.156-17.438-0.085937c-2.5312-2.8203-2.4961-7.1406 0.20312-9.8281 1.3438-1.3438 3.1328-2.0742 5.0391-2.0625l24.059 0.10938 17.426 0.085937c2.5312 2.8203 2.4961 7.1523-0.19141 9.8398-1.3438 1.3438-3.1445 2.0898-5.0508 2.0742zm-59.938 32.785c1.3438-1.3438 3.1328-2.0742 5.0508-2.0625l24.059 0.12109 17.426 0.085937c2.543 2.8203 2.4961 7.1523-0.19141 9.8398-1.3438 1.3438-3.1445 2.0742-5.0508 2.0625l-24.047-0.12109-17.438-0.085937c-2.5352-2.8438-2.4844-7.1641 0.19141-9.8398zm-14.184 14.184c1.3438-1.3438 3.1445-2.0742 5.0508-2.0625l11.27 0.046875 0.058594 0.058594 12.672 0.058594 17.426 0.085937c2.5312 2.8203 2.4961 7.1523-0.19141 9.8398-1.3438 1.3438-3.1445 2.0898-5.0508 2.0625l-12.852-0.058594-0.058594-0.058594-11.082-0.050781-17.449-0.085938c-2.5195-2.8281-2.4805-7.1484 0.20703-9.8359zm-14.258 14.254c1.3438-1.3438 3.1328-2.0742 5.0508-2.0625l24.059 0.12109 15.852 0.070313 0.058594 0.058593h1.4414c0.80469 0.89844 1.3203 1.9453 1.6094 3.0352l0.10937 0.10937c0.53906 2.3164-0.035156 4.8359-1.8359 6.6367-1.3438 1.3438-3.1445 2.0742-5.0508 2.0625l-24.047-0.12109-17.438-0.085938c-2.5312-2.8281-2.4844-7.1367 0.19141-9.8242zm2.9883 24.168-17.438-0.085938c-2.5312-2.8203-2.4961-7.1406 0.20312-9.8164 1.3438-1.3438 3.1328-2.0742 5.0391-2.0742l24.059 0.12109 17.41 0.085938c2.543 2.8203 2.4961 7.1523-0.19141 9.8398-1.3438 1.3438-3.1445 2.0898-5.0508 2.0742zm-45.684 18.527c1.3438-1.3438 3.1445-2.0742 5.0508-2.0742l24.059 0.12109 15.852 0.070312 0.058594 0.058594h1.4414c0.80469 0.88672 1.3203 1.9453 1.5977 3.0352l0.10938 0.10938c0.53906 2.3164-0.035156 4.8359-1.8359 6.625-1.3438 1.3438-3.1445 2.0898-5.0508 2.0742l-24.035-0.13281-17.449-0.085937c-2.5195-2.8047-2.4727-7.1094 0.20312-9.8008zm-14.242 14.258c1.3438-1.3438 3.1328-2.0742 5.0508-2.0625l24.059 0.10938 17.426 0.085938c2.543 2.8203 2.4961 7.1523-0.19141 9.8398-1.3438 1.3438-3.1445 2.0742-5.0508 2.0625l-24.047-0.12109-17.438-0.085938c-2.5469-2.832-2.5-7.1523 0.19141-9.8281zm-14.199 14.184c1.3438-1.3438 3.1445-2.0742 5.0508-2.0742l11.27 0.058594 0.058593 0.058594 12.672 0.058593 17.41 0.085938c2.543 2.8203 2.4961 7.1523-0.19141 9.8398-1.3438 1.3438-3.1445 2.0742-5.0508 2.0625l-12.852-0.058594-0.058594-0.058594-11.062-0.058594-17.449-0.085937c-2.5195-2.8203-2.4844-7.1406 0.20312-9.8281zm-14.242 14.258c1.3438-1.3438 3.1328-2.0742 5.0508-2.0625l24.059 0.10938 15.852 0.070312 0.058594 0.058594h1.4414c0.80469 0.89844 1.3203 1.9453 1.6094 3.0352l0.10938 0.10938c0.53906 2.3164-0.035156 4.8359-1.8359 6.6367-1.3438 1.3438-3.1445 2.0742-5.0508 2.0625l-24.047-0.12109-17.438-0.085938c-2.5469-2.8164-2.4961-7.1367 0.19141-9.8125zm-14.258 14.254c1.3438-1.3438 3.1445-2.0742 5.0508-2.0742l24.059 0.12109 17.426 0.085937c2.543 2.8203 2.4961 7.1523-0.19141 9.8398-1.3438 1.3438-3.1445 2.0898-5.0508 2.0625l-24.035-0.12109-17.438-0.085937c-2.543-2.832-2.5078-7.1523 0.17969-9.8281zm-14.195 14.184c1.3438-1.3438 3.1328-2.0742 5.0508-2.0625l11.27 0.046876 0.058594 0.058593 12.66 0.058594 17.426 0.085937c2.543 2.8203 2.4961 7.1523-0.19141 9.8398-1.3438 1.3438-3.1445 2.0898-5.0508 2.0742l-12.852-0.058594-0.058594-0.058593-11.062-0.058594-17.438-0.085938c-2.5352-2.8438-2.4883-7.1641 0.1875-9.8398zm-14.254 14.258c1.3438-1.3438 3.1445-2.0742 5.0508-2.0742l24.059 0.12109 15.852 0.070312 0.058594 0.058594h1.4414c0.80469 0.88672 1.3203 1.9453 1.6094 3.0352l0.10938 0.10938c0.53906 2.3164-0.046875 4.8359-1.8359 6.625-1.3438 1.3438-3.1445 2.0898-5.0508 2.0625l-24.035-0.12109-17.449-0.085938c-2.5352-2.8047-2.4844-7.125 0.19141-9.8008zm-14.246 14.242c1.3438-1.3438 3.1328-2.0742 5.0508-2.0625l24.059 0.10938 17.426 0.085937c2.5312 2.8203 2.4961 7.1523-0.19141 9.8398-1.3438 1.3438-3.1445 2.0898-5.0508 2.0742l-24.047-0.12109-17.438-0.085938c-2.543-2.832-2.4961-7.1523 0.19141-9.8398zm-14.746 15c2.3164-2.7617 3.5273-2.6406 5.6055-2.8789l11.27 0.058594 0.058594 0.058594 12.672 0.058594 17.41 0.085937c2.543 2.8203 2.4961 7.1523-0.19141 9.8398-1.3438 1.3438-3.1445 2.0742-5.0508 2.0625l-12.852-0.058594-0.058594-0.058594s-5.1602-0.023437-11.062-0.046875c-1.0547 0-2.1016-0.011718-3.1797-0.011718-3.4805-0.14453-7.3555 0.80469-10.441 1.5859-3.0117 0.86328-4.8477 1.9453-4.8477 1.9453-3.3516-2.0547-3.582-7.9609 0.66797-12.641zm-12.734 29.328c0.25391-3.0586 1.3555-5.8086 3.3711-7.4531 0 0 2.4492-2.3164 6.1211-4.8008 4.1289-2.3398 9.2031-4.7539 14.594-5.2305 1.3203-0.19141 2.6055-0.14453 3.9258-0.19141 3.5625-0.12109 7.0312 0 9.7695-0.10938 3.7422 0.011719 6.2383 0.023438 6.2383 0.023438l0.058594 0.058593h1.4414c0.80469 0.89844 1.3203 1.9453 1.6094 3.0352l0.10938 0.10938c0.53906 2.3164-0.035156 4.8359-1.8359 6.6367-1.3438 1.3438-3.1445 2.0742-5.0508 2.0625 0.023437 0.42188-7.8359-3.3945-17.461 0.96094-1.0781 0.44531-1.9805 1.2109-2.9766 1.8008-3.3945 2.0273-6.4805 4.5703-8.7852 7.2109-2.6055 3.3945-4.1055 6.2891-4.1055 6.2891-3.5664 0.39844-7.875-4.1719-7.0234-10.402zm7.3203 31.082c-1.5117-2.6992-2.1719-5.6523-1.8242-8.0391 0 0 0.71875-3.4805 2.3281-7.8477 0.70703-2.1602 2.0391-4.5859 3.6016-6.875 1.4766-2.293 3.1328-4.4531 5.293-6.2656 0.78125-0.76953 1.6914-1.1875 2.543-1.8125 3.2539-2.4102 6.7422-4.1055 9.168-4.8008 3.5625-0.71875 5.5547-0.64844 5.5547-0.64844 3.3008 2.2578 4.957 4.6094 4.7891 5.9531-0.12109 0.71875-1.3438 1.1055-2.5664 1.5586 0 0-1.8242 0.44531-4.8477 2.0508-2.4961 1.5859-6.3008 4.7031-8.5938 9.0586-0.625 0.98438-1.0781 1.9922-1.5 3.0234-0.53906 1.3086-0.98438 2.6523-1.3438 4.043-0.67188 2.4844-1.1523 5.0508-1.0781 7.1523-0.085937 4.3438 0.37109 7.6562 0.37109 7.6562-2.7031 2.5117-8.4258 1.0117-11.895-4.207zm26.078 18.383c-2.8203 2.5312-7.1406 2.4844-9.8281-0.19141-1.3438-1.332-2.0742-3.1445-2.0742-5.0508l0.058593-11.258-2.832 2.8203 2.8906-2.8906s-0.21484-2.2695-0.13281-5.375c-0.070313-2.3398 0.51562-5.2578 1.3672-8.0508 0.23828-0.78125 0.38281-1.5977 0.68359-2.3398 2.6172-7.0078 7.957-10.691 7.957-10.691 3.7188-0.12109 6.8516 0.71875 7.3438 1.9453 0 0.78125-0.058594 1.5117-1.0664 2.7344 0.10938-0.070313-1.8242 2.125-2.5938 4.4414-0.97266 2.3398-1.5586 5.3281-1.5586 5.3516l-0.058594 0.058594-0.058593 11.051zm18.684 28.309c-1.3438-1.332-2.0742-3.1445-2.0742-5.0508l0.12109-24.059 0.085938-17.426c2.8203-2.5312 7.1523-2.4961 9.8398 0.20312 1.3438 1.332 2.0742 3.1445 2.0625 5.0391l-0.12109 24.047-0.085938 17.438c-2.832 2.5547-7.1523 2.5078-9.8281-0.19141zm24.012 14.387c-2.8203 2.5312-7.1406 2.4844-9.8164-0.21484-1.3438-1.332-2.0898-3.1445-2.0742-5.0391l0.058594-11.27-2.6875 2.6875 2.7461-2.7461 0.058593-12.66 0.085938-17.41c2.8203-2.5547 7.1523-2.5078 9.8398 0.19141 1.3438 1.332 2.0898 3.1445 2.0742 5.0508l-0.070312 12.852-0.058594 0.046875-0.058594 11.09zm18.672 28.32c-1.3438-1.3555-2.0742-3.1562-2.0625-5.0625l0.12109-24.059 0.085937-17.398c2.8203-2.5547 7.1523-2.5078 9.8398 0.19141 1.3438 1.332 2.0898 3.1445 2.0742 5.0508l-0.13281 24.047-0.085937 17.426c-2.832 2.5156-7.1523 2.4688-9.8398-0.19531zm38.266 28.609c-2.8203 2.5312-7.1406 2.4844-9.8281-0.19141-1.3438-1.3555-2.0742-3.1562-2.0625-5.0625l0.12109-24.059 0.070312-15.828-2.3984 2.3867-0.058594 11.074-0.085937 17.438c-2.8203 2.5312-7.1406 2.4844-9.8281-0.21484-1.3438-1.332-2.0742-3.1445-2.0625-5.0391l0.046876-11.258 0.058593-0.070313 0.058594-12.672 0.085937-17.41c2.8203-2.5547 7.1523-2.4961 9.8398 0.19141 1.3438 1.3438 2.0742 3.1445 2.0625 5.0625l-0.058594 12.84 2.3984-2.3984v-1.4414c0.89844-0.79297 1.9453-1.3086 3.0352-1.6094l0.10938-0.10937c2.3164-0.53906 4.8359 0.046874 6.6367 1.8242 1.3438 1.3555 2.0742 3.1562 2.0625 5.0625l-0.13281 24.047zm4.4297 14.062c-1.3438-1.3438-2.0742-3.1445-2.0742-5.0625l0.12109-24.047 0.085937-17.41c2.8203-2.5547 7.1523-2.5078 9.8398 0.19141 1.3438 1.332 2.0898 3.1445 2.0625 5.0625l-0.12109 24.047-0.085937 17.426c-2.8203 2.5312-7.1406 2.4805-9.8281-0.20703zm38.27 28.645c-2.8203 2.5312-7.1406 2.4844-9.8281-0.21484-1.3438-1.332-2.0742-3.1445-2.0625-5.0391l0.12109-24.047 0.070313-15.863-2.3984 2.4102-0.058594 11.062-0.097656 17.438c-2.8203 2.5312-7.1406 2.4844-9.8164-0.21484-1.3438-1.332-2.0742-3.1445-2.0742-5.0508l0.058594-11.258 0.058594-0.070313 0.058594-12.672 0.085937-17.41c2.8203-2.5312 7.1523-2.4961 9.8398 0.20312 1.3438 1.332 2.0742 3.1445 2.0625 5.0625l-0.058594 12.84 2.3984-2.4102v-1.4336c0.88672-0.79297 1.9453-1.3086 3.0352-1.5977l0.12109-0.12109c2.3164-0.55078 4.8242 0.046875 6.625 1.8242 1.3438 1.332 2.0898 3.1445 2.0742 5.0625l-0.12109 24.035zm4.4258 14.051c-1.3438-1.3203-2.0742-3.1328-2.0625-5.0508l0.12109-24.047 0.085937-17.426c2.8203-2.5312 7.1523-2.4961 9.8398 0.20312 1.3438 1.332 2.0742 3.1445 2.0625 5.0625l-0.12109 24.023-0.097656 17.438c-2.8203 2.5234-7.1406 2.4844-9.8281-0.20312zm24.023 14.391c-2.8203 2.5312-7.1406 2.4844-9.8281-0.20312-1.3438-1.3438-2.0742-3.1562-2.0625-5.0625l0.046874-11.258-3.2266 3.2383 3.2891-3.3008 0.058594-12.66 0.085938-17.41c2.8203-2.5312 7.1523-2.5078 9.8398 0.20312 1.3438 1.3438 2.0898 3.1562 2.0742 5.0508l-0.070312 12.852-0.058594 0.058593-0.058594 11.062zm18.672 28.309c-1.3438-1.3203-2.0742-3.1211-2.0625-5.0391l0.12109-24.047 0.085938-17.41c2.8203-2.5547 7.1523-2.5078 9.8398 0.19141 1.3438 1.332 2.0898 3.1445 2.0742 5.0508l-0.13281 24.047-0.085938 17.438c-2.832 2.4922-7.1484 2.4453-9.8398-0.23047zm24.012 14.387c-2.8203 2.5312-7.1406 2.4844-9.8164-0.20312-1.3438-1.3438-2.0742-3.1328-2.0742-5.0508l0.058594-11.258-2.6875 2.6758 2.7461-2.7461 0.058593-12.672 0.085938-17.41c2.8203-2.543 7.1523-2.5078 9.8398 0.20312 1.3438 1.332 2.0742 3.1445 2.0625 5.0391l-0.058594 12.84-0.058594 0.070312-0.058594 11.062zm14.258 14.254c-2.8203 2.5195-7.1406 2.4727-9.8281-0.22656-1.3438-1.332-2.0742-3.1328-2.0625-5.0391l0.12109-24.059 0.070312-15.828 0.058594-0.070313v-1.4531c0.89844-0.79297 1.9453-1.3086 3.0352-1.5977l0.10938-0.12109c2.3164-0.55078 4.8359 0.046875 6.6367 1.8242 1.3438 1.3555 2.0742 3.1562 2.0625 5.0625l-0.13281 24.047zm4.4297 14.055c-1.3438-1.332-2.0742-3.1445-2.0625-5.0508l0.12109-24.059 0.085938-17.41c2.8203-2.5547 7.1523-2.5078 9.8398 0.19141 1.3438 1.3438 2.0898 3.1445 2.0625 5.0625l-0.13281 24.047-0.085938 17.438c-2.8203 2.5273-7.1523 2.4805-9.8281-0.21875zm24.012 14.387c-2.8203 2.5078-7.1406 2.4609-9.8281-0.21484-1.3438-1.332-2.0742-3.1445-2.0625-5.0508l0.046875-11.258 0.058594-0.070312 0.058593-12.672 0.085938-17.398c2.8203-2.5547 7.1523-2.5078 9.8398 0.19141 1.3438 1.332 2.0742 3.1445 2.0625 5.0508l-0.070313 12.852-0.058593 0.046875-0.058594 11.09zm18.684 28.32c-1.3438-1.3555-2.0742-3.1562-2.0625-5.0625l0.12109-24.059 0.085938-17.398c2.8203-2.5547 7.1523-2.5078 9.8398 0.19141 1.3438 1.332 2.0742 3.1445 2.0625 5.0391l-0.12109 24.059-0.097656 17.41c-2.832 2.5312-7.1406 2.4844-9.8281-0.17969zm38.266 28.609c-2.8203 2.5312-7.1406 2.4844-9.8281-0.20312-1.3438-1.3438-2.0742-3.1445-2.0625-5.0508l0.12109-24.059 0.070313-15.828-2.3984 2.3867-0.0625 11.086-0.085938 17.438c-2.8203 2.5312-7.1406 2.4844-9.8281-0.20312-1.3438-1.3438-2.0742-3.1445-2.0742-5.0625l0.058594-11.258 0.058594-0.070313 0.058594-12.66 0.085937-17.438c2.8203-2.5312 7.1523-2.4844 9.8398 0.20312 1.3438 1.3438 2.0898 3.1562 2.0742 5.0742l-0.070313 12.828 2.3984-2.3984v-1.4297c0.89844-0.79297 1.9453-1.3086 3.0352-1.6094l0.12109-0.12109c2.3164-0.55078 4.8242 0.046875 6.625 1.8359 1.3438 1.332 2.0742 3.1445 2.0625 5.0625l-0.12109 24.023zm14.246 14.266c-2.8203 2.5312-7.1406 2.4844-9.8164-0.20312-1.3438-1.3438-2.0742-3.1445-2.0742-5.0625l0.12109-24.047 0.085938-17.41c2.8203-2.5547 7.1523-2.5078 9.8398 0.19141 1.3438 1.332 2.0898 3.1445 2.0742 5.0625l-0.13281 24.035zm42.695 42.695c-2.8203 2.5312-7.1406 2.4844-9.8281-0.20312-1.3438-1.3438-2.0742-3.1328-2.0625-5.0508l0.12109-24.047 0.085937-17.426c2.8203-2.5312 7.1523-2.4961 9.8398 0.20312 1.3438 1.3438 2.0898 3.1445 2.0625 5.0625l-0.13281 24.023zm65.594 19.969c-2.6875 1.5234-5.6523 2.1836-8.0508 1.8125 0 0-3.4688-0.71875-7.8477-2.3047-2.1602-0.71875-4.5859-2.0625-6.8633-3.6133-2.293-1.4766-4.4531-3.1445-6.2656-5.293-0.75781-0.76953-1.1875-1.6914-1.8125-2.5312-2.4102-3.2539-4.0781-6.7422-4.7891-9.1797-0.71875-3.5625-0.64844-5.5547-0.64844-5.5547 2.2695-3.2891 4.6094-4.957 5.9648-4.7891 0.71875 0.14453 1.1055 1.3438 1.5703 2.5781 0 0 0.44531 1.8242 2.0391 4.8477 1.5977 2.5078 4.7031 6.2891 9.0703 8.6055 0.98437 0.625 1.9922 1.0781 3.0234 1.5 1.3086 0.53906 2.6523 0.98438 4.043 1.3203 2.4844 0.69531 5.0625 1.1641 7.1641 1.0938 4.3203 0.070313 7.6445-0.37109 7.6445-0.37109 2.4648 2.6758 0.96484 8.4102-4.2422 11.879zm18.168-16.27c-1.332 1.332-3.1445 2.0898-5.0391 2.0742l-11.27-0.046875-0.070313-0.070312s-2.2695 0.21484-5.3633 0.14453c-2.3164 0.070312-5.2578-0.50391-8.0625-1.3438-0.76953-0.25391-1.5977-0.39453-2.3281-0.69531-7.0078-2.6406-10.691-7.957-10.691-7.957-0.13281-3.7305 0.71875-6.8398 1.9336-7.332 0.79297 0 1.5234 0.046875 2.7461 1.0547-0.085938-0.097656 2.1133 1.8359 4.4297 2.6055 2.3516 0.98438 5.3516 1.5703 5.3516 1.5703l0.058593 0.058594 11.074 0.058593 17.438 0.097657c2.5391 2.7852 2.4922 7.1055-0.20703 9.7812zm14.266-14.246c-1.3438 1.3438-3.1445 2.0898-5.0508 2.0898l-24.059-0.12109-15.863-0.085938-0.058594-0.058594-1.2227-0.34766c-0.79297-0.91016-1.3789-1.8242-1.8242-2.6992l-0.12109-0.12109c-0.53906-2.3047 0.046875-4.8125 1.8242-6.6367 1.3438-1.332 3.1445-2.0625 5.0625-2.0625l24.047 0.12109 17.461 0.097656c2.5312 2.8398 2.4922 7.1367-0.19531 9.8242zm14.234-14.254c-1.332 1.332-3.1445 2.0742-5.0391 2.0742l-24.07-0.10938-17.41-0.097656c-2.5547-2.8086-2.5078-7.1523 0.19141-9.8281 1.332-1.3438 3.1445-2.1016 5.0508-2.0742l24.059 0.12109 17.438 0.097656c2.5273 2.8203 2.4805 7.1406-0.21875 9.8164zm28.461-28.441c-1.332 1.3438-3.1445 2.0898-5.0391 2.0742l-24.07-0.12109-15.84-0.070312 2.3867 2.3867 11.062 0.070313 17.461 0.085937c2.5312 2.8203 2.4844 7.1406-0.21484 9.8047-1.332 1.3438-3.1445 2.0898-5.0508 2.0898l-11.258-0.070313-0.070312-0.046875-12.672-0.070312-17.426-0.085938c-2.543-2.7969-2.4961-7.1641 0.19141-9.8281 1.3438-1.332 3.1445-2.0898 5.0625-2.0625l12.84 0.070313-2.3867-2.4141h-1.4531c-0.78125-0.88672-1.2969-1.9453-1.5977-3.0469l-0.12109-0.097656c-0.53906-2.3164 0.046875-4.8477 1.8242-6.6484 1.3555-1.3438 3.1562-2.0898 5.0625-2.0742l24.059 0.12109 17.438 0.097656c2.5391 2.8398 2.4883 7.1484-0.1875 9.8359zm14.246-14.246c-1.332 1.332-3.1445 2.0625-5.0508 2.0625l-24.059-0.12109-17.426-0.070313c-2.543-2.8086-2.4961-7.1641 0.19141-9.8398 1.3438-1.332 3.1562-2.0898 5.0742-2.0625l24.047 0.12109 17.438 0.097657c2.5312 2.8164 2.4844 7.125-0.21484 9.8125zm14.207-14.195c-1.3555 1.332-3.1562 2.0898-5.0625 2.0898l-11.27-0.070313-0.046875-0.058594-12.684-0.058593-17.414-0.10156c-2.5547-2.8086-2.5078-7.1523 0.19141-9.8164 1.332-1.332 3.1445-2.0898 5.0625-2.0742l12.84 0.058594 0.070312 0.070313 11.062 0.070312 17.438 0.070312c2.5234 2.8242 2.4766 7.1211-0.1875 9.8203zm14.23-14.254c-1.3438 1.332-3.1328 2.0625-5.0508 2.0625l-24.07-0.12109-15.84-0.070313-0.070312-0.070312h-1.4297c-0.79297-0.88672-1.3203-1.9453-1.6211-3.0352l-0.12109-0.12109c-0.53906-2.3047 0.046875-4.8125 1.8359-6.625 1.3438-1.3438 3.1562-2.0898 5.0625-2.0898l24.059 0.12109 17.426 0.10938c2.5586 2.832 2.5117 7.1758-0.17969 9.8398zm14.27-14.246c-1.332 1.332-3.1445 2.0898-5.0391 2.0625l-24.086-0.10938-17.426-0.085938c-2.5312-2.8203-2.4844-7.1523 0.19141-9.8281 1.3555-1.3438 3.1562-2.0898 5.0742-2.0742l24.047 0.12109 17.426 0.097657c2.5234 2.8086 2.4766 7.1172-0.1875 9.8164zm14.172-14.207c-1.3438 1.3555-3.1445 2.0898-5.0625 2.0898l-11.258-0.070313-0.058594-0.046875-12.684-0.070312-17.398-0.070313c-2.543-2.832-2.5078-7.1641 0.19141-9.8398 1.3438-1.3438 3.1562-2.0898 5.0508-2.0625l12.84 0.046875 0.070312 0.070313 11.062 0.070312 17.449 0.085938c2.5352 2.8125 2.4844 7.1328-0.20312 9.7969zm11.27-38.398 17.449 0.085938c2.5312 2.8086 2.4844 7.1523-0.21484 9.8164-1.332 1.332-3.1445 2.0898-5.0391 2.0742l-24.07-0.10938-17.41-0.097656c-2.5547-2.8086-2.5078-7.1523 0.19141-9.8398 1.332-1.332 3.1445-2.0625 5.0508-2.0625zm59.938-32.773c-1.332 1.332-3.1445 2.0898-5.0508 2.0625l-24.059-0.097657-17.426-0.097656c-2.543-2.8086-2.4961-7.1523 0.20312-9.8398 1.332-1.332 3.1445-2.0898 5.0625-2.0625l24.047 0.12109 17.438 0.097656c2.5 2.8086 2.4883 7.1172-0.21484 9.8164zm28.441-28.453c-1.3438 1.3438-3.1562 2.0898-5.0508 2.0898l-24.059-0.12109-15.852-0.085938 2.3984 2.3984 11.074 0.058594 17.438 0.085937c2.5312 2.8203 2.4844 7.1523-0.21484 9.8281-1.332 1.3203-3.1445 2.0742-5.0391 2.0625l-11.258-0.046875-0.085938-0.070313-12.66-0.058593-17.438-0.097657c-2.5312-2.8086-2.4844-7.1523 0.20312-9.8164 1.3438-1.3438 3.1445-2.0898 5.0625-2.0898l12.852 0.085938-2.4102-2.3984-1.4297-0.011718c-0.79297-0.875-1.3086-1.9453-1.6094-3.0352l-0.13281-0.12109c-0.53906-2.3164 0.046875-4.8242 1.8477-6.6367 1.332-1.332 3.1445-2.0898 5.0625-2.0625l24.047 0.12109 17.438 0.097656c2.5508 2.8398 2.5039 7.1367-0.18359 9.8242zm14.258-14.254c-1.3438 1.332-3.1562 2.0898-5.0625 2.0742l-24.047-0.12109-17.438-0.085937c-2.5312-2.8203-2.4844-7.1523 0.20312-9.8281 1.3438-1.3438 3.1445-2.0898 5.0625-2.0742l24.047 0.12109 17.438 0.097656c2.5195 2.8203 2.4727 7.1172-0.20312 9.8164zm14.184-14.207c-1.3438 1.3438-3.1445 2.0898-5.0508 2.0898l-11.258-0.046875-0.070312-0.070313-12.672-0.070312-17.41-0.085938c-2.543-2.8203-2.5078-7.1523 0.20313-9.8281 1.332-1.332 3.1445-2.0898 5.0391-2.0625l12.84 0.046874 0.070312 0.070313 11.09 0.070313 17.438 0.085937c2.5273 2.8164 2.4805 7.1484-0.21875 9.8008zm28.5-28.5c-1.3438 1.3438-3.1445 2.0898-5.0508 2.0898l-24.059-0.12109-17.41-0.097656c-2.5547-2.8086-2.5078-7.1523 0.19141-9.8398 1.3438-1.3203 3.1445-2.0625 5.0625-2.0625l24.047 0.12109 17.438 0.10938c2.5273 2.8164 2.4805 7.1367-0.21875 9.8008zm14.207-14.176c-1.3555 1.3438-3.1562 2.0898-5.0625 2.0898l-11.281-0.070313-0.070312-0.058594-12.672-0.058593-17.398-0.097657c-2.5547-2.8086-2.5078-7.1523 0.19141-9.8281 1.332-1.3438 3.1445-2.0742 5.0508-2.0625l12.852 0.058593 0.070313 0.070313 11.062 0.070312 17.438 0.070313c2.5312 2.8242 2.4844 7.1289-0.17969 9.8164zm14.219-14.254c-1.332 1.332-3.1211 2.0898-5.0391 2.0742l-24.07-0.13281-15.828-0.070313-0.085937-0.070312h-1.4297c-0.79297-0.88672-1.3086-1.9453-1.6211-3.0469l-0.097656-0.10938c-0.53906-2.3047 0.046875-4.8125 1.8242-6.6484 1.332-1.3203 3.1445-2.0625 5.0508-2.0625l24.059 0.13281 17.426 0.097656c2.5625 2.8281 2.5117 7.1719-0.1875 9.8359zm14.281-14.246c-1.332 1.3438-3.1445 2.0898-5.0508 2.0898l-24.07-0.13281-17.41-0.085937c-2.543-2.8086-2.4961-7.1523 0.20312-9.8398 1.332-1.332 3.1445-2.0898 5.0625-2.0625l24.035 0.12109 17.426 0.097656c2.5156 2.8203 2.4688 7.125-0.19531 9.8125zm28.426-28.426c-1.332 1.332-3.1328 2.0898-5.0391 2.0625l-24.059-0.12109-15.852-0.085938 2.3984 2.3984 11.062 0.058594 17.438 0.097656c2.5312 2.8203 2.4844 7.1406-0.20312 9.8047-1.3438 1.3555-3.1445 2.1016-5.0625 2.0898l-11.258-0.058593 3.2383 3.2266-3.2891-3.2773-12.672-0.046875-17.41-0.097656c-2.5547-2.8086-2.5078-7.1641 0.19141-9.8398 1.3438-1.332 3.1445-2.0898 5.0625-2.0625l12.84 0.070313-2.3984-2.3984-1.4141-0.011718c-0.81641-0.88672-1.332-1.9453-1.6211-3.0352l-0.12109-0.13281c-0.53906-2.3047 0.046875-4.8125 1.8242-6.6133 1.3438-1.3555 3.1445-2.1016 5.0625-2.0898l24.047 0.14453 17.438 0.097656c2.5117 2.8125 2.4883 7.1211-0.20313 9.8203zm14.246-14.281c-1.332 1.3555-3.1445 2.0898-5.0391 2.0898l-24.07-0.12109-17.41-0.097656c-2.5312-2.8086-2.5078-7.1641 0.19141-9.8281 1.332-1.3438 3.1445-2.1016 5.0625-2.0742l24.047 0.12109 17.438 0.097656c2.5273 2.8047 2.4805 7.1484-0.21875 9.8125zm14.758-15c-2.3047 2.7617-3.5273 2.6641-5.6055 2.8789l-11.258-0.046875-0.070313-0.070313-12.672-0.058593-17.41-0.097657c-2.543-2.8203-2.5078-7.1641 0.20312-9.8281 1.332-1.3555 3.1445-2.0898 5.0391-2.0742l12.84 0.058593 0.070313 0.058594s5.1836 0.023438 11.062 0.058594c1.0781 0 2.125 0.011719 3.2031 0.011719 3.4805 0.14453 7.3438-0.80469 10.441-1.5859 3.0117-0.86328 4.8477-1.9453 4.8477-1.9453 3.332 2.082 3.5352 7.9844-0.69141 12.641zm9.375-21.852s-2.4492 2.3047-6.1328 4.8008c-4.1289 2.3398-9.2148 4.7539-14.605 5.2305-1.3086 0.19141-2.6055 0.14453-3.9102 0.19141-3.5625 0.12109-7.0312 0-9.7578 0.10937-3.7422-0.011718-6.2266-0.023437-6.2266-0.023437l-0.070312-0.058594h-1.4531c-0.79297-0.88672-1.3086-1.9453-1.5977-3.0352l-2.6055-2.5938c-0.15625 1.9219 0.25391 3.8867 1.2617 5.6172l-6.0977-0.023437c-2.5547-0.011719-4.9453 0.97266-6.7422 2.7617-3.1094 3.1094-3.5508 7.8477-1.4141 11.52l-6.0977-0.035156c-2.5547-0.011719-4.9453 0.97266-6.7422 2.7617-3.1211 3.0977-3.5625 7.8359-1.4297 11.508l-6.0977-0.023438c-2.5547-0.023437-4.9453 0.96094-6.7422 2.7461-1.6094 1.6211-2.4844 3.6719-2.6758 5.7734l0.058594 0.070312c-0.15625 1.9219 0.25391 3.8867 1.2461 5.6172l-6.0977-0.035156c-2.5547-0.011719-4.9453 0.96094-6.7422 2.7617-3.1211 3.0977-3.5625 7.8477-1.4023 11.508l-6.1211-0.023438c-2.5312-0.023437-4.9219 0.96094-6.7422 2.7461-3.1094 3.1211-3.5508 7.8594-1.4141 11.52l-6.0977-0.023437c-2.5547-0.011719-4.9453 0.96094-6.7422 2.7617-1.6211 1.5977-2.4844 3.6602-2.6875 5.7617l0.058594 0.058594c-0.14453 1.9219 0.26562 3.875 1.2734 5.6172l-6.0156 0.015624c-2.5547-0.023437-4.9336 0.96094-6.7422 2.7461-3.1094 3.1211-3.5508 7.8477-1.4023 11.508l-6.0977-0.023438c-2.5664 0-4.9453 0.96094-6.7422 2.7617-3.1211 3.1211-3.5625 7.8477-1.4141 11.531l-6.0977-0.046875c-2.5664-0.011719-4.9453 0.97266-6.7422 2.7617-1.6328 1.6211-2.5078 3.6719-2.6992 5.7852l2.543 2.5312c-0.55078-2.3164 0.035156-4.8242 1.8359-6.6367 1.332-1.332 3.1445-2.0898 5.0508-2.0742l24.047 0.12109 17.426 0.10938c2.543 2.8086 2.4844 7.1289-0.19141 9.8047-1.3555 1.3438-3.1562 2.0898-5.0625 2.0742l-24.059-0.12109-15.828-0.070313-0.070313-0.070312h-1.4531c-0.79297-0.88672-1.3086-1.9453-1.6094-3.0469l-2.5938-2.5781c-0.16797 1.9062 0.25391 3.8633 1.2617 5.6055l-6.0977-0.023438c-2.5664-0.023438-4.9453 0.96094-6.7422 2.7461-3.1211 3.1094-3.5625 7.8359-1.4141 11.52l-6.0977-0.035156c-2.5664-0.011719-4.9453 0.97266-6.7422 2.7461-3.1328 3.1211-3.5625 7.8477-1.4297 11.531l-6.0977-0.046874c-2.5547 0-4.9453 0.98437-6.7422 2.7617-1.6211 1.6211-2.4844 3.6836-2.6758 5.7852l0.046875 0.046876c-0.14453 1.9219 0.25391 3.8867 1.2617 5.6289l-6.0977-0.035156c-2.5547-0.011719-4.9453 0.97266-6.7422 2.7461-3.1211 3.1211-3.5625 7.8477-1.4023 11.531l-6.1211-0.046875c-2.5312 0-4.9219 0.98438-6.7422 2.7617-3.1094 3.1094-3.5508 7.8477-1.4141 11.52l-6.0977-0.023437c-2.5547-0.023438-4.9453 0.96094-6.7422 2.7461-1.6211 1.6211-2.4844 3.6836-2.6875 5.7734l0.058594 0.058594c-0.14453 1.9219 0.25391 3.8867 1.2617 5.6289l-6.0977-0.023438c-2.5547-0.035156-4.9453 0.94922-6.7422 2.7461-3.1211 3.1211-3.5508 7.8477-1.4141 11.508l-6.0977-0.023438c-2.5547 0-4.9453 0.96094-6.7422 2.7617-3.1211 3.1211-3.5625 7.8477-1.4297 11.508l-6.0977-0.023437c-2.5547-0.011719-4.9453 0.97266-6.7422 2.7617-1.6328 1.6094-2.4961 3.6719-2.6875 5.7617l2.5312 2.5547c-0.53906-2.3164 0.046875-4.8242 1.8477-6.6367 1.3203-1.332 3.1445-2.0898 5.0391-2.0742l24.047 0.13281 17.438 0.097656c2.5312 2.7969 2.5078 7.1289-0.20312 9.8047-1.3203 1.3438-3.1328 2.0742-5.0391 2.0742l-24.07-0.12109-15.84-0.070313-0.070312-0.070312h-1.4414c-0.79297-0.89844-1.3086-1.9453-1.6094-3.0469l-2.5938-2.5781c-0.16797 1.8945 0.25391 3.8633 1.2461 5.6055l-6.0977-0.023438c-2.5547-0.023438-4.9453 0.96094-6.7422 2.7461-3.1211 3.1094-3.5625 7.8477-1.4297 11.508l-6.0977-0.023437c-2.5547-0.011719-4.9453 0.97266-6.7422 2.7461-3.1211 3.1211-3.5625 7.8477-1.4141 11.531l-6.1094-0.046874c-2.543 0-4.9336 0.98437-6.7422 2.7617-1.6211 1.6211-2.4844 3.6836-2.6875 5.7852l0.058594 0.058594c-0.15625 1.9062 0.25391 3.875 1.2617 5.6055l-6.0977-0.023437c-2.5547-0.011719-4.9453 0.97266-6.7422 2.7461-3.1094 3.1211-3.5508 7.8477-1.4023 11.531l-6.1094-0.046875c-2.543 0-4.9453 0.98438-6.7422 2.7617-3.1211 3.1094-3.5625 7.8477-1.4297 11.52l-6.0977-0.023437c-2.5547-0.023438-4.9453 0.96094-6.7422 2.7461-1.6211 1.6211-2.4961 3.6836-2.6875 5.7734l0.058594 0.058594c-0.15625 1.9219 0.26562 3.8867 1.2734 5.6289l-6.1211-0.046875c-2.5547 0-4.9453 0.98438-6.7422 2.7617-3.0977 3.1094-3.5391 7.8477-1.4023 11.52l-6.0977-0.023437c-2.5547-0.035157-4.9453 0.94922-6.7422 2.7461-3.1094 3.1211-3.5508 7.8477-1.4023 11.508l-6.1094-0.023438c-2.5547 0-4.9453 0.96094-6.7422 2.7617-1.6211 1.6094-2.5078 3.6719-2.6992 5.7617l0.070312 0.070312c0.38281 1.1758 1.1055 2.7461 2.1133 4.4297-0.14453 0.070312-4.1055-2.0625-4.0781-2.3164-1.6797-1.4023-2.4609-1.5977-3.2891-1.5703-1.1172 0.49219-1.9336 3.4453-2.4844 7.6914-0.17969 0.19141-2.0742-4.4414-1.8828-4.4297-0.58984-1.7383-1.043-2.9023-1.7539-3.2148-1.1523-0.27734-3.6133 1.7266-6.5391 4.7383-0.10938-0.14453 1.0664-4.8008 1.1641-4.6562 0.13281-0.46875 0.33594-0.74219 0.3125-1.2344-0.12109-0.625-0.28906-1.2227-0.52734-1.7773-0.46875-1.1523-1.1641-2.207-2.0625-3.0977-1.6094-1.6211-3.6719-2.4844-5.7852-2.6758l-2.543 2.5312c2.3164-0.53906 4.8359 0.046875 6.625 1.8359 1.3438 1.3438 2.0898 3.1562 2.0742 5.0508 0.42188-0.023438-3.3945 7.8359 0.94922 17.461 0.44531 1.0781 1.2109 1.9805 1.8125 2.9766 2.0156 3.3945 4.5469 6.4805 7.2109 8.7852 3.3828 2.6172 6.2891 4.1055 6.2891 4.1055 0.37109 3.5391-4.2227 7.8477-10.43 6.9961-3.0703-0.25391-5.8086-1.3555-7.4766-3.3594 0 0-2.3164-2.4492-4.8008-6.1328-2.3398-4.1406-4.7539-9.2031-5.2305-14.594-0.19141-1.3203-0.14453-2.6289-0.19141-3.9375-0.12109-3.5625 0-7.0312-0.10938-9.7422 0.023438-3.7305 0.035156-6.2148 0.035156-6.2383l0.058594-0.070312v-1.4297c0.88672-0.80469 1.9453-1.3203 3.0352-1.6211l2.5938-2.5781c-1.9219-0.16797-3.8867 0.25391-5.6055 1.2461l0.023437-6.1094c0.011719-2.5547-0.97266-4.9336-2.7617-6.7422-3.1094-3.1094-7.8594-3.5508-11.52-1.4141l0.023437-6.0977c0.011719-2.5547-0.97266-4.9453-2.7617-6.7422-3.1094-3.0977-7.8594-3.5391-11.52-1.4023l0.023438-6.0977c0.011719-2.5547-0.97266-4.9453-2.7617-6.7422-1.6094-1.6211-3.6719-2.4961-5.7852-2.6875l-0.058594 0.058594c-1.9219-0.16797-3.8867 0.25391-5.6172 1.2617l0.023437-6.0977c0.011719-2.5664-0.97266-4.9453-2.7617-6.7422-3.1094-3.1211-7.8594-3.5625-11.52-1.4141l0.035157-6.1094c0.011718-2.5547-0.97266-4.9336-2.7617-6.7305-3.1094-3.1328-7.8594-3.5742-11.52-1.4297l0.023437-6.1094c0.011719-2.543-0.97266-4.9336-2.7617-6.7422-1.6211-1.6211-3.6719-2.4844-5.7852-2.6758l-0.058594 0.046875c-1.9219-0.15625-3.8867 0.25391-5.6172 1.2617l0.023437-6.0977c0.011719-2.5547-0.96094-4.9453-2.7617-6.7422-3.1094-3.1211-7.8594-3.5625-11.52-1.4297l0.023438-6.0977c0.011718-2.543-0.97266-4.9219-2.7617-6.7422-3.1094-3.1094-7.8477-3.5508-11.52-1.4141l0.023437-6.0977c0.011719-2.5547-0.96094-4.9453-2.7617-6.7422-1.6094-1.6094-3.6719-2.4844-5.7852-2.6875l-2.543 2.543c2.3164-0.53906 4.8359 0.046874 6.625 1.8242 1.3438 1.3555 2.0898 3.1562 2.0742 5.0625l0.10938 24.301-0.097656 17.438c-2.8203 2.5312-7.1406 2.4844-9.8164-0.20313-1.3438-1.3438-2.0742-3.1562-2.0742-5.0508l0.12109-24.07 0.070312-15.84 0.058594-0.070313v-1.4297c0.88672-0.79297 1.9453-1.3086 3.0352-1.6211l2.5938-2.5781c-1.9219-0.15625-3.8867 0.25391-5.6172 1.2617l0.023437-6.1094c0.011719-2.543-0.97266-4.9336-2.7617-6.7422-3.1094-3.1211-7.8594-3.5625-11.52-1.4297l0.023438-6.0977c0.011718-2.5547-0.97266-4.9453-2.7617-6.7422-3.1094-3.1094-7.8594-3.5508-11.52-1.4141l0.023437-6.0977c0.011719-2.5547-0.97266-4.9453-2.7617-6.7422-1.6094-1.6211-3.6719-2.4844-5.7852-2.6875l-0.058594 0.058594c-1.9219-0.16797-3.8867 0.25391-5.6172 1.2617l0.023437-6.0977c0.011719-2.5547-0.97266-4.9453-2.7617-6.7422-3.1094-3.1211-7.8594-3.5625-11.52-1.4141l0.035157-6.0977c0.011719-2.5664-0.97266-4.9453-2.7617-6.7422-3.1094-3.1211-7.8594-3.5625-11.52-1.4297l0.023437-6.0977c0.011719-2.5547-0.97266-4.9453-2.7617-6.7422-1.6211-1.6328-3.6719-2.4961-5.7852-2.6875l-2.5312 2.5312c2.3164-0.53906 4.8359 0.046875 6.625 1.8242 1.3438 1.3438 2.0742 3.1445 2.0625 5.0625l-0.12109 24.047-0.097657 17.438c-2.8203 2.5312-7.1406 2.4844-9.8281-0.21484-1.3438-1.3438-2.0742-3.1445-2.0625-5.0625l0.12109-24.047 0.085938-15.84 0.058593-0.058594v-1.4414c0.89844-0.79297 1.9453-1.3086 3.0352-1.6211l2.5938-2.5781c-1.9219-0.16797-3.8867 0.25391-5.6172 1.2461l0.023438-6.0977c0.011718-2.5547-0.96094-4.9453-2.7617-6.7422-3.1094-3.1211-7.8594-3.5625-11.52-1.4297l0.023437-6.0977c0.011719-2.5547-0.97266-4.9453-2.7617-6.7422-3.1094-3.1094-7.8477-3.5508-11.52-1.4141l0.023437-6.1094c0.011719-2.543-0.96094-4.9336-2.7617-6.7422-1.6094-1.6211-3.6719-2.4844-5.7852-2.6875l-0.058594 0.058594c-1.9219-0.15625-3.8867 0.25391-5.6172 1.2617l0.023438-6.0977c0.011718-2.5547-0.97266-4.9453-2.7617-6.7422-3.1094-3.1211-7.8594-3.5508-11.52-1.4141l0.023437-6.0977c0.011719-2.5547-0.97266-4.9453-2.7617-6.7422-3.1094-3.1211-7.8594-3.5625-11.52-1.4297l0.023438-6.0977c0.011719-2.5312-0.97266-4.9219-2.7617-6.7422-1.6094-1.6094-3.6719-2.4844-5.7852-2.6875l-0.058594 0.046875c-1.9219-0.14453-3.8867 0.27734-5.6172 1.2852l0.023438-6.1211c0.011719-2.543-0.97266-4.9336-2.7617-6.7422-3.1094-3.0977-7.8594-3.5391-11.52-1.4023l0.023438-6.0977c0.011718-2.5547-0.97266-4.9453-2.7617-6.7422-3.1094-3.1094-7.8594-3.5508-11.52-1.4141l0.22656-5.6953c0.011719-2.5664-0.97266-4.9453-2.7617-6.7422-1.6211-1.6211-3.6719-2.4961-5.7852-2.6992l-2.5312 2.5547c2.3164-0.53906 4.8359 0.046876 6.625 1.8242 1.3438 1.3438 2.0742 3.1445 2.0625 5.0625l-0.12109 24.047-0.085937 17.438c-2.8203 2.5312-7.1406 2.4727-9.8281-0.21484-1.3438-1.3438-2.0742-3.1445-2.0742-5.0625l0.12109-24.047 0.085937-15.852 0.058594-0.058594v-1.4414c0.88672-0.80469 1.9453-1.3203 3.0352-1.6094l2.5938-2.6055c-1.9219-0.15625-3.8867 0.26562-5.6055 1.2617l0.023438-6.0977c0.011719-2.5547-0.96094-4.9453-2.7617-6.7422-3.1094-3.1094-7.8594-3.5391-11.52-1.4023l0.023438-6.0977c0.011718-2.5547-0.97266-4.9453-2.7617-6.7422-3.1094-3.1094-7.8477-3.5508-11.52-1.4141l0.035156-6.0977c0.011718-2.5547-0.97266-4.9453-2.7617-6.7422-1.6094-1.6211-3.6719-2.4961-5.7852-2.6875l-2.543 2.543c2.3164-0.53906 4.8359 0.035157 6.625 1.8359 1.3438 1.3438 2.0898 3.1445 2.0742 5.0508l-0.12109 24.047-0.097656 17.426c-2.8203 2.543-7.1406 2.4844-9.8281-0.19141-1.3438-1.3555-2.0742-3.1562-2.0625-5.0625l0.12109-24.059 0.070312-15.852 0.058594-0.058594 0.35938-1.2227c0.89844-0.78125 1.8359-1.3789 2.6875-1.8242l2.5938-2.5938c-1.1758 0.39453-2.7461 1.1172-4.4297 2.1133-0.070312-0.15625 2.0391-4.1055 2.3164-4.0664 1.4141-1.6797 1.5859-2.4844 1.5586-3.3008-0.50391-1.1172-3.4453-1.9453-7.6797-2.4961-0.19141-0.16797 4.4414-2.0625 4.4297-1.8945 1.7383-0.58984 2.9023-1.043 3.2148-1.7656 0.28906-1.1055-1.7266-3.5547-4.7383-6.5039 0.14453-0.10937 4.8008 1.0664 4.6562 1.1641 0.46875 0.14453 0.74219 0.33594 1.2344 0.3125 0.61328-0.12109 1.2109-0.28906 1.7773-0.52734 1.1406-0.46875 2.1953-1.1641 3.0859-2.0625 1.6094-1.6094 2.4961-3.6719 2.6875-5.7852l-0.058594-0.058594c0.14453-1.9219-0.26562-3.8867-1.2734-5.6172l6.0977 0.023437c2.543 0.011719 4.9453-0.97266 6.7422-2.7617 3.1094-3.1094 3.5508-7.8594 1.4141-11.52l6.0977 0.023438c2.5547 0.011719 4.9453-0.97266 6.7422-2.7617 3.1094-3.1094 3.5508-7.8594 1.4141-11.52l6.0977 0.023437c2.543 0.011719 4.9453-0.97266 6.7422-2.7617 1.6094-1.6211 2.4961-3.6719 2.6758-5.7852l-0.058594-0.058593c0.15625-1.9219-0.25391-3.8867-1.2617-5.6055l6.0977 0.023437c2.5547 0.011719 4.9453-0.97266 6.7422-2.7617 3.1094-3.1094 3.5508-7.8594 1.4141-11.52l6.0977 0.023438c2.543 0.011718 4.9453-0.97266 6.7422-2.7617 3.1094-3.1094 3.5508-7.8594 1.4141-11.52l6.0977 0.023437c2.5547 0.011719 4.9453-0.97266 6.7422-2.7617 1.6211-1.6094 2.4961-3.6719 2.6875-5.7852l-0.058594-0.058594c0.14453-1.9219-0.26562-3.8867-1.2734-5.6172l6.0977 0.023437c2.543 0.011719 4.9453-0.97266 6.7422-2.7617 3.1094-3.1094 3.5508-7.8594 1.4141-11.52l6.0977 0.023438c2.5547 0.011719 4.9453-0.97266 6.7422-2.7461 3.1094-3.1094 3.5508-7.8594 1.4141-11.52l6.0977 0.023437c2.543 0.011719 4.9453-0.97266 6.7422-2.7617 1.6094-1.6094 2.4961-3.6719 2.6875-5.7852l-0.058594-0.058594c0.15625-1.9219-0.25391-3.875-1.2617-5.6055l6.0977 0.023437c2.543 0.011719 4.9453-0.97266 6.7422-2.7617 3.1094-3.1094 3.5508-7.8594 1.4141-11.52l6.0977 0.023438c2.543 0.011719 4.9453-0.97266 6.7422-2.7617 3.1094-3.1094 3.5508-7.8594 1.4141-11.52l6.0977 0.023438c2.5547 0.011718 4.9453-0.97266 6.7422-2.7617 1.6094-1.6094 2.4961-3.6719 2.6758-5.7852l-0.058594-0.058593c0.15625-1.9219-0.26562-3.8867-1.2617-5.6172l6.0977 0.023438c2.543 0.011719 4.9453-0.97266 6.7422-2.7617 3.1094-3.1094 3.5508-7.8594 1.4141-11.52l6.0977 0.023437c2.5547 0.011719 4.9453-0.97266 6.7422-2.7617 3.1094-3.1094 3.5508-7.8477 1.4141-11.52l6.0977 0.023438c2.543 0.011718 4.9453-0.97266 6.7422-2.7617 1.6094-1.6094 2.4961-3.6719 2.6875-5.7852l-2.543-2.5312c0.53906 2.3164-0.035156 4.8359-1.8359 6.625-1.3438 1.3438-3.1445 2.0898-5.0508 2.0742l-24.047-0.12109-17.438-0.085938c-2.5312-2.8203-2.4961-7.1406 0.19141-9.8281 1.3438-1.3438 3.1445-2.0742 5.0508-2.0625l24.059 0.10938 15.852 0.070313 0.058594 0.058593h1.4414c0.80469 0.88672 1.3203 1.9453 1.6094 3.0352l2.5938 2.5938c0.14453-1.9219-0.26562-3.8867-1.2734-5.6055l6.0977 0.023438c2.543 0.011718 4.9453-0.97266 6.7422-2.7617 3.1094-3.1094 3.5508-7.8594 1.4141-11.52l6.0977 0.023437c2.543 0.011719 4.9453-0.97266 6.7422-2.7617 3.1094-3.1094 3.5508-7.8594 1.4141-11.52l6.0977 0.023437c2.543 0.011719 4.9453-0.97266 6.7422-2.7617 1.6094-1.6094 2.4961-3.6719 2.6758-5.7852l-0.058594-0.058594c0.15625-1.9219-0.25391-3.8867-1.2617-5.6172l6.0977 0.023438c2.5547 0.011718 4.9453-0.97266 6.7422-2.7617 3.1094-3.1094 3.5508-7.8594 1.4141-11.52l6.0977 0.023437c2.543 0.011719 4.9453-0.97266 6.7422-2.7617 3.1094-3.1094 3.5508-7.8477 1.4141-11.52l6.0977 0.023438c2.543 0.011719 4.9453-0.97266 6.7422-2.7617 1.6094-1.6094 2.4961-3.6719 2.6875-5.7852l-2.5117-2.5117c0.53906 2.3164-0.035156 4.8359-1.8359 6.625-1.3438 1.3438-3.1445 2.0898-5.0508 2.0742l-24.047-0.12109-17.438-0.085938c-2.5312-2.8203-2.4961-7.1406 0.19141-9.8281 1.3438-1.3438 3.1445-2.0742 5.0508-2.0625l24.059 0.10937 15.852 0.070313 0.058594 0.058594h1.4414c0.80469 0.89844 1.3203 1.9453 1.6094 3.0352l2.5938 2.5938c0.14453-1.9219-0.26562-3.8867-1.2734-5.6172l6.0977 0.023437c2.543 0.011719 4.9453-0.97266 6.7422-2.7617 3.1094-3.1094 3.5508-7.8477 1.4141-11.52l6.0977 0.035156c2.5547 0.011719 4.9453-0.97266 6.7422-2.7461 3.1094-3.1094 3.5508-7.8594 1.4141-11.52l6.0977 0.023438c2.543 0.011718 4.9453-0.97266 6.7422-2.7617 1.6094-1.6094 2.4961-3.6719 2.6758-5.7852l-0.058594-0.058594c0.15625-1.9219-0.25391-3.8867-1.2617-5.6055l6.0977 0.023438c2.5547 0.011718 4.9453-0.97266 6.7422-2.7617 3.1094-3.1094 3.5508-7.8594 1.4141-11.52l6.0977 0.023437c2.543 0.011719 4.9453-0.97266 6.7422-2.7617 3.1094-3.1094 3.5508-7.8477 1.4141-11.508l6.0977 0.023438c2.5547 0.011718 4.9453-0.97266 6.7422-2.7617 1.6211-1.6094 2.4961-3.6719 2.6875-5.7852l-0.058594-0.058593c-0.39453-1.1758-1.1172-2.7617-2.1133-4.4297 0.15625-0.070312 4.0938 2.0391 4.0664 2.3164 1.6797 1.4141 2.4844 1.5859 3.3008 1.5586 1.1172-0.50391 1.9336-3.4453 2.4961-7.6797 0.16797-0.19141 2.0625 4.4414 1.8945 4.4297 0.58984 1.7383 1.0312 2.9023 1.7539 3.2148 1.1641 0.28906 3.625-1.7266 6.5508-4.7383 0.12109 0.14453-1.0664 4.8008-1.1758 4.6562-0.14453 0.46875-0.33594 0.74219-0.30078 1.2344 0.12109 0.61328 0.28906 1.2109 0.53906 1.7773 0.45703 1.1406 1.1523 2.1953 2.0625 3.0859 1.6211 1.6094 3.6602 2.4961 5.7734 2.6875l2.5312-2.543c-2.3047 0.53906-4.8125-0.035156-6.625-1.8359-1.3438-1.3438-2.0898-3.1445-2.0898-5.0508-0.40625 0.023438 3.3945-7.8359-0.9375-17.461-0.44531-1.0781-1.2227-1.9805-1.8008-2.9766-2.0273-3.3945-4.5859-6.4805-7.2227-8.7852-3.3945-2.6055-6.2891-4.1055-6.2891-4.1055-0.35937-3.5391 4.2109-7.8477 10.43-6.9961 3.0586 0.25391 5.7969 1.3555 7.4531 3.3711 0 0 2.3047 2.4492 4.7891 6.1211 2.3398 4.1289 4.7539 9.2031 5.2422 14.594 0.20312 1.3203 0.15625 2.6055 0.20312 3.9258 0.14453 3.5742 0 7.043 0.12109 9.7695-0.023438 3.7422-0.046875 6.2383-0.046875 6.2383l-0.046875 0.058594-0.023438 1.4414c-0.88672 0.80469-1.9453 1.3203-3.0234 1.6094l-2.6055 2.5938c1.9219 0.14453 3.875-0.26562 5.6289-1.2734l-0.046875 6.0977c-0.011719 2.543 0.96094 4.9453 2.7617 6.7422 3.1094 3.1094 7.8477 3.5508 11.52 1.4141l-0.035156 6.0977c-0.023437 2.5547 0.96094 4.9453 2.7617 6.7422 3.0977 3.1094 7.8359 3.5508 11.508 1.4141l-0.035156 6.0977c-0.011719 2.543 0.97266 4.9453 2.7461 6.7422 1.6328 1.6094 3.6836 2.4961 5.7852 2.6758l0.070312-0.058594c1.9219 0.15625 3.875-0.25391 5.6055-1.2617l-0.023437 6.0977c-0.023438 2.5547 0.96094 4.9453 2.7461 6.7422 3.1094 3.1094 7.8477 3.5508 11.52 1.4297l-0.035157 6.0977c-0.011718 2.543 0.97266 4.9453 2.7461 6.7422 3.1211 3.1094 7.8711 3.5508 11.531 1.4141l0.015625 6.1016c-0.023437 2.5547 0.96094 4.9453 2.7461 6.7422 1.6094 1.6211 3.6719 2.4961 5.7734 2.6875l0.058594-0.058594c1.9062 0.15625 3.875-0.26562 5.6172-1.2617l-0.023438 6.0977c-0.023437 2.543 0.96094 4.9453 2.7461 6.7422 3.1211 3.1094 7.8594 3.5508 11.531 1.4141l-0.023438 6.0977c-0.023437 2.5547 0.96094 4.9453 2.7461 6.7422 3.1094 3.1094 7.8359 3.5508 11.52 1.4141l-0.035157 6.0977c-0.011719 2.543 0.97266 4.9453 2.7461 6.7422 1.6211 1.6094 3.6836 2.4961 5.7852 2.6875l2.5312-2.543c-2.293 0.53906-4.8242-0.035156-6.625-1.8359-1.3438-1.3438-2.1016-3.1445-2.0742-5.0508l0.12109-24.047 0.097656-17.438c2.8086-2.5312 7.1523-2.4844 9.8281 0.20312 1.3203 1.3438 2.0742 3.1445 2.0625 5.0508l-0.13281 24.059-0.070313 15.84-0.070312 0.070312v1.4414c-0.88672 0.80469-1.9453 1.3203-3.0234 1.6094l-2.6055 2.5938c1.9062 0.14453 3.875-0.26562 5.6055-1.2734l-0.023437 6.0977c0 2.543 0.96094 4.9453 2.7617 6.7422 3.1094 3.1094 7.8477 3.5508 11.52 1.4141l-0.035156 6.0977c-0.023438 2.543 0.96094 4.9453 2.7617 6.7422 3.0977 3.1094 7.8359 3.5508 11.508 1.4141l-0.023438 6.0977c-0.023437 2.543 0.96094 4.9453 2.7461 6.7422 1.6211 1.6094 3.6719 2.4961 5.7734 2.6758l0.070312-0.058594c1.9219 0.15625 3.875-0.25391 5.6055-1.2617l-0.023437 6.0977c-0.023438 2.5547 0.96094 4.9453 2.7461 6.7422 3.1094 3.1094 7.8477 3.5508 11.52 1.4141l-0.035156 6.0977c-0.011718 2.543 0.97266 4.9453 2.7461 6.7422 3.1211 3.1094 7.8711 3.5508 11.531 1.4141l-0.023438 6.0977c-0.023437 2.5547 0.96094 4.9453 2.7461 6.7422 1.6211 1.6211 3.6836 2.4961 5.7852 2.6875l0.058594-0.058594c1.9062 0.14453 3.875-0.26562 5.6172-1.2734l-0.023438 6.0977c-0.023437 2.543 0.96094 4.9453 2.7461 6.7422 3.1211 3.1094 7.8594 3.5508 11.531 1.4141l0.011719 6.0547c0 2.5547 0.96094 4.9453 2.7617 6.7422 3.1094 3.1094 7.8477 3.5508 11.508 1.4141l-0.023438 6.0977c-0.011718 2.543 0.96094 4.9453 2.7617 6.7422 1.5977 1.6094 3.6719 2.4961 5.7617 2.6875l0.070312-0.058594c1.9062 0.15625 3.875-0.25391 5.6055-1.2617l-0.023437 6.0977c0 2.543 0.96094 4.9453 2.7617 6.7422 3.1094 3.1094 7.8477 3.5508 11.52 1.4141l-0.035156 6.0977c-0.011719 2.543 0.97266 4.9453 2.7617 6.7422 3.0977 3.1094 7.8359 3.5508 11.508 1.4141l-0.023438 6.0977c-0.023437 2.5547 0.96094 4.9453 2.7461 6.7422 1.6211 1.6094 3.6719 2.4961 5.7734 2.6758l0.070313-0.058594c1.9219 0.15625 3.8633-0.26562 5.6172-1.2617l-0.035156 6.0977c-0.023437 2.543 0.96094 4.9453 2.7461 6.7422 3.1094 3.1094 7.8477 3.5508 11.52 1.4141l-0.035156 6.0977c-0.011719 2.5547 0.97266 4.9453 2.7461 6.7422 3.1211 3.1094 7.8711 3.5508 11.531 1.4141l-0.023438 6.0977c-0.023437 2.543 0.96094 4.9453 2.7461 6.7422 1.6211 1.6094 3.6836 2.4961 5.7852 2.6875l0.058594-0.058593c1.9062 0.14453 3.875-0.26562 5.6172-1.2734l-0.035156 6.0977c-0.011718 2.543 0.97266 4.9453 2.7461 6.7422 3.1211 3.1094 7.8711 3.5508 11.531 1.4141l-0.023438 6.0977c-0.023437 2.5547 0.96094 4.9453 2.7461 6.7422 3.1211 3.1094 7.8594 3.5508 11.52 1.4141l-0.023438 6.0977c-0.011719 2.543 0.96094 4.9453 2.7461 6.7422 1.6211 1.6094 3.6836 2.4961 5.7734 2.6758l0.058594-0.058594c1.1758-0.39453 2.7461-1.1055 4.4297-2.1133 0.070313 0.15625-2.0508 4.1055-2.3164 4.0664-1.4023 1.6797-1.5703 2.4844-1.5469 3.3008 0.49219 1.1172 3.4219 1.9336 7.668 2.4844 0.20312 0.16797-4.4297 2.0625-4.4141 1.8945-1.7539 0.58984-2.9023 1.043-3.2266 1.7539-0.26562 1.1641 1.7383 3.6133 4.7539 6.5625-0.15625 0.10938-4.7891-1.0664-4.6562-1.1641-0.46875-0.13281-0.74219-0.33594-1.2461-0.3125-0.61328 0.12109-1.2227 0.28906-1.7773 0.52734-1.1289 0.46875-2.1953 1.1641-3.0703 2.0625-1.6328 1.6094-2.5078 3.6719-2.6992 5.7852l2.543 2.543c-0.55078-2.3164 0.035157-4.8359 1.8359-6.625 1.332-1.3438 3.1445-2.0898 5.0508-2.0742-0.035156-0.40625 7.8359 3.3945 17.461-0.96094 1.0781-0.44531 1.9805-1.2109 2.9648-1.8125 3.3945-2.0156 6.4922-4.5586 8.7852-7.2109 2.6289-3.3945 4.1055-6.2891 4.1055-6.2891 3.5391-0.37109 7.8477 4.1992 7.0078 10.43-0.13281 3.0586-1.2461 5.793-3.25 7.4375z" fill="#fff"/>
</svg>
