<svg id="logo_hor_white_exp" xmlns="http://www.w3.org/2000/svg" xmlns:xlink="http://www.w3.org/1999/xlink" width="536.104" height="157.062" viewBox="0 0 536.104 157.062">
  <defs>
    <clipPath id="clipPath">
      <rect id="Rectangle_117" data-name="Rectangle 117" width="536.104" height="157.062" fill="none"/>
    </clipPath>
  </defs>
  <g id="Group_150" data-name="Group 150" transform="translate(0 0)" clipPath="url(#clipPath)">
    <path id="Path_361" data-name="Path 361" d="M0,128.088H75.034V53.054A75.034,75.034,0,0,0,0,128.088" transform="translate(0 28.677)" fill="#fff"/>
    <path id="Path_362" data-name="Path 362" d="M53.092,128.088h0a75.034,75.034,0,0,0,75.034-75.034H53.092Z" transform="translate(28.697 28.677)" fill="#fff"/>
    <path id="Path_363" data-name="Path 363" d="M128.126,0l-.491,0V.012A75.026,75.026,0,0,0,53.092,75.034h75.034v0C128.126,22.77,171.157,0,171.157,0Z" transform="translate(28.697 0)" fill="#fff"/>
    <path id="Path_364" data-name="Path 364" d="M154.606,84.685h5.623l-9.661,26.338h-6.415l-9.659-26.338h5.66l7.245,20.943Z" transform="translate(72.696 45.774)" fill="#fff"/>
    <rect id="Rectangle_116" data-name="Rectangle 116" width="5.282" height="26.338" transform="translate(236.09 130.459)" fill="#fff"/>
    <path id="Path_365" data-name="Path 365" d="M175.345,88.963h-10v6.6h8.867v4.187h-8.867v6.983h10v4.3H160.063V84.661h15.282Z" transform="translate(86.516 45.76)" fill="#fff"/>
    <path id="Path_366" data-name="Path 366" d="M171.94,84.685h5.66l4.642,20.452L187.6,84.685h5.886l5.058,20.338,4.679-20.338h5.7l-7.357,26.338h-6.227l-4.942-18.754-5.17,18.754-6.188.039Z" transform="translate(92.936 45.774)" fill="#fff"/>
    <path id="Path_367" data-name="Path 367" d="M207.5,111.42c-5.472,0-9.7-2.868-9.773-7.849h5.658c.152,2.114,1.548,3.509,4,3.509,2.491,0,3.962-1.32,3.962-3.207,0-5.7-13.584-2.265-13.546-11.811,0-4.754,3.848-7.621,9.283-7.621,5.395,0,9.092,2.753,9.433,7.507h-5.811c-.112-1.735-1.51-3.092-3.774-3.13-2.075-.075-3.622.943-3.622,3.095,0,5.282,13.509,2.339,13.509,11.622,0,4.15-3.321,7.886-9.32,7.886" transform="translate(106.875 45.642)" fill="#fff"/>
    <path id="Path_368" data-name="Path 368" d="M231.587,111.42a13.49,13.49,0,1,1,13.472-13.509,13.236,13.236,0,0,1-13.472,13.509m0-4.717c4.756,0,8.038-3.434,8.038-8.792s-3.283-8.716-8.038-8.716c-4.793,0-8.075,3.358-8.075,8.716s3.283,8.792,8.075,8.792" transform="translate(117.876 45.642)" fill="#fff"/>
    <path id="Path_369" data-name="Path 369" d="M260.665,84.661v26.377h-5.282L243.421,92.963v18.075h-5.284V84.661h5.284l11.962,18.113V84.661Z" transform="translate(128.717 45.761)" fill="#fff"/>
    <path id="Path_370" data-name="Path 370" d="M261.06,84.685h19.32V88.95h-7.02v22.074h-5.281V88.95H261.06Z" transform="translate(141.107 45.774)" fill="#fff"/>
    <path id="Path_371" data-name="Path 371" d="M292.662,99.816H281.379v11.207H276.1V84.686h5.282v10.83h11.283V84.686h5.282v26.338h-5.282Z" transform="translate(149.235 45.774)" fill="#fff"/>
    <path id="Path_372" data-name="Path 372" d="M308.939,88.963h-10v6.6h8.867v4.187H298.94v6.983h10v4.3H293.656V84.661h15.284Z" transform="translate(158.726 45.76)" fill="#fff"/>
    <path id="Path_373" data-name="Path 373" d="M337.378,92.728H331.3a6.626,6.626,0,0,0-6.188-3.4c-4.719,0-8,3.358-8,8.6,0,5.358,3.321,8.679,8.228,8.679a7.152,7.152,0,0,0,7.47-6.076h-9.055V96.5h14.262v4.6a12.871,12.871,0,0,1-12.866,10.263,13.452,13.452,0,1,1-.037-26.9c5.885,0,10.565,2.981,12.263,8.263" transform="translate(168.469 45.655)" fill="#fff"/>
    <path id="Path_374" data-name="Path 374" d="M344,111.42a13.49,13.49,0,1,1,13.472-13.509A13.237,13.237,0,0,1,344,111.42m0-4.717c4.756,0,8.038-3.434,8.038-8.792S348.753,89.2,344,89.2c-4.793,0-8.075,3.358-8.075,8.716S339.2,106.7,344,106.7" transform="translate(178.635 45.642)" fill="#fff"/>
  </g>
</svg>
